<svg xmlns="http://www.w3.org/2000/svg" xmlns:xlink="http://www.w3.org/1999/xlink" viewBox="0 0 2187.8 1678.39"><defs><style>.cls-1{isolation:isolate;}.cls-2{opacity:0.5;fill:url(#linear-gradient);}.cls-3{fill:#2d6163;}.cls-4{fill:#47989c;}.cls-5{fill:#bcbbe8;}.cls-6{fill:#cdc9ed;}.cls-7{fill:#e34830;}.cls-8{fill:#e4e3ed;}.cls-9{fill:#88b6b8;}.cls-10{fill:#6f6d7d;}.cls-11{fill:#ff5345;}.cls-12{fill:#6090fe;}.cls-13{fill:#966259;}.cls-14{fill:#6b4744;}.cls-15{fill:#f47458;}.cls-16{fill:#466eb6;}.cls-17{fill:#13375b;}.cls-18{fill:#fff;}.cls-19{fill:#f0f0f0;}.cls-19,.cls-20{mix-blend-mode:multiply;}.cls-20{fill:#e0e0e0;}.cls-21{fill:#b3b3b3;}.cls-22{fill:#b75742;}.cls-23{fill:#355389;}.cls-24{fill:#f7a491;}.cls-25{fill:#f48c7f;}.cls-26{fill:#f79c8d;}.cls-27{fill:#50bfa5;}.cls-28{fill:#fae0b2;}.cls-29{fill:#30518a;}.cls-30{fill:#339e85;}.cls-31{fill:#4266b8;}</style><linearGradient id="linear-gradient" x1="1321.56" y1="1831.93" x2="1321.56" y2="160.81" gradientUnits="userSpaceOnUse"><stop offset="0" stop-color="#30475e"/><stop offset="0.5" stop-color="#6e4163"/><stop offset="1" stop-color="#ef5555"/></linearGradient></defs><g class="cls-1"><g id="Layer_1" data-name="Layer 1"><path class="cls-2" d="M2193.22,1831.93c257.33-69.69,245.35-396.12,112.66-565.42s-154.94-228.64-107.39-500.19c76-434.09-444.56-822.09-1098.29-466.09C548.1,600.87-29.51,1221.47,387.09,1831.93Z" transform="translate(-210.49 -160.81)"/><path class="cls-3" d="M217.82,1824.66H2373.54a7.06,7.06,0,0,1,6.93,7v.15a7.07,7.07,0,0,1-6.93,7.37H217.82a7.27,7.27,0,1,1,0-14.53Z" transform="translate(-210.49 -160.81)"/><rect class="cls-4" x="514.17" y="149.21" width="998.99" height="1157" rx="39.02"/><rect class="cls-5" x="532.26" y="359.87" width="962.81" height="905.87"/><rect class="cls-6" x="663.36" y="406.03" width="1121.59" height="962.81" rx="21.68" transform="translate(1901.1 -497.53) rotate(90)"/><path class="cls-3" d="M1682.94,326.64H765.37c-12.47,0-22.62,9.32-22.62,20.78v77.31h962.81V347.42C1705.56,336,1695.41,326.64,1682.94,326.64Z" transform="translate(-210.49 -160.81)"/><polygon class="cls-7" points="562.5 203.96 603.68 225.8 603.68 182.11 562.5 203.96"/><rect class="cls-8" x="532.26" y="241.2" width="962.81" height="111.47"/><path class="cls-9" d="M1619.44,481.76H828.86a15.14,15.14,0,0,1-15.13-15.13h0a15.14,15.14,0,0,1,15.13-15.14h790.58a15.14,15.14,0,0,1,15.14,15.14h0A15.14,15.14,0,0,1,1619.44,481.76Z" transform="translate(-210.49 -160.81)"/><rect class="cls-8" x="678.83" y="900.52" width="157.42" height="91.01"/><rect class="cls-8" x="678.83" y="795.15" width="157.42" height="91.01"/><rect class="cls-8" x="678.83" y="1111.28" width="157.42" height="91.01"/><rect class="cls-8" x="678.83" y="1005.9" width="157.42" height="91.01"/><rect class="cls-8" x="678.83" y="510.55" width="157.42" height="72.25"/><rect class="cls-8" x="678.83" y="597.17" width="157.42" height="78.23"/><rect class="cls-8" x="684.25" y="604.35" width="146.56" height="63.86"/><rect class="cls-8" x="678.83" y="689.77" width="157.42" height="91.01"/><rect class="cls-8" x="1183.65" y="1005.9" width="157.42" height="91.01"/><rect class="cls-8" x="847.1" y="1111.28" width="157.42" height="91.01"/><rect class="cls-8" x="1183.65" y="900.52" width="157.42" height="91.01"/><rect class="cls-8" x="1183.65" y="689.77" width="157.42" height="91.01"/><rect class="cls-8" x="1183.65" y="795.15" width="157.42" height="91.01"/><rect class="cls-8" x="1015.38" y="1111.28" width="157.42" height="91.01"/><rect class="cls-8" x="1183.65" y="1111.28" width="157.42" height="91.01"/><rect class="cls-8" x="678.83" y="423.93" width="157.42" height="72.25"/><rect class="cls-8" x="847.1" y="1005.9" width="157.42" height="91.01"/><rect class="cls-8" x="847.1" y="900.52" width="157.42" height="91.01"/><rect class="cls-8" x="1183.65" y="597.17" width="157.42" height="78.23"/><rect class="cls-8" x="847.1" y="423.93" width="157.42" height="72.25"/><rect class="cls-8" x="847.1" y="510.55" width="157.42" height="72.25"/><rect class="cls-8" x="847.1" y="689.77" width="157.42" height="91.01"/><rect class="cls-8" x="1015.38" y="1005.9" width="157.42" height="91.01"/><rect class="cls-8" x="847.1" y="597.17" width="157.42" height="78.23"/><rect class="cls-8" x="847.1" y="795.15" width="157.42" height="91.01"/><rect class="cls-8" x="1015.38" y="510.55" width="157.42" height="72.25"/><rect class="cls-8" x="1015.38" y="597.17" width="157.42" height="78.23"/><rect class="cls-8" x="1015.38" y="900.52" width="157.42" height="91.01"/><rect class="cls-8" x="1015.38" y="423.93" width="157.42" height="72.25"/><rect class="cls-8" x="1015.38" y="689.77" width="157.42" height="91.01"/><rect class="cls-8" x="1015.38" y="795.15" width="157.42" height="91.01"/><rect class="cls-8" x="1351.93" y="1111.28" width="137.72" height="91.01"/><rect class="cls-8" x="847.1" y="1216.65" width="157.42" height="42.24"/><rect class="cls-8" x="1015.38" y="1216.65" width="157.42" height="42.24"/><rect class="cls-8" x="1183.65" y="1216.65" width="157.42" height="42.24"/><rect class="cls-8" x="537.69" y="1216.65" width="130.28" height="42.24"/><rect class="cls-8" x="537.69" y="1111.28" width="130.28" height="91.01"/><rect class="cls-8" x="678.83" y="1216.65" width="157.42" height="42.24"/><rect class="cls-8" x="1351.93" y="1216.65" width="137.72" height="42.24"/><rect class="cls-8" x="1351.93" y="1005.9" width="137.72" height="91.01"/><rect class="cls-8" x="1351.93" y="597.17" width="137.72" height="78.23"/><rect class="cls-8" x="1183.65" y="510.55" width="157.42" height="72.25"/><rect class="cls-8" x="1189.08" y="517.73" width="146.56" height="57.88"/><rect class="cls-8" x="1351.93" y="689.77" width="137.72" height="91.01"/><rect class="cls-8" x="1351.93" y="510.55" width="137.72" height="72.25"/><rect class="cls-8" x="1351.93" y="795.15" width="137.72" height="91.01"/><rect class="cls-8" x="1351.93" y="900.52" width="137.72" height="91.01"/><rect class="cls-8" x="537.69" y="1005.9" width="130.28" height="91.01"/><rect class="cls-8" x="1351.93" y="423.93" width="137.72" height="72.25"/><rect class="cls-8" x="1183.65" y="423.93" width="157.42" height="72.25"/><rect class="cls-8" x="537.69" y="597.17" width="130.28" height="78.23"/><rect class="cls-8" x="537.69" y="364.86" width="957.38" height="44.71"/><rect class="cls-8" x="537.69" y="900.52" width="130.28" height="91.01"/><rect class="cls-8" x="537.69" y="795.15" width="130.28" height="91.01"/><rect class="cls-8" x="537.69" y="689.77" width="130.28" height="91.01"/><rect class="cls-8" x="537.69" y="423.93" width="130.28" height="72.25"/><rect class="cls-8" x="537.69" y="510.55" width="130.28" height="72.25"/><path class="cls-8" d="M1561.49,390.67h-31a3.66,3.66,0,0,1-3.66-3.66h0a3.66,3.66,0,0,1,3.66-3.66h31a3.66,3.66,0,0,1,3.66,3.66h0A3.66,3.66,0,0,1,1561.49,390.67Z" transform="translate(-210.49 -160.81)"/><rect class="cls-8" x="1377.19" y="202.44" width="35.49" height="27.42"/><rect class="cls-10" x="1595.09" y="362.6" width="20.66" height="28.73" transform="translate(1771.9 -1389.27) rotate(90)"/><path class="cls-8" d="M1667.85,390.67c-.1-.12-9.58-11.22-9.68-11.35h-.12c-.73,1-9,11.22-9.1,11.35h-5.9l12.16-13.73-11.69-13.4h6c6.39,7.73,7.54,9.07,8.91,10.95h.18c2.08-3,3.65-4.59,9-10.95h5.9l-12.1,13.2,12.4,13.93Z" transform="translate(-210.49 -160.81)"/><path class="cls-11" d="M1441.92,1174.29c7.63,2.13,19.78,10.31,30.33,19.19,11.88-14.31,41.8-49.77,61.9-65.11-26.88,31.2-47.72,56.94-60.45,89.61A101.31,101.31,0,0,0,1441.92,1174.29Z" transform="translate(-210.49 -160.81)"/><path class="cls-12" d="M931.85,668.84c7.64,2.13,19.78,10.31,30.34,19.19,11.87-14.3,41.79-49.77,61.9-65.11-26.89,31.2-47.73,56.94-60.46,89.61A101.23,101.23,0,0,0,931.85,668.84Z" transform="translate(-210.49 -160.81)"/><path class="cls-11" d="M1273.77,973.47c7.63,2.13,19.78,10.31,30.33,19.19,11.88-14.31,41.8-49.77,61.9-65.11-26.88,31.2-47.72,56.94-60.45,89.61A101.31,101.31,0,0,0,1273.77,973.47Z" transform="translate(-210.49 -160.81)"/><path class="cls-11" d="M766.65,973.47c7.63,2.13,19.78,10.31,30.33,19.19,11.88-14.31,41.8-49.77,61.9-65.11-26.88,31.2-47.73,56.94-60.45,89.61A101.31,101.31,0,0,0,766.65,973.47Z" transform="translate(-210.49 -160.81)"/><path class="cls-11" d="M1426.73,764c7.63,2.13,19.78,10.3,30.33,19.18,11.88-14.3,41.8-49.77,61.9-65.11-26.88,31.2-47.72,56.94-60.45,89.61A101.13,101.13,0,0,0,1426.73,764Z" transform="translate(-210.49 -160.81)"/><path class="cls-11" d="M931.85,1290.11c7.64,2.13,19.78,10.31,30.34,19.19,11.87-14.3,41.79-49.77,61.9-65.11-26.89,31.2-47.73,56.94-60.46,89.61A101.23,101.23,0,0,0,931.85,1290.11Z" transform="translate(-210.49 -160.81)"/><path class="cls-12" d="M1109.36,1290.11c7.64,2.13,19.78,10.31,30.34,19.19,11.87-14.3,41.79-49.77,61.89-65.11-26.88,31.2-47.72,56.94-60.45,89.61A101.23,101.23,0,0,0,1109.36,1290.11Z" transform="translate(-210.49 -160.81)"/><path class="cls-13" d="M2006,1233.69c-11.4-12.34-35.41-63.71-43.53-78.3-1.26-2.81-1.71-13-5.56-22.43-3.75-9.15-13.56-22.15-18.46-18.25s10.08,15,5.6,14-21.33-32.68-25.76-29.14,13.34,32.39,9.33,31.56-13.57-28.89-19.83-23.89,14.8,31.46,11.44,34.14-3.52-12.06-8.57-8,6.83,20,4.46,19.48-5.23-2.9-6,.56c-.94,3.92,26.9,18,30.8,26h0c7.42,21.74,20.44,61.32,37.64,81.32,21,24.47,81.61,92.33,81.61,92.33l25.15-47.72S2019.52,1248.32,2006,1233.69Z" transform="translate(-210.49 -160.81)"/><path class="cls-13" d="M2234.71,1406.44c9.42,13.43,53.47,46.94,65.71,57.7,1.43.14,9.68,1.27,20.25,9.94,7.46,6.12,24.38,10.93,19.65,14.79s-18.25-6.12-18.29-1.65,26.77,27.09,22.48,30.59-28.15-19.42-28.18-15.42,24.08,22.68,18,27.63-26.27-24.4-29.52-21.74,10,20.84,5.1,24.82-16.85-25.63-16.87-23.27.67,19.34-2.8,19.41c-3.93.08-10.56-43.12-17.43-48.51h0c-19.21-11.56-55.21-31.48-69.81-52.7-14.87-21.62-30.55-44.75-37.72-65.52-13.17-38.07-10.33-68.41-10.33-68.41s14.68-9,29.12,20.83C2196.81,1341.24,2223.54,1390.52,2234.71,1406.44Z" transform="translate(-210.49 -160.81)"/><path class="cls-14" d="M1942.35,1137.22a19.75,19.75,0,0,0-3.21,7c0,.43-2.7,8.42,2.62,16.18C1940.22,1154.72,1938.53,1148.42,1942.35,1137.22Z" transform="translate(-210.49 -160.81)"/><path class="cls-13" d="M2207.45,1740.19s3.84,33.4,10.09,48,26.86,23.76,45,27.34,12.09,6.42,9.43,9.08-81.2,4.45-95.06,1.94c0,0,5.33-27.35,5.33-31.61s-21.67-71.42-21.67-71.42Z" transform="translate(-210.49 -160.81)"/><path class="cls-15" d="M2176.89,1826.52s1.09-5.57,2.28-12.07c15.15,2,49.82-1.52,67.19-3.54,5.32,2,11.77,2.61,17.09,3.66,18.12,3.57,16.76,8.32,12.22,11.63C2272.63,1828.41,2190.75,1829,2176.89,1826.52Z" transform="translate(-210.49 -160.81)"/><path class="cls-13" d="M2052.91,1732.37s2.12,41-2.28,55.79c-4.53,15.19-11,17.8-28.81,22.75-17.47,4.85-10.84,12.63-8.18,15.29s63.79,2.83,77.65.32c0,0-5.33-27.35-5.33-31.61s6.47-73.28,6.47-73.28Z" transform="translate(-210.49 -160.81)"/><path class="cls-15" d="M2091.29,1826.52s-1.09-5.57-2.28-12.07c-15.15,2-49.82-1.52-67.19-3.54a140.85,140.85,0,0,0-16.16,4.59c-17.35,6.33-15.81,8-13.15,10.7S2077.43,1829,2091.29,1826.52Z" transform="translate(-210.49 -160.81)"/><path class="cls-16" d="M2227,1743.51s-41.57,11.19-88.73,11.19-139.9-24-139.9-24,25.58-61.82,34.37-109.25,15.19-129,15.19-129h140.73l8.79,56.45Z" transform="translate(-210.49 -160.81)"/><path class="cls-15" d="M2167.19,1292.32s9.18,10.66,9.18,43.7,1.6,82.61,4.26,99.67,10.66,59.42,10.66,59.42-23.45,19.46-84.21,14.13-63.95-13.51-63.95-13.51,8.52-137.32,8.52-151.71,13-56,13-56,35.1-3.62,51.09-2.39S2167.19,1292.32,2167.19,1292.32Z" transform="translate(-210.49 -160.81)"/><path class="cls-17" d="M2042.34,1155.49s-26.6,4.72-26.61,31c0,18.34,11.55,24.22,11.55,24.22s-8.91,28.38,13.18,45.77c16.54,13,33.95,3.33,33.95,3.33s6.87,30.91,49.14,25.5c36-4.62,33-33.33,33-33.33s21.41,5.67,37.13-14c18.89-23.67,11.7-54.7-13.94-66,0,0,12.7-34.15-21.79-47.92-27.52-11-47.91,6.78-47.91,6.78s-10.34-19.57-43.6-8.47C2040.37,1131.14,2042.34,1155.49,2042.34,1155.49Z" transform="translate(-210.49 -160.81)"/><path class="cls-13" d="M2137.8,1220c-3.42,7.24-2.24,15,2.65,17.29s11.63-1.68,15.05-8.91,2.24-15-2.65-17.29S2141.22,1212.81,2137.8,1220Z" transform="translate(-210.49 -160.81)"/><path class="cls-13" d="M2054.1,1219.34c.45,8,5.2,14.22,10.6,13.91s9.41-7,9-15-5.2-14.22-10.6-13.91S2053.64,1211.35,2054.1,1219.34Z" transform="translate(-210.49 -160.81)"/><path class="cls-13" d="M2094.35,1258.07l-1.62,31.08s-.48,12.09,11.92,14.91,24.84-5.76,25.8-15.5c.12-1.23-1.9-44.27-1.9-44.27Z" transform="translate(-210.49 -160.81)"/><path class="cls-14" d="M2128.55,1244.29l-34.2,13.78-.58,11c5.88.62,14.65,1,22.05-2.47,6.22-2.93,9.93-7.06,13.17-12.94C2128.73,1248.2,2128.55,1244.29,2128.55,1244.29Z" transform="translate(-210.49 -160.81)"/><path class="cls-13" d="M2120.91,1159.41a46.57,46.57,0,0,1,22.66,22.35c7.7,16.45,8.88,61.64-24.93,77.57s-52.17-16.77-51.62-45.46C2067.68,1179.94,2085.44,1150.15,2120.91,1159.41Z" transform="translate(-210.49 -160.81)"/><path class="cls-18" d="M1945,1773.07l2.16,33.19a20.17,20.17,0,0,0,21.55,18.68l1.14-.09a20.17,20.17,0,0,0,18.68-21.55l-2.17-33.19Z" transform="translate(-210.49 -160.81)"/><path class="cls-19" d="M1979.39,1821.62a20,20,0,0,1-9.59,3.23l-1.14.09a20.17,20.17,0,0,1-21.55-18.68l-2.16-33.19,20.68-1.48,2.16,33.19A20.17,20.17,0,0,0,1979.39,1821.62Z" transform="translate(-210.49 -160.81)"/><polygon class="cls-11" points="1679.61 765.46 1734.46 1612.26 1775.83 1609.3 1720.97 762.5 1699.17 745.23 1679.61 765.46"/><polygon class="cls-20" points="1700.29 763.98 1755.14 1610.79 1734.46 1612.26 1679.61 765.46 1700.29 763.98"/><path class="cls-18" d="M1901,878.28l-10.94,48c3.55,13.12,15.91,14.74,23.72-1.91,4.66-9.93,15.3,19.36,17.65-1.05l-17.66-45.93Z" transform="translate(-210.49 -160.81)"/><path class="cls-21" d="M1942.6,1767.19l.62,8.63a1.56,1.56,0,0,0,1.66,1.45l42.1-3a1.56,1.56,0,0,0,1.44-1.66l-.62-8.63a1.57,1.57,0,0,0-1.67-1.45l-42.09,3A1.56,1.56,0,0,0,1942.6,1767.19Z" transform="translate(-210.49 -160.81)"/><path class="cls-11" d="M1903.82,857.81,1901,878.28q4.67,5.51,12.77-.91l-5.68-19.87a2.2,2.2,0,0,0-2.27-1.59h0A2.21,2.21,0,0,0,1903.82,857.81Z" transform="translate(-210.49 -160.81)"/><path class="cls-13" d="M1951.88,1165.72c-5.77-4-7.37-19.06-7.82-32.12,0-7.59-10.16-19-6.68-23.82,1.07-1.07,13.66,9.39,19.53,23.18C1959.17,1138.28,1959.06,1170.63,1951.88,1165.72Z" transform="translate(-210.49 -160.81)"/><path class="cls-13" d="M1903.83,1144.54c6.83-11.16,8-10.93,4.55-12.52,4.56-7.06.56-9.11-1.08-8.66.86-5.92-1.19-12.07-4.61-6.37S1901.41,1148.4,1903.83,1144.54Z" transform="translate(-210.49 -160.81)"/><path class="cls-22" d="M1771.4,1122.19s-21.12-7.66-34.77,13.74-6.27,19.37-12.91,30.07-9.84,41.11-12.13,57.56c-23.42,167.69,256.65,181.28,147.28-32.47-10.25-20-18.93-32.1-28.16-53.5S1782.47,1117,1771.4,1122.19Z" transform="translate(-210.49 -160.81)"/><path class="cls-23" d="M1831.32,1278.85l28.25-9.87s11.21,14.32,14.57,50.17,0,56.91,0,56.91h-32Z" transform="translate(-210.49 -160.81)"/><path class="cls-16" d="M1774.74,1259.61c9.58,1,80.85-5.79,84.83,9.37,21.35,81.48-8,194-15.52,201.46s-130-16.93-130-16.93S1694.84,1251.37,1774.74,1259.61Z" transform="translate(-210.49 -160.81)"/><path class="cls-24" d="M1676,1176s9.3-3.64,16.46-16.9c4.59-8.51,18.24-19.41,12.56-21.17s-14.39,12.62-16,8.5,14.63-35.25,9.48-36.85-18.63,28.69-20.09,25,9-31.31,3.23-31.2c-7.62.14-11.88,31.37-15.79,30.15s1.78-27.78-4.07-29.6-5,32.86-7.14,31.86c-1.14-.54-6.34-17.33-9.52-16.07-3.6,1.42,8.08,39,3.77,46.63s-31.32,92.17-19.52,104c12.85,12.86,85.21,49.12,102.33,44s26.93-22,22.81-32.4-85-33.78-86.3-37S1676,1176,1676,1176Z" transform="translate(-210.49 -160.81)"/><path class="cls-25" d="M1678.56,1143.73a18.79,18.79,0,0,0-6.86-2.71,19.59,19.59,0,0,0-15.56,3.38C1661.58,1142.62,1667.63,1140.66,1678.56,1143.73Z" transform="translate(-210.49 -160.81)"/><path class="cls-26" d="M1607.77,1716.8s-15.83,64.54-27.62,74.67-50.26,29.52-40.2,31.6,84.55,3.82,82.51-8.6-4.18-20.35-4.18-20.35L1638,1748Z" transform="translate(-210.49 -160.81)"/><path class="cls-27" d="M1535,1825.72c18.16,1.81,71.2,3.72,86.66,1.74,0,0,2.89-.57.85-13-.5-3-1-5.81-1.48-8.26-14,3.69-44.54-4.15-56.63-5.76-13.14,6.29-27.94,15.68-32.72,16.47C1524.71,1818.05,1524.72,1824.7,1535,1825.72Z" transform="translate(-210.49 -160.81)"/><path class="cls-26" d="M1781.46,1770.91s1.66,16.32,1.66,23.52-6.7,27.49-3.6,30.59,91.83,2.72,91.83-.2-15.68-11.78-37-17.86-28.55-29.69-23-43.25Z" transform="translate(-210.49 -160.81)"/><path class="cls-27" d="M1872.78,1825c0-2.72-14.55-11.08-33.4-16.84-20.07,6.78-48,1.19-58.41-.81-3.2,8.36-4.22,16.3-2.58,17.94C1781.5,1828.42,1872.78,1827.94,1872.78,1825Z" transform="translate(-210.49 -160.81)"/><path class="cls-15" d="M1685.16,1498.06l-15.91,14.12s-17.91,48.49-19,51.69c-1.45,4.46-59.47,191.43-59.47,191.43l40.42,14.55s40.09-78.08,46.73-105.2,73-140.58,73-140.58Z" transform="translate(-210.49 -160.81)"/><path class="cls-15" d="M1755.45,1526.84l19.37,247.82h44.83s16-185.47,10.51-250.59Z" transform="translate(-210.49 -160.81)"/><path class="cls-27" d="M1834,1277.24a346.33,346.33,0,0,0-60.88-9.27c-16.77-.93-39.3,2.63-39.3,2.63s-20.47,45.94-26.56,83.57-39.3,158.28-39.3,158.28,67.53,52,166,17.71Z" transform="translate(-210.49 -160.81)"/><path class="cls-26" d="M1757.29,1236.1s.89,29.39-1.87,32.15-6.62,7.33-2.55,14.34,21.67,2.54,29.88-1.47a38.85,38.85,0,0,0,13-11l-4.1-46.54Z" transform="translate(-210.49 -160.81)"/><path class="cls-22" d="M1769,1248.28c5.65-2,15.54-5.8,23.17-18.21l-.57-6.51-34.32,12.54s.22,7.17.1,14.76A39.69,39.69,0,0,0,1769,1248.28Z" transform="translate(-210.49 -160.81)"/><path class="cls-26" d="M1797.65,1190.33s.83-17.27,11.44-13.92,2.53,29.43-6.27,28.57S1797.65,1190.33,1797.65,1190.33Z" transform="translate(-210.49 -160.81)"/><path class="cls-26" d="M1764.3,1133.9s-16.6-.37-25.09,12.55-17.71,49.8-3.68,75.26,31.91,19.19,39.29,16.61,22-8.31,29.33-32.1S1806.18,1128.92,1764.3,1133.9Z" transform="translate(-210.49 -160.81)"/><path class="cls-23" d="M1830.86,1276.46c-7.57,17.09-26.19,53.89-25.34,94.47.9,42.52,32.87,70.11,32.87,70.11v21s-35.28-5.55-48.77-60.49,19-129.55,19-129.55,4.63-3.3,13.81-.74C1828.52,1273,1830.86,1276.46,1830.86,1276.46Z" transform="translate(-210.49 -160.81)"/><path class="cls-23" d="M1753.35,1267.82s-26.52,142.71-60.9,152l6-24.33s35.43-115.46,35.43-124.85S1753.35,1267.82,1753.35,1267.82Z" transform="translate(-210.49 -160.81)"/><polygon class="cls-15" points="1471.12 1351.21 1574 1351.21 1574 1233.97 1471.12 1238.54 1471.12 1351.21"/><path class="cls-22" d="M1681.61,1390.2h98.31a4.58,4.58,0,0,1,4.57,4.58h0a4.58,4.58,0,0,1-4.57,4.57h-98.31l.08,0C1688.49,1396.77,1688.45,1392.74,1681.61,1390.2Z" transform="translate(-210.49 -160.81)"/><path class="cls-28" d="M1684.42,1391.56h92.12a3.22,3.22,0,0,1,3.21,3.22h0a3.21,3.21,0,0,1-3.21,3.21h-92.12C1687.54,1396,1687.54,1393.55,1684.42,1391.56Z" transform="translate(-210.49 -160.81)"/><path class="cls-17" d="M1726.7,1392.22h6.48a2.52,2.52,0,0,1,2.52,2.52v.22h-9Z" transform="translate(-210.49 -160.81)"/><path class="cls-23" d="M1732.92,1392.22c-1.55,0-3.86,1.31-5.17,2.93l-15.36,19.06h-9l14.62-18.12c1.71-2.13,4.76-3.86,6.8-3.86Z" transform="translate(-210.49 -160.81)"/><path class="cls-26" d="M1834,1277.24s-7.76,7.78-16.07,37.26-12.53,98.52-19.72,105.71-54.24,44.65-62.72,43.36-27.49-23.43-33.4-23.43-5.16,5.34-2.21,8.3,6.55,6.36,4.8,8.12l-1.76,1.75s-26.29-6.92-30.71-4.34,4.24,8.67,4.24,13.1-1.08,4.35-.55,9.22,1.75,8.77,4.06,11.07,31.36,10.7,59.77,6.83,63.09-17.53,88.73-49.26,20.51-131.46,19.92-141.4C1847,1278.35,1834,1277.24,1834,1277.24Z" transform="translate(-210.49 -160.81)"/><path class="cls-24" d="M392.82,1714.36s-4.15,41.49-14.81,49.11-24.88,35.8-17.77,51c2.22,4.76,6.66,7.51,11.72,9a31.22,31.22,0,0,0,37.29-17.21,86.11,86.11,0,0,0,7.31-31.64c1.6-33.71,12.27-50.85,12.27-50.85Z" transform="translate(-210.49 -160.81)"/><path class="cls-24" d="M556.64,1731.34s3.36,41.86.63,55.47c-1.46,7.29-9.59,22.28-5.86,29.14s8,8.57,8,8.57l96.71,1.53c5.26.08,1.78-3.25-2.46-6.32-7-5-12.57-8.35-34.77-18.91-1.45-.69-6.73-4-8.63-5.13-4.82-2.9-9.66-7.45-13.83-12-6.94-7.6-7.55-44.47-7.55-44.47Z" transform="translate(-210.49 -160.81)"/><path class="cls-29" d="M632.22,1174.84s12.18,68,4.18,112.53S590,1745,590,1745l-42.65,2.37s-8.94-172.55-7.34-196.55,14.26-64.15,14.26-64.15l-4.25-139.32,53.82-183Z" transform="translate(-210.49 -160.81)"/><path class="cls-16" d="M530.22,1137.53s-53.4,66.24-61.39,107.37,2.34,174-13,227.94c-8.32,29.18-39.88,74.25-44.68,112s-23.61,136.48-23.61,136.48l42.62,8.31,96.14-224.73L581,1296.91l45.86-151.8Z" transform="translate(-210.49 -160.81)"/><path class="cls-27" d="M412.15,1798.92c-23.23,4.16-38.69-9.2-46.73-19.2-5.9,11.33-9.52,25.48-5.18,34.79,3.83,8.2,14.24,10.44,23,10.76a25.07,25.07,0,0,0,22.63-12.42A75.44,75.44,0,0,0,412.15,1798.92Z" transform="translate(-210.49 -160.81)"/><path class="cls-27" d="M610.24,1795.68c-25.58,6.45-44.48,2.07-55.06-2.13-2.72,7.6-6.34,17.14-4.42,22.64,2.35,6.73,5.69,8.81,8.64,8.88,23.36.61,85.57.87,103.38,1.1a2.85,2.85,0,0,0,2.26-4.7C660.63,1816.28,612.15,1796.83,610.24,1795.68Z" transform="translate(-210.49 -160.81)"/><path class="cls-22" d="M641.16,758c-7.56-49.25-52.12-84.66-98.71-60.76-10.48,5.37-24.67,16.28-31.91,25.57-19.9,25.55-24.73,57.21-45.83,81.78C446.52,825.8,398,821.8,375.28,838.09s-38.57,45.5-38.57,80.44c0,39.08,8.82,80.56,39.1,105.26s73.3,30.86,111,20.39,70-36.12,93.2-67.52,39.68-65.84,51.27-103.16C644.16,831.85,646,789.86,641.16,758Z" transform="translate(-210.49 -160.81)"/><path class="cls-26" d="M470.65,824.83S413.45,722.73,399.53,701s-50.17-107.94-51.47-111.34,25-44.22,19.11-45.62-12.35,21.52-18.61,18.79S324,504.94,320.47,507.68c-6.67,5.12,9.85,34.22,6.3,36.05s-14.33-32-21.31-31,13.28,31,11.32,33.68-23-25.64-26.79-19.61c-2.06,3.28,19.34,24.7,15.23,26.71s-23.15-11.83-25.17-7.84,17.61,9.45,23.48,20.2,15.86,15.4,20,35.31,10.35,92,31.61,127.89,68,115.5,68,115.5Z" transform="translate(-210.49 -160.81)"/><path class="cls-25" d="M631.68,946.07l-45.85,26.35s87,114.56,92,119.79l36.63-32.39Z" transform="translate(-210.49 -160.81)"/><path class="cls-30" d="M593.61,877.6s35.59,6.78,79.94,116.64l-61,32.64-43.46-67.5Z" transform="translate(-210.49 -160.81)"/><path class="cls-25" d="M707.89,884.84s-9.84-1.38-22.2,11c-14,14.07-9.42,131-12.14,158.46-3.76,37.94,4.31,37.88,4.31,37.88s33.43-11.74,41.3-52.42S730,893.31,730,893.31Z" transform="translate(-210.49 -160.81)"/><path class="cls-27" d="M536.62,866.38s-44.83-2.85-62.56,16.44,39.34,171.88,42.56,196.43-37.29,115.48-37.29,115.48,134.2,15.71,164.3-4.17c0,0-6.38-41.29-6.87-78.25-.86-65.68,3.67-145.83,1.61-157-3.22-17.54-32.89-67.84-39.33-74.86S536.62,866.38,536.62,866.38Z" transform="translate(-210.49 -160.81)"/><path class="cls-24" d="M551.54,806.6s-.23,1.32-.65,3.56c-2,10.76-9.69,46.43-14.89,56.24-6.28,11.85,21.51,49.66,48.26,45.05,8-1.38-6.73-34.74-6-38.27,1.35-6.77,3.18-16,5.06-25.46,1.05-5.34,2.13-10.75,3.13-15.84l5.2-26.28Z" transform="translate(-210.49 -160.81)"/><path class="cls-15" d="M550.89,810.16c.42-2.24.65-3.56.65-3.56l40.09-1-5.2,26.28c-1,5.06-2.06,10.44-3.12,15.75-6.19-.91-12.65-3.91-19.14-9.57a50.52,50.52,0,0,1-14.49-21.52C550.17,814,550.58,811.83,550.89,810.16Z" transform="translate(-210.49 -160.81)"/><path class="cls-24" d="M578.52,715.67s-18.89-2.18-30.74,13.11-24.6,62.56,4.82,88.26,58.48-3.39,62.79-34.24S621.38,714.56,578.52,715.67Z" transform="translate(-210.49 -160.81)"/><path class="cls-24" d="M624.1,782.35c-3.51,6.81-9.41,10.58-13.17,8.42s-4-9.43-.45-16.24,9.41-10.59,13.17-8.43S627.61,775.53,624.1,782.35Z" transform="translate(-210.49 -160.81)"/><path class="cls-22" d="M580.63,710.61s-25.24,45-43.3,47-20.42,26-20.42,26,6.45-55,24.33-65.66S580.63,710.61,580.63,710.61Z" transform="translate(-210.49 -160.81)"/><path class="cls-24" d="M542.07,768.94c1.47,8-1.49,15.31-6.6,16.36s-10.44-4.58-11.91-12.56,1.48-15.31,6.6-16.35S540.6,761,542.07,768.94Z" transform="translate(-210.49 -160.81)"/><path class="cls-30" d="M454.82,791.74S518.1,859.65,527.51,887s-9.18,66.52-34.83,68.23-82.76-120.53-82.76-120.53Z" transform="translate(-210.49 -160.81)"/><path class="cls-31" d="M771.51,911.83H727.75c-24.52,0-44.39,2-44.39,26.52v628.76H815.9V938.35C815.9,913.84,796,911.83,771.51,911.83Z" transform="translate(-210.49 -160.81)"/><rect class="cls-12" x="513.42" y="766.6" width="51.44" height="639.71"/><polygon class="cls-12" points="522.03 1640.14 538.02 1663.86 552.82 1640.14 571.15 1558.65 504.9 1558.65 522.03 1640.14"/><polygon class="cls-18" points="504.9 1558.65 571.15 1558.65 605.41 1406.31 472.87 1406.31 504.9 1558.65"/><path class="cls-31" d="M791.09,894H708.17c-14.67,0-26.56,11.59-26.56,25.88V1012h136V919.84C817.65,905.55,805.76,894,791.09,894Z" transform="translate(-210.49 -160.81)"/><path class="cls-25" d="M700.25,886.39l6.19-1.74s21.62,3.4,23.53,8.81c3.52,10-19.82,33.95-25.5,33.95s7.79-22.2,7.79-22.2-11.75,20.88-16.64,18,5.15-19.42,5.15-19.42S690,919.82,688,917.76s5-23.68,5-23.68Z" transform="translate(-210.49 -160.81)"/><rect class="cls-18" x="675.36" y="1012" width="148.54" height="27.79" rx="1.19" transform="translate(1288.77 1890.98) rotate(180)"/></g></g></svg>