<svg id="Layer_1" data-name="Layer 1" xmlns="http://www.w3.org/2000/svg" viewBox="0 0 890.91 566.46"><defs><style>.cls-1{fill:none;stroke:#131313;stroke-miterlimit:10;stroke-width:5px;}</style></defs><path class="cls-1" d="M889.21,698.56c-52,0-94.11,27.24-94.11,60.85s42.13,60.84,94.11,60.84" transform="translate(-94.92 -256.63)"/><path class="cls-1" d="M983.33,589.63V759.41c0,33.6-42.14,60.84-94.12,60.84" transform="translate(-94.92 -256.63)"/><path class="cls-1" d="M966.52,577a80.9,80.9,0,0,1-97.33-116" transform="translate(-94.92 -256.63)"/><path class="cls-1" d="M835.29,573V292.7" transform="translate(-94.92 -256.63)"/><path class="cls-1" d="M818.48,577.34a80.87,80.87,0,1,1,0-152.59" transform="translate(-94.92 -256.63)"/><path class="cls-1" d="M690.29,573V292.7" transform="translate(-94.92 -256.63)"/><path class="cls-1" d="M673.48,577.34a80.87,80.87,0,1,1,0-152.59" transform="translate(-94.92 -256.63)"/><path class="cls-1" d="M434.57,426.41v75.41c0,43.43,24.83,78.63,55.45,78.63s55.45-35.2,55.45-78.63V426.41" transform="translate(-94.92 -256.63)"/><path class="cls-1" d="M191.53,698.91c-52,0-94.11,27.24-94.11,60.84s42.13,60.85,94.11,60.85" transform="translate(-94.92 -256.63)"/><path class="cls-1" d="M285.64,573V292.7" transform="translate(-94.92 -256.63)"/><path class="cls-1" d="M285.64,590V759.75c0,33.61-42.13,60.85-94.11,60.85" transform="translate(-94.92 -256.63)"/><path class="cls-1" d="M268.84,577.34a80.87,80.87,0,1,1,0-152.59" transform="translate(-94.92 -256.63)"/><path class="cls-1" d="M306.9,422.9a61.16,61.16,0,1,0,0-115.41" transform="translate(-94.92 -256.63)"/><path class="cls-1" d="M306.9,575a80.87,80.87,0,1,0,0-152.59" transform="translate(-94.92 -256.63)"/><circle class="cls-1" cx="190.05" cy="12.67" r="10.17"/></svg>