<svg id="Layer_1" data-name="Layer 1" xmlns="http://www.w3.org/2000/svg" xmlns:xlink="http://www.w3.org/1999/xlink" viewBox="0 0 622.86 570.97"><defs><style>.cls-1{stroke:#000;stroke-miterlimit:10;stroke-width:59px;fill:url(#linear-gradient);}.cls-2{fill:url(#linear-gradient-2);}</style><linearGradient id="linear-gradient" x1="705.16" y1="811.09" x2="705.16" y2="811.09" gradientUnits="userSpaceOnUse"><stop offset="0" stop-color="#213140"/><stop offset="0.42" stop-color="#30475e"/><stop offset="0.73" stop-color="#6d4163"/><stop offset="1" stop-color="#f05454"/></linearGradient><linearGradient id="linear-gradient-2" x1="668.14" y1="555.5" x2="1291" y2="555.5" xlink:href="#linear-gradient"/></defs><path class="cls-1" d="M705.16,811.09" transform="translate(-668.14 -270.01)"/><path class="cls-2" d="M891.24,270.14H735.43a67.29,67.29,0,0,0-67.29,67.29V801.09a10,10,0,0,0,10,10h39.79a10,10,0,0,0,10-10V379.93a50,50,0,0,1,50-50h70.81a50,50,0,0,1,50,50V731.19a50,50,0,0,1-50,50H752.56a10,10,0,0,0-10,10V831a10,10,0,0,0,10,10H891.24a67.29,67.29,0,0,0,67.29-67.29V337.43A67.29,67.29,0,0,0,891.24,270.14Zm-206.38,541h-3V557.22a7.49,7.49,0,1,1,3,0Zm12.27-222.45V811.09h-3V588.67a7.49,7.49,0,1,1,3,0Zm14.56,37.59V811.09h-3V626.26a7.51,7.51,0,1,1,3,0Zm546.48-89.8a70.49,70.49,0,0,0,1.67-15.22V335.28a66.26,66.26,0,0,0-17.34-44.59c-11.85-13.06-28.34-20.55-45.22-20.55l-106-.13a10,10,0,0,0-10,10l0,39.79a10,10,0,0,0,10,10l58.89.07a50,50,0,0,1,49.94,50l0,141.35a8.4,8.4,0,0,1-1.8,5.68l-107-.08a10,10,0,0,0-10,10l0,39.79a10,10,0,0,0,10,10l90,.07a50,50,0,0,1,50,50v94.53a50,50,0,0,1-50,50H1110.4a50,50,0,0,1-50-50V310a10,10,0,0,0-10-10h-9.63V500.59a7.51,7.51,0,1,1-3,0V300h-19.08V441.8a7.5,7.5,0,1,1-3-.09V300h-5.08a10,10,0,0,0-10,10V773.7A67.29,67.29,0,0,0,1067.9,841h155.81A67.29,67.29,0,0,0,1291,773.7V594.2A67.32,67.32,0,0,0,1258.17,536.43Zm-38.15-81v71.46h-3V455.37a7.49,7.49,0,1,1,3,.08Zm19.38-74.68V529h-3V380.78a7.51,7.51,0,1,1,3,0Zm-16.19,67.3a4.5,4.5,0,1,1-4.5-4.5A4.51,4.51,0,0,1,1223.21,448.07ZM714.63,618.9a4.5,4.5,0,1,1-4.5-4.5A4.51,4.51,0,0,1,714.63,618.9Zm-14.58-37.59a4.5,4.5,0,1,1-4.5-4.5A4.51,4.51,0,0,1,700.05,581.31ZM1017,444.6a4.5,4.5,0,1,1-4.5,4.5A4.51,4.51,0,0,1,1017,444.6Zm22.24,58.83a4.5,4.5,0,1,1-4.5,4.5A4.51,4.51,0,0,1,1039.21,503.43ZM687.78,549.86a4.5,4.5,0,1,1-4.5-4.5A4.51,4.51,0,0,1,687.78,549.86Zm554.61-176.43a4.5,4.5,0,1,1-4.5-4.5A4.51,4.51,0,0,1,1242.39,373.43Z" transform="translate(-668.14 -270.01)"/></svg>