<svg id="student_panel" data-name="student/panel" xmlns="http://www.w3.org/2000/svg" viewBox="0 0 1921 4320"><defs><style>.cls-1{fill:none;stroke:#714264;stroke-miterlimit:10;}.cls-2{fill:#f5f5f5;}</style></defs><polyline class="cls-1" points="878 306 878 322 894 322 895 322"/><polyline class="cls-1" points="889 316 895 322 889 328"/><path class="cls-2" d="M1920.5,4082.47v237H-.5v-1567C102.12,2852.22,252.12,2854.86,827,2897c726.1,53.23,861.56,76.51,936,190,89.13,135.9-11,246.07,55,611C1827.32,3749.56,1868.84,3979.22,1920.5,4082.47Z" transform="translate(0.5 0.5)"/><path class="cls-2" d="M1920.5,541V811.5l-.5.5c-29.06,28-61,21.68-116,43-25.34,9.82-43.67,15.85-61,32a128.82,128.82,0,0,0-23,29c-22.07,35.75-58,60.93-98,89-67.69,47.47-153,53.69-227,74-128,35.15-120.54,84.7-262,153-219.63,106-323.22,28-404,124-75.57,89.81,8.69,165.72-57,314-73.44,165.79-255.85,244.87-383,300-168,72.85-228.8,51.41-289.5,88.31V-.5h774c13.12,5,28.17,10.74,45.46,17.5,46.35,18.13,69.79,27.35,83,35,66.9,38.73,68.16,79,124,132,64.28,61.05,139.12,80.4,184,92,35.89,9.28,102.57,22,182,12,57.17-7.21,126-26.85,144-32,36.74-10.49,70.83-22.09,121-23,48.07-.88,66.5,8.86,72,12,43.11,24.59,52.39,78.62,54,89,6.22,40-10.76,47.33-5,92,2.31,17.89,6.89,53.45,34,81,36.57,37.16,89.6,34.82,108,34Z" transform="translate(0.5 0.5)"/></svg>