<svg xmlns="http://www.w3.org/2000/svg" xmlns:xlink="http://www.w3.org/1999/xlink" viewBox="0 0 1919.9 3581.31"><defs><style>.cls-1{fill:none;}.cls-2{isolation:isolate;}.cls-3{clip-path:url(#clip-path);}.cls-4{fill:url(#New_Gradient_Swatch_1);}.cls-5{fill:url(#linear-gradient);}.cls-6{mix-blend-mode:overlay;opacity:0.1;fill:url(#linear-gradient-2);}</style><clipPath id="clip-path" transform="translate(-0.1 0.14)"><rect class="cls-1" width="1920" height="4320"/></clipPath><linearGradient id="New_Gradient_Swatch_1" x1="-786.66" y1="4057.24" x2="2468.93" y2="801.65" gradientUnits="userSpaceOnUse"><stop offset="0" stop-color="#213140"/><stop offset="0.45" stop-color="#31475e"/><stop offset="0.76" stop-color="#6d4163"/><stop offset="1" stop-color="#f05555"/></linearGradient><linearGradient id="linear-gradient" x1="-345.78" y1="2380.69" x2="3185.86" y2="3905.84" gradientUnits="userSpaceOnUse"><stop offset="0" stop-color="#2e445a" stop-opacity="0"/><stop offset="0.01" stop-color="#2e445a" stop-opacity="0.03"/><stop offset="0.07" stop-color="#30465c" stop-opacity="0.18"/><stop offset="0.15" stop-color="#31475e" stop-opacity="0.27"/><stop offset="0.27" stop-color="#31475e" stop-opacity="0.3"/><stop offset="0.42" stop-color="#464560" stop-opacity="0.54"/><stop offset="0.65" stop-color="#6d4163"/></linearGradient><linearGradient id="linear-gradient-2" x1="-786.66" y1="4057.24" x2="2468.93" y2="801.65" gradientUnits="userSpaceOnUse"><stop offset="0" stop-color="#2e445a"/><stop offset="0.04" stop-color="#2f455b"/><stop offset="0.27" stop-color="#31475e"/><stop offset="0.49" stop-color="#524461"/><stop offset="0.65" stop-color="#6d4163"/></linearGradient></defs><g class="cls-2"><g id="home"><g class="cls-3"><path class="cls-4" d="M1443.7-.14c-81.64,73.53-129.17,140.49-129.17,140.49-64.29,90.58-124.31,175.15-131,293-9.37,165.36,95.57,232.77,69,423-8.49,60.78-15.3,109.52-54,138-69.72,51.31-171.44-15.75-392-84-183.12-56.67-274.68-85-385-77C238.41,846.6,109.06,950.14.1,1039.89V3425.4l.5-.23c31.65-13.74,115.6-10.29,252-39s135.22-41.25,200-46c105.11-7.7,149.76,22.28,323,62,118.32,27.13,187.87,43.07,269,46,213.54,7.71,263.43-83.58,423-85,193.5-1.72,261.32,131.31,448,216,1.5.68,3,1.34,4.5,2V-.14Z" transform="translate(-0.1 0.14)"/><path class="cls-5" d="M.1,2461.05V3425.4l.5-.23c31.65-13.74,115.6-10.29,252-39s135.22-41.25,200-46c105.1-7.7,149.75,22.29,323,62,118.32,27.13,187.87,43.07,269,46,213.54,7.71,263.43-83.57,423-85,193.5-1.72,261.32,131.31,448,216,1.5.68,3,1.34,4.5,2V2463.85C1265.88,2462.06,567.31,2460.74.1,2461.05Z" transform="translate(-0.1 0.14)"/><path class="cls-6" d="M1443.7-.14c-81.64,73.53-129.17,140.49-129.17,140.49-64.29,90.58-124.31,175.15-131,293-9.37,165.36,95.57,232.77,69,423-8.49,60.78-15.3,109.52-54,138-69.72,51.31-171.44-15.75-392-84-183.12-56.67-274.68-85-385-77C238.41,846.6,109.06,950.14.1,1039.89V3425.4l.5-.23c31.65-13.74,115.6-10.29,252-39s135.22-41.25,200-46c105.11-7.7,149.76,22.28,323,62,118.32,27.13,187.87,43.07,269,46,213.54,7.71,263.43-83.58,423-85,193.5-1.72,261.32,131.31,448,216,1.5.68,3,1.34,4.5,2V-.14Z" transform="translate(-0.1 0.14)"/></g></g></g></svg>