<svg id="teacher_panel_copy" data-name="teacher/panel copy" xmlns="http://www.w3.org/2000/svg" viewBox="0 0 1920 1080"><defs><style>.cls-1{fill:#f5f5f5;}</style></defs><path class="cls-1" d="M1703,256c-46.78-32.3-204-149-389-116-108.8,19.43-167.69,82.76-291,64-32.37-4.92-116.13-19-178-92C813.78,75.15,798,34.92,790.23,0H0V1080H1228.37c49.29-16,112.44-32.35,200.63-55,208.69-53.6,258.77-54.37,294-107,44.5-66.48-4.86-110.89,40-201,45.14-90.68,121.67-99,157-141.34V458C1868.67,363,1727.21,272.71,1703,256Z"/></svg>