<svg id="teacher_panel" data-name="teacher/panel" xmlns="http://www.w3.org/2000/svg" viewBox="0 0 1857.5 1077"><defs><style>.cls-1{fill:#f5f5f5;}.cls-2{fill:none;}</style></defs><path class="cls-1" d="M1920,0V1077H696.8q-2.34-2-4.8-4c-33.72-27.66-73.12-50.63-169-86-64-23.62-121.86-41.19-151-50-79.2-23.94-98.31-26.35-134-47-33.76-19.53-54.42-39.23-93-76-45-42.9-67.7-65-77-99-2.54-9.26-13-47.4,4-85,5.2-11.51,18-34.19,101-79,79.67-43,114.65-47.39,128-83,1-2.75,10.25-28.44,0-54-10.42-26-31.07-27.19-65-60-20.46-19.78-38.47-37.19-45-63-9.62-38,11.64-72.68,24-95,23.24-41.95,57.15-64.34,97-90a501.78,501.78,0,0,1,95-48A1639.61,1639.61,0,0,1,595.76,0Z" transform="translate(-62.5)"/><path class="cls-2" d="M1920,0V1077H696.8q-2.34-2-4.8-4c-33.72-27.66-73.12-50.63-169-86-64-23.62-121.86-41.19-151-50-79.2-23.94-98.31-26.35-134-47-33.76-19.53-54.42-39.23-93-76-45-42.9-67.7-65-77-99-2.54-9.26-13-47.4,4-85,5.2-11.51,18-34.19,101-79,79.67-43,114.65-47.39,128-83,1-2.75,10.25-28.44,0-54-10.42-26-31.07-27.19-65-60-20.46-19.78-38.47-37.19-45-63-9.62-38,11.64-72.68,24-95,23.24-41.95,57.15-64.34,97-90a501.78,501.78,0,0,1,95-48A1639.61,1639.61,0,0,1,595.76,0Z" transform="translate(-62.5)"/></svg>