<svg id="roles" xmlns="http://www.w3.org/2000/svg" xmlns:xlink="http://www.w3.org/1999/xlink" viewBox="0 0 369.51 335.12"><defs><style>.cls-1{fill:none;}.cls-2,.cls-3{fill:#f5f5f5;}.cls-3{stroke:#2f465c;stroke-miterlimit:10;stroke-width:4px;}.cls-4{clip-path:url(#clip-path);}.cls-5{fill:#263238;}.cls-6{fill:#455b64;}.cls-7{fill:#fff;}.cls-8{fill:#fafbfb;}.cls-9{fill:#3694d1;}.cls-10{fill:#fbbd9d;}.cls-11{fill:#ec996f;}.cls-12{fill:#76c8a6;}.cls-13{fill:#e7515b;}.cls-14{opacity:0.5;}.cls-15{fill:#e0e0e0;}</style><clipPath id="clip-path" transform="translate(-562.12 -438.99)"><path class="cls-1" d="M733.29,448.33a42.89,42.89,0,0,1,37.43,2,334.19,334.19,0,0,1,91.2,73.71c23.38,27.07,55.46,64.23,60,118.45a144.42,144.42,0,0,1-8,61.2c-2.91,8-22.26,61.1-57,64.16-9.61.85-17.86-3.37-34-11.84-41.52-21.85-43.17-39.48-69-48.37-23.69-8.17-31.85,3.42-71,3-29.88-.35-53.44-1.35-75.95-15.79-21-13.47-46.17-42.25-41.47-70.58,2.51-15.15,20.7-30.38,57-60.22,36.5-30,37.53-25.55,49-39.48,22.64-27.57,20.13-47,43-65.15A80.22,80.22,0,0,1,733.29,448.33Z"/></clipPath></defs><path class="cls-2" d="M720.1,444.91a43.65,43.65,0,0,1,38.6-.9,345,345,0,0,1,99.67,69.27c26.22,26.26,62.2,62.3,71.25,118.31a152.37,152.37,0,0,1-3.21,64.27c-2.33,8.52-17.87,65.31-53.26,71.3-9.8,1.66-18.62-2.07-35.86-9.58-44.42-19.36-47.55-37.56-74.76-44.72-25-6.58-32.43,6.13-72.62,8.8-30.71,2.05-55,2.91-79.28-10.29-22.65-12.31-50.87-40.2-48.35-70,1.34-16,18.77-33.25,53.58-67.2,35-34.16,36.45-29.59,47.06-45,21-30.49,16.84-50.45,38.8-71.2A82.07,82.07,0,0,1,720.1,444.91Z" transform="translate(-562.12 -438.99)"/><path class="cls-3" d="M733.29,448.27a42.41,42.41,0,0,1,37.45,2.07A335.16,335.16,0,0,1,862,525c23.39,27.43,55.49,65.07,60,120a148.15,148.15,0,0,1-8,62c-2.9,8.07-22.27,61.9-57,65-9.62.86-17.88-3.41-34-12-41.55-22.13-43.2-40-69-49-23.71-8.28-31.88,3.47-71,3-29.9-.36-53.47-1.37-76-16-21-13.64-46.2-42.8-41.5-71.5,2.51-15.34,20.71-30.77,57-61,36.52-30.42,37.55-25.89,49-40,22.66-27.93,20.15-47.58,43-66A79.89,79.89,0,0,1,733.29,448.27Z" transform="translate(-562.12 -438.99)"/><g class="cls-4"><path class="cls-5" d="M922,645c-4.51-54.93-36.61-92.57-60-120a335.16,335.16,0,0,0-91.26-74.66,42.41,42.41,0,0,0-37.45-2.07c-1.91.81-3.84,1.74-5.79,2.75V675.83H921.39A150.79,150.79,0,0,0,922,645Z" transform="translate(-562.12 -438.99)"/><path class="cls-5" d="M735.39,666.73H922.23v-.1l-186.61-.14v.24l-.24-.24h.24c0-66.1,0-140.08,0-218h-.26l.26-.26v.26h31.4l-.56-.26h-31.1Z" transform="translate(-562.12 -438.99)"/><path class="cls-5" d="M735.39,448.51h.26v-.26Z" transform="translate(-562.12 -438.99)"/><path class="cls-6" d="M735.63,666.49l186.61.14A152.61,152.61,0,0,0,922,645c-4.51-54.93-36.61-92.57-60-120a335.16,335.16,0,0,0-91.26-74.66,40.8,40.8,0,0,0-3.69-1.83h-31.4C735.64,526.41,735.63,600.39,735.63,666.49Z" transform="translate(-562.12 -438.99)"/><path class="cls-5" d="M735.39,666.73V448.25h31.1l-.64-.25H735.13v.26c0,78.09,0,152.24,0,218.48V667h.24l186.83-.15v-.09Z" transform="translate(-562.12 -438.99)"/><path class="cls-5" d="M783.52,675.83H716.7v9.44H919.92c.6-3.16,1.07-6.22,1.44-9.18C844.77,676.09,783.52,676,783.52,675.83Z" transform="translate(-562.12 -438.99)"/><path class="cls-6" d="M921.39,675.83l0-.26c-76.61,0-137.9.12-137.9.26Z" transform="translate(-562.12 -438.99)"/><path class="cls-6" d="M783.52,675.83c0,.15,61.25.26,137.84.26l0-.26Z" transform="translate(-562.12 -438.99)"/><path class="cls-6" d="M732.4,443.11a29.85,29.85,0,0,0-4.78-4.11,52.92,52.92,0,0,0,4.42,4.48c1.66,1.62,3.08,3,3.88,3.78l.26-.09A50.32,50.32,0,0,0,732.4,443.11Z" transform="translate(-562.12 -438.99)"/><path class="cls-6" d="M736.18,447.17l-.26.09c.4.36.65.58.69.54S736.47,447.53,736.18,447.17Z" transform="translate(-562.12 -438.99)"/><path class="cls-1" d="M835,599.53c0-.4,0-.91,0-1.53,0-1.38,0-3.27-.07-5.6-.06-4.69-.11-11.16-.12-18.5h-4.33v3.85c0,1.35,0,2.67,0,4,0,2.57,0,5,0,7.28,0,4.37-.06,8.08-.08,10.85H835C835,599.78,835,599.67,835,599.53Z" transform="translate(-562.12 -438.99)"/><path class="cls-1" d="M922.46,653.65l-6.2-3.67V668.4h5.86C922.51,662.93,922.57,658,922.46,653.65Z" transform="translate(-562.12 -438.99)"/><path class="cls-1" d="M811.93,599.7c0-.2,0-.45,0-.77,0-.72,0-1.7,0-3,0-2.6,0-6.29-.08-10.87,0-9.13-.06-21.74-.11-35.9h-4.33v8.13q0,4.09,0,8c0,5.17,0,10,0,14.45-.05,8.69-.09,15.66-.11,20h4.73S811.93,599.76,811.93,599.7Z" transform="translate(-562.12 -438.99)"/><path class="cls-1" d="M800.49,599.4c0-.49,0-1.12,0-1.91,0-1.7,0-4.07-.07-7,0-5.88-.07-14-.11-23.1h-4.34v10c0,3.26,0,6.35,0,9.18,0,5.5-.07,10-.09,13.25h4.7C800.5,599.72,800.49,599.58,800.49,599.4Z" transform="translate(-562.12 -438.99)"/><path class="cls-1" d="M895.8,597a2.4,2.4,0,0,0-1.8.64,4.56,4.56,0,0,0-1.26,2.61,3.15,3.15,0,0,0,.16,1.66,2,2,0,0,0,1.22,1.15,1.9,1.9,0,0,0,1.62-.37,3.45,3.45,0,0,0,1-1.34,5.85,5.85,0,0,0,.63-2.88,1.76,1.76,0,0,0-.88-1.33v0S896.27,597,895.8,597Z" transform="translate(-562.12 -438.99)"/><path class="cls-1" d="M788.78,598.65c0-1,0-2.27-.07-3.84-.05-3.19-.1-7.58-.11-12.61h-4.34v2.47c0,.9,0,1.78,0,2.65,0,1.72,0,3.36,0,4.91,0,3-.05,5.56-.07,7.65l4.67,0C788.81,599.64,788.8,599.24,788.78,598.65Z" transform="translate(-562.12 -438.99)"/><path class="cls-1" d="M773.49,603a2.07,2.07,0,0,0-1.22.55,2.34,2.34,0,0,0-.69,1.81,2.59,2.59,0,0,0,1,2.1.9.9,0,0,0,1,0,2.06,2.06,0,0,0,.69-.9,3.6,3.6,0,0,0,.25-2A4,4,0,0,0,774,603,3,3,0,0,0,773.49,603Z" transform="translate(-562.12 -438.99)"/><path class="cls-1" d="M823.64,599.52c0-.31,0-.75,0-1.31,0-1.16,0-2.84,0-5,0-4.35,0-10.62-.08-18.38,0-15.48-.06-36.88-.1-60.75h-4.33v14.58c0,4.82,0,9.52,0,14.06,0,9.08,0,17.51,0,25-.06,14.88-.1,26.21-.12,32.06h4.76A2.63,2.63,0,0,1,823.64,599.52Z" transform="translate(-562.12 -438.99)"/><path class="cls-1" d="M901.42,606c.82-.79,1.63-1.58,2.43-2.4a41.13,41.13,0,0,0,6-7.51,181.11,181.11,0,0,0-8-16.55c-.11,7.66-.25,16.72-.42,26.46Z" transform="translate(-562.12 -438.99)"/><path class="cls-1" d="M902.17,606h2c3.5,0,6.76,0,9.54,0q-1.68-4.78-3.6-9.36a42.07,42.07,0,0,1-5.87,7.29C903.54,604.67,902.86,605.34,902.17,606Z" transform="translate(-562.12 -438.99)"/><path class="cls-1" d="M904.79,676V632.46l7.18,4.18h0l7,4.07s.08,0,.1,0,0,.06,0,.1l2.65,1.54a156,156,0,0,0-7.89-35.83c-2.81,0-6.12,0-9.69,0h-2.52l-.25.24,0,1.34c-.5,28.84-1,52.23-1.17,52.22s.15-23.39.65-52.23c0-.27,0-.54,0-.81-1.73,1.67-3.42,3.33-4.92,5.08a34.26,34.26,0,0,0-5.69,9.27,53,53,0,0,0-3.67,18.09c-.23,5.29,0,9.58.13,12.54.07,1.46.12,2.6.16,3.42,0,.36,0,.66,0,.88a.94.94,0,0,1,0,.31,1.4,1.4,0,0,1,0-.3c0-.23-.05-.52-.09-.89-.06-.81-.14-2-.25-3.4a121.39,121.39,0,0,1-.3-12.57,52.67,52.67,0,0,1,3.6-18.26,34.54,34.54,0,0,1,5.74-9.42c1.63-1.9,3.46-3.69,5.32-5.49v0c-8.51,0-15-.13-15-.26s6.46-.23,15-.26c.18-10.07.36-19.41.52-27.23-3.28-5.93-6.79-11.55-10.42-16.9l-.44,1.21a31.3,31.3,0,0,1-2.22,5.2,30.29,30.29,0,0,1,1.73-5.38c0-.07.05-.14.08-.22a15.91,15.91,0,0,1-1.34-1.64,6.4,6.4,0,0,1-1.28-2.22c.12-.08.88.77,1.71,1.91a17.54,17.54,0,0,1,1,1.6c.12-.33.25-.66.37-1C881.17,547.49,871,535.49,862,525a335.16,335.16,0,0,0-91.26-74.66,42.41,42.41,0,0,0-37.45-2.07A79.89,79.89,0,0,0,714.5,459.5c-22.85,18.42-20.34,38.07-43,66-11.45,14.11-12.48,9.58-49,40-36.29,30.23-54.49,45.66-57,61C560.8,655.2,586,684.36,607,698c22.53,14.63,46.1,15.64,76,16,39.12.47,47.29-11.28,71-3,25.8,9,27.45,26.87,69,49,16.12,8.59,24.38,12.86,34,12,34.73-3.1,54.1-56.93,57-65a143.94,143.94,0,0,0,7.37-31Zm-12.52-75.83a4.76,4.76,0,0,1,1.49-2.81,2.5,2.5,0,0,1,2.07-.56h0a1.25,1.25,0,0,1,.47,0,2,2,0,0,1,1.42,1.59,5.77,5.77,0,0,1-.56,3.13,3.8,3.8,0,0,1-1.15,1.56,2.38,2.38,0,0,1-2.07.46,2.41,2.41,0,0,1-1.55-1.45A3.45,3.45,0,0,1,892.27,600.15Zm-31.73-3.83a1.54,1.54,0,0,1,1.08-.37,1.31,1.31,0,0,1,1.06,1.34,2.57,2.57,0,0,1-.93,1.81l-.7.7a1.26,1.26,0,0,0-.18.21h0l1.56,0a4.23,4.23,0,0,1,1.44.15,4.05,4.05,0,0,1-1.43.22l-1.56.09a.6.6,0,0,1-.36-.07.44.44,0,0,1-.18-.46.91.91,0,0,1,.32-.49l.69-.71a2.28,2.28,0,0,0,.84-1.47.93.93,0,0,0-.64-1,1.54,1.54,0,0,0-.92.17c-.22.1-.36.15-.38.12S860.34,596.47,860.54,596.32Zm-9.23,2.08a13,13,0,0,1,3.24,1.58,24.58,24.58,0,0,1-6.68-2.67A13.14,13.14,0,0,1,851.31,598.4ZM775,494.57c.14-.05.5.76,1.1,1.66.28.43.56.81.77,1.09l0-.08a18.43,18.43,0,0,1,1.42-3.41,10.39,10.39,0,0,1-.93,3.6,10.22,10.22,0,0,1-1.73,3.29,14.55,14.55,0,0,1,1.07-3,4.82,4.82,0,0,1-1.07-1.17C775,495.55,774.86,494.6,775,494.57Zm2.27,9.93.05-.12.21-.5.26.47a42.09,42.09,0,0,1,2.86,5.93,38.42,38.42,0,0,1-3.06-5.2,42.13,42.13,0,0,1-2.67,5.7A42,42,0,0,1,777.27,504.5Zm-5.57,11.66a5.57,5.57,0,0,1-1,6.12,29.94,29.94,0,0,0,.9-3A31,31,0,0,0,771.7,516.16Zm-2.47,1.26a1.44,1.44,0,0,1,.54-1.24,1.51,1.51,0,0,1,1.05-.28c.63.09.85.47.79.5s-.32-.16-.81-.13a1.07,1.07,0,1,0,.11,2.14c.48,0,.73-.26.79-.21s-.12.43-.74.58a1.41,1.41,0,0,1-1.73-1.36Zm5.49,89.31a2.51,2.51,0,0,1-.84,1.13,1.42,1.42,0,0,1-1.58.06,3,3,0,0,1-1.2-2.53,2.64,2.64,0,0,1,.93-2.1,2.11,2.11,0,0,1,1.46-.47,1.27,1.27,0,0,1,.4.1c-.06-.11-.1-.17-.08-.19a2.56,2.56,0,0,1,1.08,1.74A3.76,3.76,0,0,1,774.72,606.73ZM812,600.34c-14.08,0-26.53,0-34.09-.11,0,4.3-.08,6.78-.13,6.78s-.09-2.48-.13-6.78c-4.66,0-7.39-.09-7.39-.15s2.73-.1,7.39-.15c-.08-8.56-.13-24-.13-41.71,0-27,.12-48.79.26-48.79s.26,21.84.26,48.79c0,17.67,0,33.15-.12,41.71l6,0c0-2.09-.05-4.68-.07-7.65,0-1.55,0-3.19,0-4.91V582h0l.26-.26h5.11V582c0,5.24-.06,9.81-.11,13,0,1.54-.06,2.81-.07,3.78,0,.52,0,.88,0,1.09l6.66,0c0-3.2,0-7.75-.09-13.25,0-2.83,0-5.92,0-9.18,0-1.63,0-3.31,0-5v-5.23h0c.12-.12-.26.25.26-.27h5.11v.26c0,9.31-.08,17.56-.11,23.54,0,2.9-.06,5.25-.08,6.93,0,.77,0,1.38,0,1.85,0,.16,0,.27,0,.37H807c0-4.38-.06-11.35-.11-20,0-4.42,0-9.28,0-14.45,0-2.6,0-5.27,0-8V549c.12-.12-.26.25.26-.27h5.11v.26c0,14.34-.08,27.11-.11,36.35,0,4.55-.06,8.23-.08,10.81l0,2.9c0,.3,0,.55,0,.74v.08h6.75c0-5.85-.07-17.18-.13-32.06,0-7.53,0-16,0-25,0-4.54,0-9.24,0-14.06v-7.34c0-1.24,0-2.48,0-3.73v-3.75c.12-.12-.26.24.27-.28h5.11v.26c0,24.06-.08,45.62-.11,61.2,0,7.73-.06,14-.08,18.32,0,2.13,0,3.79,0,4.95l0,1.27v.27l6.37,0c0-2.77-.06-6.48-.09-10.85,0-2.27,0-4.71,0-7.28,0-1.29,0-2.61,0-4v-4.1h0l.26-.26h5.11v.26c0,7.55-.07,14.2-.12,18.93,0,2.31,0,4.18-.07,5.54,0,.6,0,1.09,0,1.48a1.93,1.93,0,0,1,0,.26l6.24,0v-.33a5.44,5.44,0,0,1,.26-2.31,5.44,5.44,0,0,1,.26,2.31v.33c7.35.05,11.88.11,11.88.18s-4.54.14-11.89.18c0,.94-.13,1.62-.25,1.62s-.21-.68-.25-1.61C833.76,600.31,823.4,600.34,812,600.34Zm31.11,8.5a1.81,1.81,0,0,1-3.3.35,1.85,1.85,0,0,1,0-1.85,3.12,3.12,0,0,1,1.21-1,1.52,1.52,0,0,1-.79-.9,1.41,1.41,0,0,1,.26-1.17,1.58,1.58,0,0,1,.71-.51,1.13,1.13,0,0,1,.71-.11c0,.05-.24.09-.62.29a1.54,1.54,0,0,0-.56.5,1.12,1.12,0,0,0-.15.9c.08.34.44.53.87.76a3.57,3.57,0,0,0,.67-.46,1.4,1.4,0,0,0,.46-.83.85.85,0,0,0-.2-.67c-.27-.32-.56-.26-.56-.31s.3-.17.7.17a1,1,0,0,1,.35.83,1.64,1.64,0,0,1-.49,1.07,2.77,2.77,0,0,1-.52.43,3,3,0,0,1,.85.71A1.91,1.91,0,0,1,843.06,608.84Zm9.64-7.31a9.35,9.35,0,0,1-2.93.76,8.73,8.73,0,0,1,2.76-1.25,8.85,8.85,0,0,1,2.93-.75A9.12,9.12,0,0,1,852.7,601.53ZM891.29,676H856.88v-3.75h34.41Z" transform="translate(-562.12 -438.99)"/><path class="cls-1" d="M840.2,607.59a1.38,1.38,0,0,0,0,1.35,1.34,1.34,0,0,0,1.28.63,1.31,1.31,0,0,0,1.09-.9,1.37,1.37,0,0,0-.27-1.33,3.08,3.08,0,0,0-.9-.75A3.26,3.26,0,0,0,840.2,607.59Z" transform="translate(-562.12 -438.99)"/><path class="cls-7" d="M895.55,612a34.54,34.54,0,0,0-5.74,9.42,52.67,52.67,0,0,0-3.6,18.26,121.39,121.39,0,0,0,.3,12.57c.11,1.45.19,2.59.25,3.4,0,.37.07.66.09.89a1.4,1.4,0,0,0,0,.3.94.94,0,0,0,0-.31c0-.22,0-.52,0-.88,0-.82-.09-2-.16-3.42-.12-3-.36-7.25-.13-12.54a53,53,0,0,1,3.67-18.09,34.26,34.26,0,0,1,5.69-9.27c1.5-1.75,3.19-3.41,4.92-5.08,0-.25,0-.49,0-.74C899,608.35,897.18,610.14,895.55,612Z" transform="translate(-562.12 -438.99)"/><path class="cls-7" d="M901.42,606h.75c.69-.67,1.37-1.34,2.06-2a42.07,42.07,0,0,0,5.87-7.29c-.08-.2-.17-.39-.25-.59a41.13,41.13,0,0,1-6,7.51C903.05,604.43,902.24,605.22,901.42,606Z" transform="translate(-562.12 -438.99)"/><path class="cls-7" d="M901.39,606.77l.25-.24h-.25Z" transform="translate(-562.12 -438.99)"/><path class="cls-7" d="M900.87,606.53v0l0,0Z" transform="translate(-562.12 -438.99)"/><path class="cls-7" d="M901.4,606c.17-9.74.31-18.8.42-26.46-.14-.26-.27-.52-.42-.77-.16,7.82-.34,17.16-.52,27.23Z" transform="translate(-562.12 -438.99)"/><path class="cls-7" d="M900.84,608.1c-.5,28.84-.8,52.23-.65,52.23s.67-23.38,1.17-52.22l0-1.34-.53.52C900.85,607.56,900.85,607.83,900.84,608.1Z" transform="translate(-562.12 -438.99)"/><path class="cls-7" d="M900.9,606.53l0,0c0,.25,0,.49,0,.74l.53-.52v-.24Z" transform="translate(-562.12 -438.99)"/><path class="cls-7" d="M885.9,606.27c0,.13,6.46.23,15,.26,0-.18,0-.35,0-.52C892.36,606,885.9,606.14,885.9,606.27Z" transform="translate(-562.12 -438.99)"/><path class="cls-7" d="M902.17,606l-.53.52h2.52c3.57,0,6.88,0,9.69,0l-.15-.44c-2.78,0-6,0-9.54,0Z" transform="translate(-562.12 -438.99)"/><path class="cls-7" d="M901.42,606h0v0Z" transform="translate(-562.12 -438.99)"/><path class="cls-7" d="M901.42,606l0,0v.5h.25l.53-.52Z" transform="translate(-562.12 -438.99)"/><path class="cls-7" d="M901.4,606v0h-.52c0,.17,0,.34,0,.52h0Z" transform="translate(-562.12 -438.99)"/><path class="cls-7" d="M901.39,606.53V606l-.5.5Z" transform="translate(-562.12 -438.99)"/><path class="cls-7" d="M896.28,597a.9.9,0,0,1,.24.12,1.11,1.11,0,0,0-.65-.33.67.67,0,0,0-.31.12A2.51,2.51,0,0,1,896.28,597Z" transform="translate(-562.12 -438.99)"/><path class="cls-7" d="M894,603.54a2.38,2.38,0,0,0,2.07-.46,3.8,3.8,0,0,0,1.15-1.56,5.77,5.77,0,0,0,.56-3.13,2,2,0,0,0-1.42-1.59,1.25,1.25,0,0,0-.47,0,1.11,1.11,0,0,1,.65.33,1.76,1.76,0,0,1,.88,1.33,5.85,5.85,0,0,1-.63,2.88,3.45,3.45,0,0,1-1,1.34,1.9,1.9,0,0,1-1.62.37,2,2,0,0,1-1.22-1.15,3.15,3.15,0,0,1-.16-1.66,4.56,4.56,0,0,1,1.26-2.61,2.4,2.4,0,0,1,1.8-.64c.47,0,.71.2.73.16v0a.9.9,0,0,0-.24-.12,2.51,2.51,0,0,0-.72-.09.67.67,0,0,1,.31-.12h0a2.5,2.5,0,0,0-2.07.56,4.76,4.76,0,0,0-1.49,2.81,3.45,3.45,0,0,0,.16,1.94A2.41,2.41,0,0,0,894,603.54Z" transform="translate(-562.12 -438.99)"/><path class="cls-7" d="M889.22,560.74c-.83-1.14-1.59-2-1.71-1.91a6.4,6.4,0,0,0,1.28,2.22,15.91,15.91,0,0,0,1.34,1.64c0-.11.09-.23.14-.35A17.54,17.54,0,0,0,889.22,560.74Z" transform="translate(-562.12 -438.99)"/><path class="cls-7" d="M892.27,557.71a19.52,19.52,0,0,0-1.63,3.66l.34.51A21.32,21.32,0,0,0,892.27,557.71Z" transform="translate(-562.12 -438.99)"/><path class="cls-7" d="M890.5,563s-.18-.07-.37-.27c0,.08,0,.15-.08.22a30.29,30.29,0,0,0-1.73,5.38,31.3,31.3,0,0,0,2.22-5.2l.44-1.21-.34-.51c-.12.31-.25.64-.37,1C890.46,562.69,890.55,562.92,890.5,563Z" transform="translate(-562.12 -438.99)"/><path class="cls-7" d="M890.27,562.34c0,.12-.09.24-.14.35.19.2.33.3.37.27S890.46,562.69,890.27,562.34Z" transform="translate(-562.12 -438.99)"/><path class="cls-7" d="M778,558.22c0-27-.12-48.79-.26-48.79s-.26,21.84-.26,48.79c0,17.67,0,33.15.13,41.71h.27C777.94,591.37,778,575.89,778,558.22Z" transform="translate(-562.12 -438.99)"/><path class="cls-7" d="M777.73,607s.09-2.48.13-6.78h-.26C777.64,604.53,777.68,607,777.73,607Z" transform="translate(-562.12 -438.99)"/><path class="cls-7" d="M777.8,504.58l-.46,0,.25.47c0-.12.11-.25.16-.38Z" transform="translate(-562.12 -438.99)"/><path class="cls-7" d="M777.59,505.08l-.25-.47.46,0,0,.12c0,.13-.11.26-.16.38a38.42,38.42,0,0,0,3.06,5.2,42.09,42.09,0,0,0-2.86-5.93l-.26-.47-.21.5-.05.12a42,42,0,0,0-2.35,6.28A42.13,42.13,0,0,0,777.59,505.08Z" transform="translate(-562.12 -438.99)"/><path class="cls-7" d="M776.73,497.69c0-.12.09-.24.14-.37-.21-.28-.49-.66-.77-1.09-.6-.9-1-1.71-1.1-1.66s0,1,.66,1.95A4.82,4.82,0,0,0,776.73,497.69Z" transform="translate(-562.12 -438.99)"/><path class="cls-7" d="M777.19,497.91s-.22,0-.46-.22a14.55,14.55,0,0,0-1.07,3,10.22,10.22,0,0,0,1.73-3.29,10.39,10.39,0,0,0,.93-3.6,18.43,18.43,0,0,0-1.42,3.41l0,.08C777.1,497.64,777.24,497.85,777.19,497.91Z" transform="translate(-562.12 -438.99)"/><path class="cls-7" d="M777.19,497.91c0-.06-.09-.27-.32-.59,0,.13-.1.25-.14.37C777,497.87,777.15,498,777.19,497.91Z" transform="translate(-562.12 -438.99)"/><path class="cls-7" d="M771.64,519.28a29.94,29.94,0,0,1-.9,3,5.57,5.57,0,0,0,1-6.12A31,31,0,0,1,771.64,519.28Z" transform="translate(-562.12 -438.99)"/><path class="cls-7" d="M771,518.78c.62-.15.8-.55.74-.58s-.31.19-.79.21a1.07,1.07,0,1,1-.11-2.14c.49,0,.76.19.81.13s-.16-.41-.79-.5a1.51,1.51,0,0,0-1.05.28,1.44,1.44,0,0,0-.54,1.24,1.41,1.41,0,0,0,1.73,1.36Z" transform="translate(-562.12 -438.99)"/><path class="cls-7" d="M830.32,599.85v.1l3.4.08,1,0,.35,0a1.3,1.3,0,0,1,0-.23Z" transform="translate(-562.12 -438.99)"/><path class="cls-7" d="M770.21,600.08c0,.06,2.73.11,7.39.15v-.3C772.94,600,770.21,600,770.21,600.08Z" transform="translate(-562.12 -438.99)"/><path class="cls-7" d="M818.89,599.82v.08l3.55.05.91,0h.31a.85.85,0,0,1,0-.15Z" transform="translate(-562.12 -438.99)"/><path class="cls-7" d="M853.69,600.08c0-.07-4.53-.13-11.88-.18,0,.12,0,.25,0,.36C849.15,600.22,853.69,600.15,853.69,600.08Z" transform="translate(-562.12 -438.99)"/><path class="cls-7" d="M841.29,599.9l-6.24,0a1,1,0,0,1,0,.23s-.4,0-1.22.06l-3.63.07H830v-.38l-6.37,0c0,.1,0,.15,0,.15l-.28,0-.89,0-3.69,0h-.08v-.24H812c0,.1,0,.17,0,.16a1.45,1.45,0,0,1-.3,0l-.91,0-3.64.06H807v-.27h-6.45c0,.17,0,.26,0,.25a.94.94,0,0,1-.29,0l-.92,0-3.64.07h-.12v-.37l-6.66,0c0,.14,0,.23,0,.22a9.69,9.69,0,0,1-1.23.07l-3.62.09h-.16v-.35l-6,0v.3c7.56.07,20,.11,34.09.11,11.45,0,21.81,0,29.35-.07C841.3,600.15,841.29,600,841.29,599.9Z" transform="translate(-562.12 -438.99)"/><path class="cls-7" d="M784.16,599.89v0l3.37.08c.83,0,1.3,0,1.32.07a.66.66,0,0,1,0-.22Z" transform="translate(-562.12 -438.99)"/><path class="cls-7" d="M795.8,599.84V600l3.44.07.94,0,.34,0s0-.1,0-.25Z" transform="translate(-562.12 -438.99)"/><path class="cls-7" d="M807.21,599.82v.06l3.46.06,1,0,.33,0a1.26,1.26,0,0,1,0-.16Z" transform="translate(-562.12 -438.99)"/><path class="cls-7" d="M777.6,599.93v.3h.26v-.3Z" transform="translate(-562.12 -438.99)"/><path class="cls-7" d="M851.11,598.89a12.7,12.7,0,0,0,3.44,1.09,13,13,0,0,0-3.24-1.58,13.14,13.14,0,0,0-3.44-1.09A12.73,12.73,0,0,0,851.11,598.89Z" transform="translate(-562.12 -438.99)"/><path class="cls-7" d="M852.53,601a8.73,8.73,0,0,0-2.76,1.25,9.35,9.35,0,0,0,2.93-.76,9.12,9.12,0,0,0,2.76-1.24A8.85,8.85,0,0,0,852.53,601Z" transform="translate(-562.12 -438.99)"/><path class="cls-7" d="M774,603s0,0-.13-.09l.07.11Z" transform="translate(-562.12 -438.99)"/><path class="cls-7" d="M773.81,602.73s0,.08.08.19.13.08.13.09l-.06,0a4,4,0,0,1,.57,1.51,3.6,3.6,0,0,1-.25,2,2.06,2.06,0,0,1-.69.9.9.9,0,0,1-1,0,2.59,2.59,0,0,1-1-2.1,2.34,2.34,0,0,1,.69-1.81,2.07,2.07,0,0,1,1.22-.55,3,3,0,0,1,.47,0l-.07-.11a1.27,1.27,0,0,0-.4-.1,2.11,2.11,0,0,0-1.46.47,2.64,2.64,0,0,0-.93,2.1,3,3,0,0,0,1.2,2.53,1.42,1.42,0,0,0,1.58-.06,2.51,2.51,0,0,0,.84-1.13,3.76,3.76,0,0,0,.17-2.26A2.56,2.56,0,0,0,773.81,602.73Z" transform="translate(-562.12 -438.99)"/><path class="cls-7" d="M841.83,606.33c-.14.09-.28.18-.43.26a3.08,3.08,0,0,1,.9.75,1.37,1.37,0,0,1,.27,1.33,1.31,1.31,0,0,1-1.09.9,1.34,1.34,0,0,1-1.28-.63,1.38,1.38,0,0,1,0-1.35,3.26,3.26,0,0,1,1.2-1l-.2-.13-.21-.12a3.12,3.12,0,0,0-1.21,1,1.85,1.85,0,0,0,0,1.85,1.81,1.81,0,0,0,3.3-.35,1.91,1.91,0,0,0-.38-1.8A3,3,0,0,0,841.83,606.33Z" transform="translate(-562.12 -438.99)"/><path class="cls-7" d="M841.4,606.59c.15-.08.29-.17.43-.26-.14-.09-.28-.16-.41-.23l-.39.22,0,0,.21.12Z" transform="translate(-562.12 -438.99)"/><path class="cls-7" d="M842.35,605.9a1.64,1.64,0,0,0,.49-1.07,1,1,0,0,0-.35-.83c-.4-.34-.73-.19-.7-.17s.29,0,.56.31a.85.85,0,0,1,.2.67,1.4,1.4,0,0,1-.46.83,3.57,3.57,0,0,1-.67.46c.13.07.27.14.41.23A2.77,2.77,0,0,0,842.35,605.9Z" transform="translate(-562.12 -438.99)"/><path class="cls-7" d="M841.42,606.1c-.43-.23-.79-.42-.87-.76a1.12,1.12,0,0,1,.15-.9,1.54,1.54,0,0,1,.56-.5c.38-.2.63-.24.62-.29a1.13,1.13,0,0,0-.71.11,1.58,1.58,0,0,0-.71.51,1.41,1.41,0,0,0-.26,1.17,1.52,1.52,0,0,0,.79.9l0,0Z" transform="translate(-562.12 -438.99)"/><path class="cls-7" d="M841.55,601.88c.12,0,.21-.68.25-1.62h-.5C841.34,601.2,841.43,601.88,841.55,601.88Z" transform="translate(-562.12 -438.99)"/><path class="cls-7" d="M841.81,599.57a5.44,5.44,0,0,0-.26-2.31,5.44,5.44,0,0,0-.26,2.31v.33h.52Z" transform="translate(-562.12 -438.99)"/><path class="cls-7" d="M841.8,600.26c0-.11,0-.24,0-.36h-.52c0,.12,0,.25,0,.37Z" transform="translate(-562.12 -438.99)"/><path class="cls-7" d="M861.56,596.32a.93.93,0,0,1,.64,1,2.28,2.28,0,0,1-.84,1.47l-.69.71a.91.91,0,0,0-.32.49.44.44,0,0,0,.18.46.6.6,0,0,0,.36.07l1.56-.09a4.05,4.05,0,0,0,1.43-.22,4.23,4.23,0,0,0-1.44-.15l-1.56,0h0l0,0s-.08,0-.08,0a0,0,0,0,0,0,0l0-.06h.08a1.26,1.26,0,0,1,.18-.21l.7-.7a2.57,2.57,0,0,0,.93-1.81,1.31,1.31,0,0,0-1.06-1.34,1.54,1.54,0,0,0-1.08.37c-.2.15-.29.26-.28.29s.16,0,.38-.12A1.54,1.54,0,0,1,861.56,596.32Z" transform="translate(-562.12 -438.99)"/><path class="cls-7" d="M860.79,600l0,.06a0,0,0,0,1,0,0s.11,0,.08,0l0,0h-.08Z" transform="translate(-562.12 -438.99)"/><path class="cls-7" d="M788.6,582v.25h.25Z" transform="translate(-562.12 -438.99)"/><path class="cls-7" d="M784.26,582V582h0l-.26.26h.26V582Z" transform="translate(-562.12 -438.99)"/><path class="cls-7" d="M784.23,592.24c0-1.55,0-3.19,0-4.91,0-.87,0-1.75,0-2.65v-2.47H784l.26-.26h0v.24h4.34V582l.25.25h-.25c0,5,.06,9.42.11,12.61,0,1.57.06,2.86.07,3.84,0,.59,0,1,.05,1.21h0c0-.21,0-.57,0-1.09,0-1,0-2.24.07-3.78,0-3.23.1-7.8.11-13v-.26H784l-.26.26h0v5.36c0,1.72,0,3.36,0,4.91,0,3,.05,5.56.07,7.65h.32C784.18,597.8,784.2,595.21,784.23,592.24Z" transform="translate(-562.12 -438.99)"/><path class="cls-7" d="M783.84,600.24H784l3.62-.09a9.69,9.69,0,0,0,1.23-.07s-.49,0-1.32-.07l-3.37-.08v.15l-.16-.16h.16v0h-.32v.35Z" transform="translate(-562.12 -438.99)"/><path class="cls-7" d="M788.85,600.08s0-.08,0-.22h0A.66.66,0,0,0,788.85,600.08Z" transform="translate(-562.12 -438.99)"/><path class="cls-7" d="M784.16,600.08v-.15H784Z" transform="translate(-562.12 -438.99)"/><path class="cls-7" d="M830.4,589c0-2.27,0-4.71,0-7.28,0-1.29,0-2.61,0-4v-3.85h-.26l.26-.26h0v.25h4.33v-.25l.26.25h-.26c0,7.34.06,13.81.12,18.5,0,2.33.05,4.22.07,5.6,0,.62,0,1.13,0,1.53,0,.14,0,.25,0,.33h0a1.93,1.93,0,0,0,0-.26c0-.39,0-.88,0-1.48,0-1.36,0-3.23.07-5.54.05-4.73.11-11.38.12-18.93v-.26h-5.11l-.26.26h0v4.1c0,1.35,0,2.67,0,4,0,2.57,0,5,0,7.28,0,4.37.06,8.08.09,10.85h.28C830.34,597.08,830.37,593.37,830.4,589Z" transform="translate(-562.12 -438.99)"/><path class="cls-7" d="M834.77,573.65v.25H835Z" transform="translate(-562.12 -438.99)"/><path class="cls-7" d="M830.44,573.78v-.12h0l-.26.26h.26Z" transform="translate(-562.12 -438.99)"/><path class="cls-7" d="M835,600.09a1,1,0,0,0,0-.23h0A1.3,1.3,0,0,0,835,600.09Z" transform="translate(-562.12 -438.99)"/><path class="cls-7" d="M830.32,600.09V600h-.14Z" transform="translate(-562.12 -438.99)"/><path class="cls-7" d="M830,600.23h.14l3.63-.07c.82,0,1.24,0,1.22-.06l-.35,0-1,0-3.4-.08v.14l-.14-.14h.14v-.1H830v.38Z" transform="translate(-562.12 -438.99)"/><path class="cls-7" d="M795.89,586.59c0-2.83,0-5.92,0-9.18v-10h-.26c.52-.52.15-.14.26-.25h0v.24h4.34v-.26l.26.26h-.25c0,9.13.08,17.22.11,23.1,0,2.92,0,5.29.07,7,0,.79,0,1.42,0,1.91,0,.18,0,.32,0,.43h0c0-.1,0-.21,0-.37,0-.47,0-1.08,0-1.85,0-1.68,0-4,.08-6.93,0-6,.07-14.23.11-23.54v-.26h-5.11c-.52.52-.14.15-.26.27h0v5.23c0,1.71,0,3.39,0,5,0,3.26,0,6.35,0,9.18,0,5.5.07,10,.09,13.25h.26C795.82,596.64,795.85,592.09,795.89,586.59Z" transform="translate(-562.12 -438.99)"/><path class="cls-7" d="M795.93,567.22v-.06h0c-.11.11.26-.27-.26.25h.26v-.18Z" transform="translate(-562.12 -438.99)"/><path class="cls-7" d="M800.26,567.14v.26h.25Z" transform="translate(-562.12 -438.99)"/><path class="cls-7" d="M795.8,600.08V600h-.13Z" transform="translate(-562.12 -438.99)"/><path class="cls-7" d="M795.55,600.21h.12l3.64-.07.92,0a.94.94,0,0,0,.29,0l-.34,0-.94,0L795.8,600v.12l-.13-.12h.13v-.12h-.26v.37Z" transform="translate(-562.12 -438.99)"/><path class="cls-7" d="M800.52,600.08s0-.08,0-.25h0C800.51,600,800.52,600.07,800.52,600.08Z" transform="translate(-562.12 -438.99)"/><path class="cls-7" d="M807.32,579.78c0-4.42,0-9.28,0-14.45q0-3.9,0-8V549.2h-.26c.52-.52.14-.13.26-.25v.25h4.33v-.26l.26.26h-.26c0,14.16.08,26.77.11,35.9,0,4.58.06,8.27.08,10.87,0,1.26,0,2.24,0,3,0,.32,0,.57,0,.77s0,.08,0,.12h0v-.08c0-.19,0-.44,0-.74l0-2.9c0-2.58.05-6.26.08-10.81,0-9.24.07-22,.11-36.35v-.26H807.1c-.52.52-.14.15-.26.27v8.38c0,2.73,0,5.4,0,8,0,5.17,0,10,0,14.45,0,8.69.09,15.66.11,20h.22C807.23,595.44,807.27,588.47,807.32,579.78Z" transform="translate(-562.12 -438.99)"/><path class="cls-7" d="M811.69,548.94v.26H812Z" transform="translate(-562.12 -438.99)"/><path class="cls-7" d="M807.36,549v0c-.12.12.26-.27-.26.25h.26V549Z" transform="translate(-562.12 -438.99)"/><path class="cls-7" d="M807.2,600v-.1h-.11Z" transform="translate(-562.12 -438.99)"/><path class="cls-7" d="M811.94,599.82a1.26,1.26,0,0,0,0,.16s0-.06,0-.16h0Z" transform="translate(-562.12 -438.99)"/><path class="cls-7" d="M807,600.09h.11l3.64-.06.91,0a1.45,1.45,0,0,0,.3,0l-.33,0-1,0-3.46-.06v.1l-.1-.1h.11v-.06H807v.27Z" transform="translate(-562.12 -438.99)"/><path class="cls-7" d="M823.4,513.82v.26h.26Z" transform="translate(-562.12 -438.99)"/><path class="cls-7" d="M819.07,513.93v-.09c-.12.11.25-.28-.26.24h.26v-.15Z" transform="translate(-562.12 -438.99)"/><path class="cls-7" d="M819,567.76c0-7.53,0-16,0-25,0-4.54,0-9.24,0-14.06V514.08h-.26c.51-.52.14-.13.26-.24v.24h4.33v-.26l.26.26h-.26c0,23.87.08,45.27.1,60.75,0,7.76.06,14,.08,18.38,0,2.16,0,3.84,0,5,0,.56,0,1,0,1.31a2.63,2.63,0,0,0,0,.31h0v-.27l0-1.27c0-1.16,0-2.82,0-4.95,0-4.34,0-10.59.08-18.32,0-15.58.06-37.14.11-61.2v-.26h-5.11c-.53.52-.15.16-.27.28v3.75c0,1.25,0,2.49,0,3.73v7.34c0,4.82,0,9.52,0,14.06,0,9.08,0,17.51,0,25,.06,14.88.11,26.21.13,32.06h.17C818.91,594,819,582.64,819,567.76Z" transform="translate(-562.12 -438.99)"/><path class="cls-7" d="M823.66,600s0-.05,0-.15h0A.85.85,0,0,0,823.66,600Z" transform="translate(-562.12 -438.99)"/><path class="cls-7" d="M818.89,600v-.08h-.09Z" transform="translate(-562.12 -438.99)"/><path class="cls-7" d="M818.72,600.06h.08l3.69,0,.89,0,.28,0h-.31l-.91,0-3.55-.05V600l-.09-.08h.09v-.08h-.17v.24Z" transform="translate(-562.12 -438.99)"/><rect class="cls-8" x="294.76" y="233.29" width="34.41" height="3.75"/><path class="cls-9" d="M923,643.05l-1.25-.73c.06.68.14,1.36.2,2A7.37,7.37,0,0,1,923,643.05Z" transform="translate(-562.12 -438.99)"/><path class="cls-9" d="M918.51,642.08c-.43.69-.88,1.19-1,1.11s.13-.7.56-1.39a3.62,3.62,0,0,1,.9-1.09l-7-4.07a16.95,16.95,0,0,1-3.13,5.05,16.95,16.95,0,0,1,3.13-5.05l-7.18-4.18V676h16.58c.33-2.62.57-5.15.75-7.58h-5.86V650l6.2,3.67c-.08-3.2-.25-6-.45-8.48l-.27.44a8.56,8.56,0,0,1-1.77,2.32,8.17,8.17,0,0,1,1.33-2.59c.22-.35.44-.68.64-1-.06-.69-.14-1.37-.2-2l-2.65-1.54A3.73,3.73,0,0,1,918.51,642.08Zm-3.64-2c-.43.69-.88,1.19-1,1.12s.13-.7.56-1.4.88-1.19,1-1.12S915.3,639.35,914.87,640.05Z" transform="translate(-562.12 -438.99)"/><polygon class="cls-5" points="349.85 197.64 349.85 197.64 349.85 197.64 349.85 197.64"/><path class="cls-5" d="M910.18,639a8.72,8.72,0,0,0-1.34,2.66,16.95,16.95,0,0,0,3.13-5.05h0A8.69,8.69,0,0,0,910.18,639Z" transform="translate(-562.12 -438.99)"/><path class="cls-5" d="M923.07,643s0,0-.08,0l.09.05A.09.09,0,0,0,923.07,643Z" transform="translate(-562.12 -438.99)"/><path class="cls-5" d="M921.94,644.37l.06.63c0,.06,0,.11,0,.17a9.71,9.71,0,0,0,1.07-2.07l-.09-.05A7.37,7.37,0,0,0,921.94,644.37Z" transform="translate(-562.12 -438.99)"/><path class="cls-5" d="M921.94,644.37c-.2.29-.42.62-.64,1a8.17,8.17,0,0,0-1.33,2.59,8.56,8.56,0,0,0,1.77-2.32l.27-.44c0-.06,0-.11,0-.17Z" transform="translate(-562.12 -438.99)"/><path class="cls-10" d="M856.91,591.09l19.51,6.3S890,589.06,890.74,586s-.65-3.53-1.17-3.47c0,0,4.83-4.22,2.27-8.08,0,0,4.3-4.54,1.41-7.26l-1.57-1.28s2.09-4.19.42-7.36a2.36,2.36,0,0,0-2.94-1.06l-16,5.94L863,570.28Z" transform="translate(-562.12 -438.99)"/><polygon class="cls-8" points="318.64 124.77 324.09 104.98 328.6 104.56 324.34 120.27 318.64 124.77"/><path class="cls-10" d="M858.59,584.93,863.38,569l17.28-12.93a5.82,5.82,0,0,1,0,5.93c-1.83,3.26-4.46,5.91-5,6.82s-3.06,5.62-3.06,5.62a20.38,20.38,0,0,1,.55,13.17" transform="translate(-562.12 -438.99)"/><path class="cls-11" d="M873.09,587.6a6.27,6.27,0,0,1,.16-.92c.07-.3.14-.68.2-1.12s.15-.95.2-1.52a21.76,21.76,0,0,0,0-4.2,18,18,0,0,0-1.29-5.32l0-.1.05-.08,2.18-4.06.59-1.08c.1-.19.19-.37.3-.56s.26-.35.4-.52c.54-.66,1.09-1.33,1.66-2a28.83,28.83,0,0,0,3.08-4.53,5.6,5.6,0,0,0-.12-5.37l.37.06-1.48,1.11-15.83,11.78.08-.11c-1.47,4.75-2.69,8.72-3.57,11.55-.43,1.35-.77,2.42-1,3.21l-.28.84c-.07.19-.11.29-.12.28a.87.87,0,0,1,0-.3l.23-.85c.22-.81.53-1.89.91-3.25.83-2.85,2-6.83,3.39-11.61l0-.07.06,0L879,557l1.48-1.11.23-.17.14.23a6.08,6.08,0,0,1,.14,5.9,28.86,28.86,0,0,1-3.15,4.6l-1.68,2c-.13.17-.26.33-.37.49s-.21.36-.31.54c-.2.37-.39.73-.59,1.08-.78,1.41-1.51,2.75-2.21,4v-.18a18.21,18.21,0,0,1,1.24,5.47,20.55,20.55,0,0,1-.09,4.24,12.87,12.87,0,0,1-.25,1.53,9.52,9.52,0,0,1-.25,1.11A5.87,5.87,0,0,1,873.09,587.6Z" transform="translate(-562.12 -438.99)"/><path class="cls-11" d="M891.67,566a7.84,7.84,0,0,1-1.16.78l-3.23,2-4.84,2.83a5.38,5.38,0,0,1-3.27,1,2.55,2.55,0,0,1-1.68-.88,2.79,2.79,0,0,1-.58-1.86,5.79,5.79,0,0,1,1.52-3.32,28.81,28.81,0,0,1,2.2-2.51,29.64,29.64,0,0,1,4.3-3.63,27.65,27.65,0,0,1,3.26-1.95,5.36,5.36,0,0,1,1.28-.54,8.56,8.56,0,0,1-1.19.72c-.76.45-1.86,1.13-3.14,2.07a32.4,32.4,0,0,0-4.17,3.67,29.64,29.64,0,0,0-2.14,2.48,5.34,5.34,0,0,0-1.4,3,2.33,2.33,0,0,0,.46,1.52,2,2,0,0,0,1.35.7,4.87,4.87,0,0,0,3-.87l4.89-2.73,3.32-1.81A6.68,6.68,0,0,1,891.67,566Z" transform="translate(-562.12 -438.99)"/><path class="cls-11" d="M891.84,574.46a5.53,5.53,0,0,1-1,.82c-.68.5-1.67,1.19-2.93,2a49.15,49.15,0,0,1-4.54,2.7,4.57,4.57,0,0,1-1.49.56,2.27,2.27,0,0,1-1.68-.44,3.36,3.36,0,0,1-1.15-3.25,6.42,6.42,0,0,1,1.67-3,27.06,27.06,0,0,1,2.27-2.18,41.28,41.28,0,0,1,4.26-3.13c1.26-.82,2.31-1.44,3-1.85a6,6,0,0,1,1.16-.6,6.12,6.12,0,0,1-1,.77l-2.94,2a49.66,49.66,0,0,0-4.15,3.2,27.65,27.65,0,0,0-2.2,2.15,6,6,0,0,0-1.54,2.75,2.92,2.92,0,0,0,.94,2.76,1.85,1.85,0,0,0,1.31.35,4,4,0,0,0,1.34-.5c1.77-.88,3.29-1.8,4.57-2.58l3-1.88A6.91,6.91,0,0,1,891.84,574.46Z" transform="translate(-562.12 -438.99)"/><path class="cls-11" d="M889.57,582.54a3.9,3.9,0,0,1-.82.61c-.55.36-1.34.87-2.35,1.47a26.23,26.23,0,0,1-3.69,1.87,10.88,10.88,0,0,1-2.38.73,2.33,2.33,0,0,1-1.4-.2,1.6,1.6,0,0,1-.79-1.27,3.55,3.55,0,0,1,.11-1.42,2.89,2.89,0,0,1,.7-1.19,13.41,13.41,0,0,1,1.81-1.68,31.6,31.6,0,0,1,3.39-2.35c1-.62,1.83-1.07,2.42-1.37a3.69,3.69,0,0,1,.93-.41,4.11,4.11,0,0,1-.83.58l-2.32,1.51a38.86,38.86,0,0,0-3.29,2.41c-1.1,1-2.69,2.1-2.41,3.84a1.12,1.12,0,0,0,.53.9,1.88,1.88,0,0,0,1.09.14,11.62,11.62,0,0,0,2.27-.66,31.26,31.26,0,0,0,3.68-1.75A28.47,28.47,0,0,1,889.57,582.54Z" transform="translate(-562.12 -438.99)"/><path class="cls-11" d="M890.56,586.23a2.59,2.59,0,0,1-.45.81,15.23,15.23,0,0,1-1.58,2,22.58,22.58,0,0,1-2.8,2.52c-.56.43-1.17.86-1.81,1.28a6.63,6.63,0,0,1-2.19,1.1,1.9,1.9,0,0,1-1.34-.15,1.85,1.85,0,0,1-.84-1,3.13,3.13,0,0,1,.24-2.33,12.22,12.22,0,0,1,2.09-3.15,8.57,8.57,0,0,1,2-1.6,2.22,2.22,0,0,1,.86-.35,11.54,11.54,0,0,0-4.5,5.3,2.66,2.66,0,0,0-.2,2,1.3,1.3,0,0,0,1.6.85,6.58,6.58,0,0,0,2-1c.64-.42,1.24-.83,1.8-1.25a25.49,25.49,0,0,0,2.82-2.38C889.76,587.29,890.49,586.18,890.56,586.23Z" transform="translate(-562.12 -438.99)"/><path class="cls-12" d="M855.33,590.55l-24,51.34-21-27.42c-13.14-16.75-23.94-20.75-23.94-20.75l-19-5.1-39.1-2.07-3.36,2-23.51,9.91s2.23,25.4,6.67,45.58,8.11,42.25,8.11,42.25c1.62,14.53-9.15,70.26-9.15,70.26H814.68l-23-69.24a250,250,0,0,0,6.55-25.66h0l20,13.65s30,16.86,40.92-11.48l18.9-66Z" transform="translate(-562.12 -438.99)"/><path class="cls-5" d="M797,662.66a7.86,7.86,0,0,1,0-1.5c0-.48,0-1.07,0-1.76s0-1.46,0-2.32a55.87,55.87,0,0,0-.49-6,59.22,59.22,0,0,0-1.51-7.23,57.32,57.32,0,0,0-2.49-7,55.87,55.87,0,0,0-2.72-5.39c-.41-.75-.84-1.4-1.2-2s-.68-1.08-1-1.48a8,8,0,0,1-.79-1.27,7.53,7.53,0,0,1,1,1.15c.3.39.65.86,1,1.44s.84,1.2,1.27,2a46.75,46.75,0,0,1,2.84,5.38,52.3,52.3,0,0,1,2.55,7A53.42,53.42,0,0,1,797,651a48.37,48.37,0,0,1,.39,6.08c0,.86,0,1.65-.07,2.33s-.07,1.28-.13,1.76A9,9,0,0,1,797,662.66Z" transform="translate(-562.12 -438.99)"/><path class="cls-5" d="M793.09,620.09c.18.06-.66,2.3-1.87,4.95a25.9,25.9,0,0,1-2.43,4.71,28.48,28.48,0,0,1,2-4.92c.6-1.33,1.16-2.53,1.59-3.38A6.32,6.32,0,0,1,793.09,620.09Z" transform="translate(-562.12 -438.99)"/><path class="cls-5" d="M833,656.64a7.5,7.5,0,0,1-1.11-2.06,20.81,20.81,0,0,1-1.41-5.48,20.43,20.43,0,0,1,.16-5.67,6.92,6.92,0,0,1,.63-2.25A35.25,35.25,0,0,0,831,649,36.52,36.52,0,0,0,833,656.64Z" transform="translate(-562.12 -438.99)"/><path class="cls-8" d="M810.31,635.1c.08,0,.23,1.21.59,3.15a55.7,55.7,0,0,0,4.77,14.59,30.1,30.1,0,0,1,1.38,2.89s-.21-.23-.51-.69-.72-1.16-1.2-2a44,44,0,0,1-3.06-7.14,44.7,44.7,0,0,1-1.75-7.56c-.13-1-.2-1.79-.23-2.34A2.56,2.56,0,0,1,810.31,635.1Z" transform="translate(-562.12 -438.99)"/><path class="cls-8" d="M814.05,648a28.88,28.88,0,0,0,1.55-2.79,12.27,12.27,0,0,0,.72-7.47l-.06-.25.47.09a14.65,14.65,0,0,0-2.61,6.92c-.2,1.91,0,3.1-.09,3.11a2.63,2.63,0,0,1-.19-.83,12.05,12.05,0,0,1-.08-2.31,14,14,0,0,1,2.55-7.2l.34-.47.12.56.06.26a11.94,11.94,0,0,1-.89,7.74,10.73,10.73,0,0,1-1.27,2C814.31,647.76,814.08,648,814.05,648Z" transform="translate(-562.12 -438.99)"/><path class="cls-8" d="M811,644.05a2.89,2.89,0,0,1-.87-.31,14.93,14.93,0,0,1-2.22-1.23,17.93,17.93,0,0,1-2.9-2.42,17.61,17.61,0,0,1-1.44-1.7,8.33,8.33,0,0,1-.68-1,1.65,1.65,0,0,1-.18-1.38,1,1,0,0,1,.65-.51,1.33,1.33,0,0,1,.73.1,5.46,5.46,0,0,1,1,.66,17.19,17.19,0,0,1,4.1,4.36,14.09,14.09,0,0,1,1.21,2.23,2.74,2.74,0,0,1,.3.88c-.09,0-.59-1.18-1.81-2.9a17.69,17.69,0,0,0-2.43-2.77,16.63,16.63,0,0,0-1.67-1.39,5.12,5.12,0,0,0-.93-.59c-.32-.14-.61-.08-.71.15a1.15,1.15,0,0,0,.16.92,8.47,8.47,0,0,0,.63.93,18.19,18.19,0,0,0,1.38,1.68,20,20,0,0,0,2.76,2.44C809.85,643.45,811.07,644,811,644.05Z" transform="translate(-562.12 -438.99)"/><path class="cls-8" d="M812.37,652.44a2,2,0,0,1-.73.24,8.1,8.1,0,0,1-2.08.19,9.64,9.64,0,0,1-6.36-2.73l-.32-.31.43-.12.68-.19a9.83,9.83,0,0,1,7.26,1.23,8.42,8.42,0,0,1,1.75,1.42,2.35,2.35,0,0,1,.5.67,20.9,20.9,0,0,0-2.44-1.78,10,10,0,0,0-6.95-1l-.65.18.11-.43a9.84,9.84,0,0,0,6,2.73A24.9,24.9,0,0,0,812.37,652.44Z" transform="translate(-562.12 -438.99)"/><path class="cls-8" d="M727,656.49a2.62,2.62,0,0,1,0,.87c0,.56-.1,1.36-.23,2.34a43.83,43.83,0,0,1-1.75,7.57,44.42,44.42,0,0,1-3.06,7.14c-.47.87-.89,1.56-1.19,2a3.21,3.21,0,0,1-.52.7,27.6,27.6,0,0,1,1.38-2.89,55.93,55.93,0,0,0,4.77-14.6C726.74,657.7,726.89,656.49,727,656.49Z" transform="translate(-562.12 -438.99)"/><path class="cls-8" d="M723.23,669.34s-.26-.19-.62-.62a10.45,10.45,0,0,1-1.26-2,11.84,11.84,0,0,1-.9-7.73l.06-.27.13-.56.34.48a14,14,0,0,1,2.54,7.19,11.38,11.38,0,0,1-.08,2.32,2.41,2.41,0,0,1-.19.82c-.09,0,.11-1.2-.09-3.11a14.62,14.62,0,0,0-2.61-6.92l.47-.09-.06.25a12.27,12.27,0,0,0,.72,7.47A27.39,27.39,0,0,0,723.23,669.34Z" transform="translate(-562.12 -438.99)"/><path class="cls-8" d="M726.26,665.44c0-.08,1.18-.6,2.88-1.84a19.46,19.46,0,0,0,2.76-2.45,18.09,18.09,0,0,0,1.39-1.67,10.13,10.13,0,0,0,.62-.94,1.2,1.2,0,0,0,.17-.92c-.11-.23-.39-.28-.72-.14a5.64,5.64,0,0,0-.93.58,21.58,21.58,0,0,0-1.67,1.39,19.23,19.23,0,0,0-2.43,2.77c-1.22,1.72-1.72,2.95-1.81,2.91a2.74,2.74,0,0,1,.3-.88A15,15,0,0,1,728,662a17.16,17.16,0,0,1,2.4-2.91,19.22,19.22,0,0,1,1.7-1.45,5.27,5.27,0,0,1,1-.65,1.26,1.26,0,0,1,.73-.1.92.92,0,0,1,.65.5,1.65,1.65,0,0,1-.18,1.38,8.69,8.69,0,0,1-.67,1,17.67,17.67,0,0,1-1.45,1.7,16.94,16.94,0,0,1-2.9,2.42,14.5,14.5,0,0,1-2.21,1.23A2.65,2.65,0,0,1,726.26,665.44Z" transform="translate(-562.12 -438.99)"/><path class="cls-8" d="M724.91,673.83a20.06,20.06,0,0,0,2.79.07,9.72,9.72,0,0,0,6-2.73l.11.43-.65-.17a9.89,9.89,0,0,0-6.95,1,19.83,19.83,0,0,0-2.43,1.77s.14-.26.49-.66a8.41,8.41,0,0,1,1.75-1.43,9.84,9.84,0,0,1,7.26-1.22l.68.19.43.11-.32.32a9.62,9.62,0,0,1-6.35,2.72,8.21,8.21,0,0,1-2.09-.18A1.87,1.87,0,0,1,724.91,673.83Z" transform="translate(-562.12 -438.99)"/><path class="cls-8" d="M764.11,621.22s.24.2.61.62.87,1,1.46,1.84A43.92,43.92,0,0,1,773,637.57c.27,1,.46,1.74.56,2.28a3.25,3.25,0,0,1,.11.86,29.46,29.46,0,0,1-1-3,57.66,57.66,0,0,0-2.9-7.13,58.86,58.86,0,0,0-3.86-6.66A27.88,27.88,0,0,1,764.11,621.22Z" transform="translate(-562.12 -438.99)"/><path class="cls-8" d="M770.38,633a2.53,2.53,0,0,1-.87,0,9.81,9.81,0,0,1-2.32-.56,11.88,11.88,0,0,1-6-4.92l-.14-.23-.31-.49.58.1a13.9,13.9,0,0,1,6.84,3.39,11.92,11.92,0,0,1,1.56,1.71,2.78,2.78,0,0,1,.44.72c-.08.06-.77-.93-2.24-2.16a14.6,14.6,0,0,0-6.69-3.15l.27-.38.14.22a12.22,12.22,0,0,0,5.72,4.85A29.39,29.39,0,0,0,770.38,633Z" transform="translate(-562.12 -438.99)"/><path class="cls-8" d="M769.84,628.14c-.09,0,.42-1.26.78-3.34a20.11,20.11,0,0,0,.27-3.68,16.41,16.41,0,0,0-.18-2.16,7.54,7.54,0,0,0-.2-1.11,1.22,1.22,0,0,0-.53-.78c-.23-.08-.47.07-.61.4a4.67,4.67,0,0,0-.25,1.07,16.72,16.72,0,0,0-.23,2.16,18.27,18.27,0,0,0,.19,3.68c.32,2.08.81,3.31.73,3.34a2.86,2.86,0,0,1-.41-.84,15.15,15.15,0,0,1-.69-2.44,16.94,16.94,0,0,1-.3-3.76,17.74,17.74,0,0,1,.2-2.23,5.87,5.87,0,0,1,.29-1.19,1.21,1.21,0,0,1,.46-.58.92.92,0,0,1,.81-.09,1.63,1.63,0,0,1,.84,1.11,9,9,0,0,1,.21,1.19,17.28,17.28,0,0,1,.15,2.23,18.39,18.39,0,0,1-.39,3.75,15.68,15.68,0,0,1-.73,2.43A2.86,2.86,0,0,1,769.84,628.14Z" transform="translate(-562.12 -438.99)"/><path class="cls-8" d="M774.72,635.09a22.32,22.32,0,0,0,2-1.9,9.78,9.78,0,0,0,2.4-6.15l.38.24-.59.32a9.94,9.94,0,0,0-4.26,5.59,19.63,19.63,0,0,0-.51,3,2.52,2.52,0,0,1-.11-.82,8.7,8.7,0,0,1,.26-2.25,9.89,9.89,0,0,1,4.35-5.94c.22-.11.43-.23.62-.34l.39-.21v.45a9.6,9.6,0,0,1-2.66,6.38,8.64,8.64,0,0,1-1.62,1.33A2.17,2.17,0,0,1,774.72,635.09Z" transform="translate(-562.12 -438.99)"/><path class="cls-8" d="M732,733.7s.24.2.61.62.87,1,1.47,1.84a43.61,43.61,0,0,1,6.8,13.89c.27,1,.46,1.74.56,2.28a2.77,2.77,0,0,1,.11.86,29.46,29.46,0,0,1-1-3,55.43,55.43,0,0,0-6.76-13.79A30.55,30.55,0,0,1,732,733.7Z" transform="translate(-562.12 -438.99)"/><path class="cls-8" d="M738.23,745.52a2.62,2.62,0,0,1-.88,0,10.28,10.28,0,0,1-2.31-.56,11.9,11.9,0,0,1-6-4.92l-.14-.23-.3-.49.57.1a13.9,13.9,0,0,1,6.84,3.38,11.83,11.83,0,0,1,1.56,1.72,2.45,2.45,0,0,1,.44.72c-.07.06-.76-.93-2.24-2.16a14.6,14.6,0,0,0-6.69-3.15l.27-.38.14.22a12.22,12.22,0,0,0,5.72,4.85A28.25,28.25,0,0,0,738.23,745.52Z" transform="translate(-562.12 -438.99)"/><path class="cls-8" d="M737.68,740.61c-.09,0,.42-1.25.78-3.33a19.26,19.26,0,0,0,.27-3.68,18.58,18.58,0,0,0-.17-2.17,9.31,9.31,0,0,0-.21-1.1,1.18,1.18,0,0,0-.52-.78c-.24-.08-.48.07-.61.4A4.66,4.66,0,0,0,737,731a16.53,16.53,0,0,0-.23,2.16,18.27,18.27,0,0,0,.19,3.68c.32,2.08.82,3.31.73,3.34a2.72,2.72,0,0,1-.4-.84,13.56,13.56,0,0,1-.69-2.44,16.94,16.94,0,0,1-.31-3.76,16.11,16.11,0,0,1,.21-2.23,5.22,5.22,0,0,1,.28-1.19,1.34,1.34,0,0,1,.46-.58.92.92,0,0,1,.81-.09,1.6,1.6,0,0,1,.84,1.11,9,9,0,0,1,.21,1.19,17.28,17.28,0,0,1,.15,2.23,17.71,17.71,0,0,1-.39,3.75,15,15,0,0,1-.73,2.43A2.54,2.54,0,0,1,737.68,740.61Z" transform="translate(-562.12 -438.99)"/><path class="cls-8" d="M742.56,747.57a22.32,22.32,0,0,0,2.05-1.9,9.72,9.72,0,0,0,2.4-6.15l.38.24-.58.32a10,10,0,0,0-4.27,5.59,18.69,18.69,0,0,0-.5,3,2.08,2.08,0,0,1-.12-.82,8.79,8.79,0,0,1,.27-2.25,9.81,9.81,0,0,1,4.35-5.94l.62-.34.38-.21v.45a9.59,9.59,0,0,1-2.65,6.38,8.34,8.34,0,0,1-1.63,1.33A2.17,2.17,0,0,1,742.56,747.57Z" transform="translate(-562.12 -438.99)"/><path class="cls-8" d="M858.56,620.29a2.68,2.68,0,0,1-.17.85c-.14.54-.39,1.3-.73,2.24a43.38,43.38,0,0,1-7.82,13.34c-.65.76-1.2,1.35-1.6,1.73s-.62.59-.65.57a28.65,28.65,0,0,1,2-2.53,55.26,55.26,0,0,0,7.76-13.25A31.3,31.3,0,0,1,858.56,620.29Z" transform="translate(-562.12 -438.99)"/><path class="cls-8" d="M852.17,632.05a2.74,2.74,0,0,1-.46-.74,10.22,10.22,0,0,1-.81-2.24,11.82,11.82,0,0,1,.77-7.75l.11-.24.24-.53.23.54a13.92,13.92,0,0,1,1,7.57,10.94,10.94,0,0,1-.57,2.25c-.19.51-.33.78-.36.76s.36-1.15.57-3.06a14.65,14.65,0,0,0-1.07-7.31h.47l-.11.24a12.21,12.21,0,0,0-.88,7.44A29.45,29.45,0,0,0,852.17,632.05Z" transform="translate(-562.12 -438.99)"/><path class="cls-8" d="M856,628.89c0-.1,1.28-.35,3.21-1.2a18.86,18.86,0,0,0,3.22-1.8,20,20,0,0,0,1.71-1.34,10.07,10.07,0,0,0,.81-.78,1.23,1.23,0,0,0,.36-.87c-.06-.24-.33-.36-.67-.29a5.13,5.13,0,0,0-1,.37,17.45,17.45,0,0,0-1.93,1,17.91,17.91,0,0,0-3,2.19c-1.56,1.42-2.32,2.51-2.39,2.45a2.83,2.83,0,0,1,.48-.8,14.71,14.71,0,0,1,1.65-1.92,17,17,0,0,1,3-2.33,15.9,15.9,0,0,1,2-1.06,5,5,0,0,1,1.15-.42,1.27,1.27,0,0,1,.74.06.88.88,0,0,1,.52.63,1.59,1.59,0,0,1-.46,1.31c-.3.33-.58.56-.87.83a17.41,17.41,0,0,1-1.78,1.35,17.2,17.2,0,0,1-3.34,1.75,14.51,14.51,0,0,1-2.43.74A3.07,3.07,0,0,1,856,628.89Z" transform="translate(-562.12 -438.99)"/><path class="cls-8" d="M852.87,636.8a23.65,23.65,0,0,0,2.71.66,9.74,9.74,0,0,0,6.45-1.4v.45l-.59-.31a10,10,0,0,0-7-.47,18.83,18.83,0,0,0-2.76,1.22s.19-.23.63-.55a8.55,8.55,0,0,1,2-1,9.79,9.79,0,0,1,7.35.35l.63.33.39.2-.38.24a9.57,9.57,0,0,1-6.78,1.31,8.32,8.32,0,0,1-2-.62A2,2,0,0,1,852.87,636.8Z" transform="translate(-562.12 -438.99)"/><path class="cls-8" d="M727.23,648.67a13.2,13.2,0,0,0,1-2.66,7.88,7.88,0,0,0-1.41-6.42l.4,0-.08.09a6.23,6.23,0,0,0-1.2,6.38,15.35,15.35,0,0,0,1.28,2.59,5.52,5.52,0,0,1-1.63-2.47,6.41,6.41,0,0,1-.48-3.21,6.71,6.71,0,0,1,1.64-3.64l.08-.1.21-.23.19.25a7.92,7.92,0,0,1,1.35,6.83,6.61,6.61,0,0,1-.86,2C727.45,648.49,727.25,648.69,727.23,648.67Z" transform="translate(-562.12 -438.99)"/><path class="cls-8" d="M778.05,612.3a13.8,13.8,0,0,0,2.36-1.58,7.82,7.82,0,0,0,2.6-6l.31.24-.11,0a6.42,6.42,0,0,0-3.21,1.82,6.29,6.29,0,0,0-1.48,2.67,14.16,14.16,0,0,0-.47,2.85,5.38,5.38,0,0,1,.11-2.95,6.4,6.4,0,0,1,1.49-2.9,6.66,6.66,0,0,1,3.44-2l.13,0,.3-.07v.31a7.63,7.63,0,0,1-.87,3.85,7.72,7.72,0,0,1-2,2.49,6.6,6.6,0,0,1-1.84,1.1A1.91,1.91,0,0,1,778.05,612.3Z" transform="translate(-562.12 -438.99)"/><path class="cls-8" d="M859.7,608.71A14.42,14.42,0,0,0,861,606.2a7.91,7.91,0,0,0-.58-6.55l.39.07-.09.08a6.45,6.45,0,0,0-2,3.12,6.31,6.31,0,0,0,0,3.05,14.65,14.65,0,0,0,.94,2.74,5.48,5.48,0,0,1-1.3-2.66,6.5,6.5,0,0,1-.07-3.25,6.75,6.75,0,0,1,2.09-3.4l.1-.08.23-.2.16.26a7.61,7.61,0,0,1,1.05,3.8,7.94,7.94,0,0,1-.58,3.15,6.63,6.63,0,0,1-1.11,1.84C859.94,608.56,859.72,608.73,859.7,608.71Z" transform="translate(-562.12 -438.99)"/><path class="cls-8" d="M824.44,669.51a14.42,14.42,0,0,0,1.34-2.51,7.91,7.91,0,0,0-.58-6.55l.39.07-.09.07a6.44,6.44,0,0,0-2,3.13,6.31,6.31,0,0,0,0,3,15.39,15.39,0,0,0,.94,2.74,5.54,5.54,0,0,1-1.3-2.66,6.4,6.4,0,0,1-.06-3.25,6.73,6.73,0,0,1,2.08-3.4l.1-.08.23-.21.16.27a7.73,7.73,0,0,1,1.06,3.8,8.15,8.15,0,0,1-.59,3.15A6.63,6.63,0,0,1,825,669C824.68,669.35,824.46,669.53,824.44,669.51Z" transform="translate(-562.12 -438.99)"/><path class="cls-8" d="M719.67,750.24a13.26,13.26,0,0,0-1.21-2.57,7.89,7.89,0,0,0-5.6-3.44l.28-.27v.11a6.46,6.46,0,0,0,1.34,3.45,6.38,6.38,0,0,0,2.43,1.84,14.62,14.62,0,0,0,2.75.88,5.4,5.4,0,0,1-2.9-.54,6.39,6.39,0,0,1-2.65-1.88,6.61,6.61,0,0,1-1.48-3.71l0-.13,0-.3.31,0a7.67,7.67,0,0,1,3.68,1.42,8,8,0,0,1,2.18,2.34,7,7,0,0,1,.82,2A1.79,1.79,0,0,1,719.67,750.24Z" transform="translate(-562.12 -438.99)"/><path class="cls-8" d="M843,664.38c-.05-.09,1.55-.82,3.9-2.3a13.65,13.65,0,0,0,3.57-3.25,7.62,7.62,0,0,0,1.59-5.46l.29.22h-.19l-.2,0-.38.06c-.25,0-.5.11-.74.18a9.13,9.13,0,0,0-1.42.49,10.27,10.27,0,0,0-5.32,5.27,13.9,13.9,0,0,0-1,4.36,3.71,3.71,0,0,1-.07-1.23,10,10,0,0,1,.74-3.27,10.21,10.21,0,0,1,2.93-4,10.48,10.48,0,0,1,2.52-1.56,9.41,9.41,0,0,1,1.49-.53c.26-.07.52-.14.79-.19l.4-.07.2,0h.2c-.06-.05.54.42.29.22a8,8,0,0,1-1.72,5.83,13.35,13.35,0,0,1-3.76,3.27,29.34,29.34,0,0,1-3,1.54A5.66,5.66,0,0,1,843,664.38Z" transform="translate(-562.12 -438.99)"/><path class="cls-8" d="M794,749.5c-.05-.09,1.55-.82,3.9-2.31a13.42,13.42,0,0,0,3.57-3.24,7.63,7.63,0,0,0,1.59-5.47l.29.22h-.1l-.09,0-.19,0-.39.07c-.25,0-.5.11-.74.17a9.16,9.16,0,0,0-1.42.5A9.89,9.89,0,0,0,798,741a10.06,10.06,0,0,0-2.9,3.8,13.82,13.82,0,0,0-1,4.35,3.62,3.62,0,0,1-.07-1.22,10.3,10.3,0,0,1,3.67-7.3,10.84,10.84,0,0,1,2.52-1.57,10.52,10.52,0,0,1,1.49-.53c.26-.07.52-.13.79-.18s.26-.06.4-.07l.2,0h.2l.29.23a8.06,8.06,0,0,1-1.72,5.83,13.32,13.32,0,0,1-3.76,3.26,27.8,27.8,0,0,1-3,1.55A5.66,5.66,0,0,1,794,749.5Z" transform="translate(-562.12 -438.99)"/><path class="cls-8" d="M742.38,645.29c0-.09,1.54-.82,3.9-2.3a13.65,13.65,0,0,0,3.57-3.25,7.62,7.62,0,0,0,1.59-5.46c-.26-.2.35.26.28.22h-.18l-.2,0c-.13,0-.25,0-.38.06l-.75.18a9.39,9.39,0,0,0-1.41.49,10.48,10.48,0,0,0-2.43,1.47,10.35,10.35,0,0,0-2.9,3.8,14,14,0,0,0-1,4.36,3.71,3.71,0,0,1-.07-1.23,10,10,0,0,1,.74-3.27,10.21,10.21,0,0,1,2.93-4,10.48,10.48,0,0,1,2.52-1.56,9.07,9.07,0,0,1,1.49-.53c.25-.07.52-.14.78-.19l.4-.07.21,0h.2l.28.22a8,8,0,0,1-1.72,5.83,13.18,13.18,0,0,1-3.75,3.27,30.45,30.45,0,0,1-3,1.54A5.94,5.94,0,0,1,742.38,645.29Z" transform="translate(-562.12 -438.99)"/><path class="cls-10" d="M780.19,516.86c-1.43-11-11.64-23-33.16-18l-21.12,6.87a6.48,6.48,0,0,0-5.34,6.94l7.86,83.16A19.62,19.62,0,0,0,748,613.59h0a19.63,19.63,0,0,0,19.61-20.52c-.46-10-.8-18-.79-18s13.93-3.28,15.62-21.85C783.25,544,781.78,529.05,780.19,516.86Z" transform="translate(-562.12 -438.99)"/><path class="cls-5" d="M774.72,529.52a2.35,2.35,0,0,1-2.11,2.53,2.26,2.26,0,0,1-2.58-2,2.37,2.37,0,0,1,2.11-2.53A2.26,2.26,0,0,1,774.72,529.52Z" transform="translate(-562.12 -438.99)"/><path class="cls-5" d="M777.88,526.33c-.28.32-2.15-.88-4.69-.7s-4.3,1.57-4.6,1.28c-.15-.13.12-.71.89-1.35a6.47,6.47,0,0,1,3.66-1.4,6.15,6.15,0,0,1,3.75.94C777.71,525.64,778,526.18,777.88,526.33Z" transform="translate(-562.12 -438.99)"/><path class="cls-5" d="M750.45,530.78a2.36,2.36,0,0,1-2.11,2.53,2.25,2.25,0,0,1-2.57-2,2.35,2.35,0,0,1,2.11-2.53A2.26,2.26,0,0,1,750.45,530.78Z" transform="translate(-562.12 -438.99)"/><path class="cls-5" d="M752.76,527.69c-.28.33-2.15-.87-4.69-.7s-4.31,1.57-4.6,1.28c-.15-.13.11-.7.89-1.35a6.47,6.47,0,0,1,3.66-1.4,6.24,6.24,0,0,1,3.75.94C752.59,527,752.89,527.54,752.76,527.69Z" transform="translate(-562.12 -438.99)"/><path class="cls-5" d="M763,545.21c0-.15,1.54-.52,4.07-1,.64-.11,1.25-.28,1.33-.73a3.28,3.28,0,0,0-.57-1.89l-2.24-4.81c-3.13-6.84-5.44-12.48-5.17-12.61s3,5.33,6.17,12.17l2.17,4.84a3.75,3.75,0,0,1,.5,2.52,1.59,1.59,0,0,1-1,1,4.1,4.1,0,0,1-1.09.23C764.64,545.23,763.05,545.35,763,545.21Z" transform="translate(-562.12 -438.99)"/><path class="cls-11" d="M766.79,575.1a46.83,46.83,0,0,1-25-4.91s7.08,12.55,25.36,9.6Z" transform="translate(-562.12 -438.99)"/><path class="cls-11" d="M762.37,551.39a4.59,4.59,0,0,0-4.21-1.42,4.17,4.17,0,0,0-2.78,1.74,2.63,2.63,0,0,0,0,3,3.06,3.06,0,0,0,3.38.62,9.44,9.44,0,0,0,3.11-2.15,2.87,2.87,0,0,0,.68-.8.84.84,0,0,0-.07-.94" transform="translate(-562.12 -438.99)"/><path class="cls-5" d="M755.68,547.46c.41-.05.6,2.7,3.09,4.5s5.4,1.3,5.44,1.68c0,.17-.61.58-1.85.69a6.8,6.8,0,0,1-4.53-1.24,6,6,0,0,1-2.42-3.79C755.23,548.16,755.49,547.46,755.68,547.46Z" transform="translate(-562.12 -438.99)"/><path class="cls-5" d="M776.68,520.4c-.4.6-2.19.12-4.29.23s-3.86.65-4.31.08c-.2-.28,0-.88.79-1.48a6.22,6.22,0,0,1,6.93-.25C776.58,519.52,776.86,520.1,776.68,520.4Z" transform="translate(-562.12 -438.99)"/><path class="cls-5" d="M752.78,520.64c-.21.7-2.76.55-5.71,1.11s-5.31,1.53-5.74.93c-.2-.28.18-1,1.1-1.69a10.09,10.09,0,0,1,8.73-1.56C752.28,519.8,752.86,520.3,752.78,520.64Z" transform="translate(-562.12 -438.99)"/><path class="cls-5" d="M695.48,556.7c4.4-.19,8-3.52,11-6.75L703,543.57a8.94,8.94,0,1,0-7.5,13.13Z" transform="translate(-562.12 -438.99)"/><path class="cls-5" d="M801.47,595.52c2.89-11.09-2.89-15.18-2.89-15.18-9.79-10.15-.72-21.11-.72-21.11,5.87-10,7.37-27.39-2.6-36.59-4.87-4.5-3.81-14.64-5-21.16-1.55-8.22-8.21-15-16.14-17.68s-16.86-1.49-24.35,2.24a42.42,42.42,0,0,0-9.53,6.56c-3.32-1.21-6.62-.84-10.34-.68a14.21,14.21,0,0,0-10.65,6.25c-3.15,4.68-2.34,10.21-4.18,15.55-2.09,6.07-7.69,10.87-9.63,16.73a11.52,11.52,0,0,0-.7,5c.23,3.09,1.38,6,2.17,9s1.22,6.26,0,9.13c-2,4.9-7.7,6.9-12,9.95a24.13,24.13,0,0,0-9.9,21.29c.2,2.4.75,4.9-.12,7.14-1,2.56-3.62,4.09-5.2,6.33-2.48,3.51-2.12,8.43-.21,12.28s5.12,6.88,8.26,9.82q5.92-5.14,12.22-9.84a17.35,17.35,0,0,1-.72,2.46c-1.55,4.09-4.38,7.54-7.17,10.92a121.18,121.18,0,0,0,22.78,3.61c2.51.16,5.12.22,7.42-.79a6.58,6.58,0,0,0,3.7-4l-.33,4.7a68.16,68.16,0,0,1,17,2.13c3.56-4.79,7-9.82,8.79-15.5s1.9-12.17-1-17.37c-2.65-4.72-7.35-7.84-11.37-11.47s-7.64-8.6-6.93-14c.89-6.67,8.21-11.66,7.57-18.35-.63-6.51-8.61-10.66-8.74-17.19-.11-5.91,6-9.64,9.92-14a22.55,22.55,0,0,0,5-18.31c4.43,2.06,10.9,1.7,15.74,2.05,1.56.12,3.13.06,4.67.29a6.94,6.94,0,0,1,4.15,2c1.37,1.51,1.63,3.69,2.42,5.56a10.32,10.32,0,0,0,7.62,6c1.46,11.7,2.7,25.35,1.91,34-1.69,18.57-15.62,21.85-15.62,21.85,0,.18.34,8.12.79,18a19.51,19.51,0,0,1-3.67,12.3l1,10,39.85,4.39C816.67,622.45,797,612.83,801.47,595.52Z" transform="translate(-562.12 -438.99)"/><path class="cls-12" d="M706.5,541.92a1.82,1.82,0,0,0-2.15-1.44,2.72,2.72,0,0,0-1.94,2,5.5,5.5,0,0,0,.12,2.87,11.61,11.61,0,0,0,2,4c.62.82,1.62,1.63,2.59,1.26s1.17-1.75,1.06-2.83a19.24,19.24,0,0,0-2.07-7" transform="translate(-562.12 -438.99)"/><path class="cls-6" d="M689.71,551.79a9.1,9.1,0,0,1,4.21-4.15,16,16,0,0,1,5.88-1.42,21.32,21.32,0,0,0,2.55-.18,8.38,8.38,0,0,0-2.57-.19,14.46,14.46,0,0,0-6.09,1.32,8.77,8.77,0,0,0-4.31,4.48,5.85,5.85,0,0,0-.44,1.86,1.51,1.51,0,0,0,0,.69A14,14,0,0,1,689.71,551.79Z" transform="translate(-562.12 -438.99)"/><path class="cls-6" d="M744.7,504.93a22.74,22.74,0,0,1-2.28,6,23.68,23.68,0,0,1-6.08,7.26,21.5,21.5,0,0,1-4.78,2.92A38.07,38.07,0,0,1,725.8,523a21,21,0,0,0-5.74,2.21,9.46,9.46,0,0,0-3.76,4.34c-1.46,3.4-1.62,6.74-2.69,9.24a12.59,12.59,0,0,1-1.81,3.14,7.57,7.57,0,0,1-2.08,1.78,6.79,6.79,0,0,1-2.22.71,2.24,2.24,0,0,0,.62,0,5.2,5.2,0,0,0,1.7-.52,7.46,7.46,0,0,0,2.2-1.77,12.62,12.62,0,0,0,1.93-3.19,21,21,0,0,0,1.1-3.59l.05.3c0,.3.11.67.17,1.08l.17,1.5a29.61,29.61,0,0,1,.08,4.11,23.81,23.81,0,0,1-1,5.33c-1.18,3.87-3.93,8-7.68,11.76a59.24,59.24,0,0,1-6.27,5.57,72.6,72.6,0,0,0-6.88,5.9,17.9,17.9,0,0,0-4.76,7.72,22.94,22.94,0,0,0-.34,8.46,58.82,58.82,0,0,1,.57,7.56,12.86,12.86,0,0,1-1.63,6.26c-1,1.73-2.26,3.11-3.14,4.47a9.86,9.86,0,0,0-1.62,3.83,5.56,5.56,0,0,0,.15,2.63,3.25,3.25,0,0,0,.39.82s-.13-.28-.29-.85a5.69,5.69,0,0,1,0-2.56,9.79,9.79,0,0,1,1.66-3.7c.89-1.34,2.14-2.69,3.22-4.45a13.14,13.14,0,0,0,1.74-6.43,58.59,58.59,0,0,0-.52-7.63,22.49,22.49,0,0,1,.35-8.27,17.59,17.59,0,0,1,4.64-7.5,77,77,0,0,1,6.83-5.87,58.8,58.8,0,0,0,6.3-5.63c3.76-3.85,6.52-8,7.68-12a23.27,23.27,0,0,0,.95-5.42,27.23,27.23,0,0,0-.17-4.15q-.12-.84-.21-1.5c-.09-.42-.16-.78-.23-1.08l-.1-.46a30.15,30.15,0,0,1,1.64-5.41,9.05,9.05,0,0,1,3.59-4.11,21.21,21.21,0,0,1,5.6-2.14l.59-.16a7.52,7.52,0,0,0-2.17,2.22,15.73,15.73,0,0,0-2,5.21,22.76,22.76,0,0,0-.36,7.41c.28,2.74,1,5.67,1.49,8.84a20.09,20.09,0,0,1-.59,10,10.66,10.66,0,0,1-3.13,4.37,26.78,26.78,0,0,1-4.87,3,33.07,33.07,0,0,0-5.19,3.12,20.39,20.39,0,0,0-4.24,4.59,21.26,21.26,0,0,0-3.61,11.63,19.19,19.19,0,0,0,.87,5.79,26.64,26.64,0,0,0,2.31,5.11c1.82,3.16,3.92,5.9,5.59,8.64a26.47,26.47,0,0,1,3.5,8.13,14.49,14.49,0,0,1,.29,3.83,10.9,10.9,0,0,1-.77,3.34A10.42,10.42,0,0,1,710.4,623a7.5,7.5,0,0,1-3.11,1.5c-.78.18-1.21.17-1.21.21a5.18,5.18,0,0,0,1.23-.1,7.38,7.38,0,0,0,3.22-1.45,10.62,10.62,0,0,0,3.35-4.46,11.36,11.36,0,0,0,.83-3.42,14.42,14.42,0,0,0-.26-3.94,26.34,26.34,0,0,0-3.49-8.27c-1.67-2.78-3.75-5.53-5.54-8.66a25.89,25.89,0,0,1-2.26-5,19.2,19.2,0,0,1-.83-5.64,20.86,20.86,0,0,1,3.53-11.34A19.79,19.79,0,0,1,710,568a31.67,31.67,0,0,1,5.1-3.07,27,27,0,0,0,5-3.1,11,11,0,0,0,3.26-4.58,20.51,20.51,0,0,0,.57-10.28c-.52-3.19-1.25-6.1-1.55-8.81a22.6,22.6,0,0,1,.28-7.31,15.57,15.57,0,0,1,1.91-5.16,7.33,7.33,0,0,1,2.36-2.42,32.27,32.27,0,0,0,4.89-1.64,21.62,21.62,0,0,0,4.87-3,23.67,23.67,0,0,0,6.11-7.46A21.54,21.54,0,0,0,744.9,505a13.83,13.83,0,0,0,.23-1.75,2.44,2.44,0,0,0,0-.62C745.1,502.6,745,503.45,744.7,504.93Z" transform="translate(-562.12 -438.99)"/><path class="cls-6" d="M787.82,520.26c.79-.06,1.5-.15,2.15-.17a4.58,4.58,0,0,1,2.89.73,4.86,4.86,0,0,1,.79.8s0-.11-.11-.29a2.44,2.44,0,0,0-.56-.67,4.54,4.54,0,0,0-3-.94c-.67,0-1.4.07-2.17.11a18.47,18.47,0,0,1-2.44-.06,17.54,17.54,0,0,1-5.4-1.4,17.28,17.28,0,0,1-7.58-6.59,35.48,35.48,0,0,1-1.9-3.8,4.6,4.6,0,0,0,.28,1.12,15.65,15.65,0,0,0,1.31,2.87,16.79,16.79,0,0,0,7.68,6.87,17.18,17.18,0,0,0,5.57,1.41A17.57,17.57,0,0,0,787.82,520.26Z" transform="translate(-562.12 -438.99)"/><path class="cls-6" d="M778.36,496.81c.72,1.53,1.31,3.05,2,4.41a12.42,12.42,0,0,0,2.55,3.41,11.87,11.87,0,0,0,5.38,2.89,10.46,10.46,0,0,0,1.65.26,2.14,2.14,0,0,0,.58,0c0-.06-.8-.06-2.18-.45a12,12,0,0,1-7.6-6.31c-.69-1.34-1.26-2.85-2-4.41a13,13,0,0,0-3.08-4.45,12.4,12.4,0,0,0-5.15-2.68,19.21,19.21,0,0,0-11,.77,64,64,0,0,0-8.29,3.69c-2.3,1.16-4.18,2.05-5.51,2.61l-1.54.62a2.5,2.5,0,0,0-.53.24,2.18,2.18,0,0,0,.57-.14c.36-.11.89-.28,1.57-.53,1.36-.5,3.28-1.35,5.6-2.47a71.84,71.84,0,0,1,8.28-3.57,19.1,19.1,0,0,1,10.77-.72,12,12,0,0,1,4.94,2.57A12.65,12.65,0,0,1,778.36,496.81Z" transform="translate(-562.12 -438.99)"/><path class="cls-6" d="M721.3,500.49a13.33,13.33,0,0,1,17.33-4.37,21.68,21.68,0,0,1,3.37,2.29,3.68,3.68,0,0,0-.74-.84,12,12,0,0,0-2.46-1.78A13.28,13.28,0,0,0,721,500.28a11.92,11.92,0,0,0-1.32,2.74,3.77,3.77,0,0,0-.26,1.08A23,23,0,0,1,721.3,500.49Z" transform="translate(-562.12 -438.99)"/><path class="cls-6" d="M796.09,542.62a26.64,26.64,0,0,0-3.9-5.74c-1.39-1.67-2.75-3.15-3.8-4.64A20.54,20.54,0,0,1,786,528a11.42,11.42,0,0,1-.79-3.6,10.09,10.09,0,0,1,.41-3.13,4.36,4.36,0,0,0-.3.77,7.9,7.9,0,0,0-.31,2.36,11.43,11.43,0,0,0,.72,3.7,20.22,20.22,0,0,0,2.35,4.4c1,1.53,2.4,3,3.77,4.7a26.7,26.7,0,0,1,3.79,5.67,11,11,0,0,1,.79,7.28,21.75,21.75,0,0,1-3.54,7.22c-1.59,2.3-3.3,4.44-4.78,6.65a22.25,22.25,0,0,0-3.35,6.9c-.1.61-.26,1.2-.31,1.8l-.06,1.79a14.24,14.24,0,0,0,.63,3.33c.64,2.09,1.5,3.92,2.14,5.63a12.45,12.45,0,0,1,.68,8.41,7.3,7.3,0,0,1-1.69,2.64l.17-.13a3.09,3.09,0,0,0,.45-.42,5.81,5.81,0,0,0,1.26-2,12.44,12.44,0,0,0-.53-8.6c-.62-1.74-1.46-3.58-2.07-5.63a14.27,14.27,0,0,1-.58-3.24l.06-1.71c.06-.58.22-1.15.32-1.74a21.79,21.79,0,0,1,3.3-6.73c1.47-2.18,3.19-4.32,4.79-6.64a22.13,22.13,0,0,0,3.61-7.4A11.58,11.58,0,0,0,796.09,542.62Z" transform="translate(-562.12 -438.99)"/><path class="cls-6" d="M735.51,605a81.55,81.55,0,0,0-6.49-7.49,30.58,30.58,0,0,1-6.1-8.89,14.19,14.19,0,0,1-1.13-5.52,11.67,11.67,0,0,1,1.52-5.56c2-3.47,4.92-6.15,7-9.37a14.56,14.56,0,0,0,2.2-5.19,16.39,16.39,0,0,0,.05-5.41,34.71,34.71,0,0,0-3.13-9.41,84.1,84.1,0,0,1-3.39-7.9c-1.79-4.95-1.35-9.43-.19-12.1a10,10,0,0,1,1.75-2.85c.51-.58.82-.85.8-.87a5.82,5.82,0,0,0-.87.8,9.4,9.4,0,0,0-1.86,2.84c-1.24,2.68-1.75,7.27,0,12.3a83.25,83.25,0,0,0,3.35,8,34.79,34.79,0,0,1,3.05,9.3,15.91,15.91,0,0,1-.07,5.24,13.93,13.93,0,0,1-2.14,5c-2,3.15-5,5.83-7,9.4a12.09,12.09,0,0,0-1.59,5.8,14.67,14.67,0,0,0,1.18,5.72,30.74,30.74,0,0,0,6.22,9,83.14,83.14,0,0,1,6.49,7.42,19.49,19.49,0,0,1,2.05,19.8,23.15,23.15,0,0,1-2.35,3.9s.08-.07.2-.22l.56-.69a16.76,16.76,0,0,0,1.77-2.9A19.69,19.69,0,0,0,739,612.9,19.75,19.75,0,0,0,735.51,605Z" transform="translate(-562.12 -438.99)"/><polygon class="cls-13" points="170.04 250.45 187.19 209.17 244.69 235.51 212.59 309.99 154.16 288.74 170.04 250.45"/><polygon class="cls-9" points="170.04 250.45 187.19 209.17 244.69 235.51 212.59 309.99 154.16 288.74 170.04 250.45"/><polygon class="cls-9" points="244.69 235.51 212.59 309.99 224.13 314.1 255.79 240.84 244.69 235.51"/><g class="cls-14"><polygon points="244.69 235.51 212.59 309.99 224.13 314.1 255.79 240.84 244.69 235.51"/></g><polygon class="cls-15" points="195.49 212.25 199.42 204.35 253.12 230.41 250.38 237.44 195.49 212.25"/><polygon class="cls-8" points="189.46 210.21 191.01 206.65 252.29 235.51 251.18 238.62 189.46 210.21"/><path class="cls-7" d="M808.18,689.29c.14.06-4.5,11.4-10.35,25.34S787.14,739.82,787,739.76s4.5-11.4,10.35-25.34S808.05,689.24,808.18,689.29Z" transform="translate(-562.12 -438.99)"/><path class="cls-7" d="M755.23,665l.18.07.54.23,2.11.93,8,3.56,28.08,12.64.22.1-.1.22c-3.38,7.73-7.1,16.26-11,25.22l-.1.23-.24-.1-.07,0-38.3-16.31-.19-.08.08-.19,7.86-19.37c.94-2.27,1.67-4.05,2.18-5.3l.57-1.37a4.6,4.6,0,0,1,.21-.45l-.18.51-.54,1.42c-.5,1.27-1.2,3.08-2.1,5.39L744.8,691.6l-.12-.27L783,707.55l.08,0-.34.14,11-25.21.12.32L766.1,670l-8-3.71-2.13-1-.56-.27Z" transform="translate(-562.12 -438.99)"/><path class="cls-7" d="M784.17,698.57a4.57,4.57,0,0,1-.35-.8l-.89-2.31c-.76-2.08-1.81-4.93-3-8.33l.27.14-10.75,3.52-.2.06-.1-.17-.92-1.49-3.35-5.44.31.11-12.63,4.87-3.69,1.37a8.5,8.5,0,0,1-1.36.44,8.78,8.78,0,0,1,1.29-.6l3.65-1.51,12.55-5,.2-.08.11.18c1.06,1.71,2.2,3.54,3.36,5.43l.92,1.48-.3-.11L780,686.84l.2-.06.07.2,2.88,8.39c.32,1,.57,1.75.77,2.36A4.73,4.73,0,0,1,784.17,698.57Z" transform="translate(-562.12 -438.99)"/><path class="cls-7" d="M773.67,682.18s-.06-.2-.17-.51a2.13,2.13,0,0,0-.8-1.08,2,2,0,0,0-1.87-.23,1.95,1.95,0,0,0,0,3.64,2,2,0,0,0,1.87-.24,2.13,2.13,0,0,0,.8-1.08c.11-.31.13-.5.17-.5s.08.19,0,.55a2.1,2.1,0,0,1-.78,1.32,2.33,2.33,0,0,1-2.25.4,2.41,2.41,0,0,1,0-4.54,2.33,2.33,0,0,1,2.25.39,2.13,2.13,0,0,1,.78,1.32C773.75,682,773.7,682.18,773.67,682.18Z" transform="translate(-562.12 -438.99)"/><path class="cls-12" d="M802,672.39s-3.91-7.62-11-5c-2.77,1-9,19.79-9,19.79l4-1.27,2.51,4.17s8-19.7,9.23-19.53Z" transform="translate(-562.12 -438.99)"/><path class="cls-7" d="M782.56,713.8a12.49,12.49,0,0,1-1.69-.56l-4.54-1.7c-3.82-1.45-9.08-3.5-14.89-5.79s-11.05-4.38-14.83-5.93L742.14,698a10.8,10.8,0,0,1-1.61-.74,12.49,12.49,0,0,1,1.69.56l4.54,1.7c3.82,1.46,9.09,3.5,14.89,5.79s11,4.38,14.82,5.92l4.47,1.85A10.57,10.57,0,0,1,782.56,713.8Z" transform="translate(-562.12 -438.99)"/><path class="cls-7" d="M780.21,717a10.37,10.37,0,0,1-1.69-.55l-4.53-1.7c-3.83-1.46-9.09-3.5-14.9-5.79S748,704.57,744.26,703l-4.47-1.85a12.28,12.28,0,0,1-1.61-.74,10.5,10.5,0,0,1,1.69.56l4.54,1.7c3.82,1.45,9.09,3.49,14.89,5.78s11,4.38,14.82,5.93l4.48,1.85A13.18,13.18,0,0,1,780.21,717Z" transform="translate(-562.12 -438.99)"/><path class="cls-7" d="M778.93,721.3a10,10,0,0,1-1.69-.55l-4.54-1.7c-3.82-1.46-9.08-3.5-14.89-5.79s-11-4.39-14.83-5.93l-4.47-1.85a12.28,12.28,0,0,1-1.61-.74,9.65,9.65,0,0,1,1.69.56l4.54,1.7c3.82,1.45,9.09,3.49,14.89,5.78s11,4.38,14.82,5.93l4.47,1.85A13,13,0,0,1,778.93,721.3Z" transform="translate(-562.12 -438.99)"/><path class="cls-10" d="M752.15,709.55l8.64,4.35s6.89-3.36,10.32-3.86,18.2,1.4,18.2,1.4a3.72,3.72,0,0,1-2.57,4c-1.31.4-8.59,0-8.59,0h0a3.66,3.66,0,0,0,1,6.15c3.69,1.53,8,3.34,8.49,3.67s5.88-.62,9.83-1.41c2.37-.48,4.08,2.55,2.25,4.12a1.17,1.17,0,0,1-.61.3s3.56,2.13-2.58,4.8c0,0-2.08,4.78-5.9,5.11,0,0-4.48,4.5-7.29,5.24s-21-6.21-21-6.21l-17.7-9.18Z" transform="translate(-562.12 -438.99)"/><path class="cls-11" d="M782.82,743.41c-4,0-20.32-6.2-20.49-6.27L744.61,728v0l7.52-18.41h0l8.63,4.34c.32-.15,7-3.37,10.32-3.86a11.8,11.8,0,0,1,1.62-.08c5,0,16.45,1.47,16.58,1.48h0v0a3.75,3.75,0,0,1-2.58,4c-1.28.4-8.28,0-8.59,0a3.65,3.65,0,0,0-1.2,3.33,3.58,3.58,0,0,0,2.2,2.77c3.59,1.5,8,3.35,8.49,3.68s3.92-.23,9.82-1.42a2.94,2.94,0,0,1,.51-.05,2.58,2.58,0,0,1,2.28,1.48,2.21,2.21,0,0,1-.53,2.74,1.26,1.26,0,0,1-.55.3,2.06,2.06,0,0,1,1,1.67c-.07,1.07-1.28,2.12-3.61,3.13a11.91,11.91,0,0,1-1.52,2.43,6.64,6.64,0,0,1-4.39,2.68c-.2.2-4.56,4.52-7.29,5.24A2,2,0,0,1,782.82,743.41Zm-38.15-15.48,17.68,9.17c.17.06,16.46,6.26,20.46,6.26a2,2,0,0,0,.53-.06c2.76-.72,7.22-5.19,7.27-5.23h0a6.63,6.63,0,0,0,4.38-2.67,11.62,11.62,0,0,0,1.51-2.42h0c2.31-1,3.52-2.05,3.59-3.09a2.11,2.11,0,0,0-1-1.67l-.06,0h.07a1.15,1.15,0,0,0,.59-.3,2.14,2.14,0,0,0,.51-2.68,2.49,2.49,0,0,0-2.73-1.4,74.54,74.54,0,0,1-9.3,1.49,1.18,1.18,0,0,1-.56-.08c-.4-.26-3.33-1.53-8.48-3.67a3.69,3.69,0,0,1-1-6.19h0c.08,0,7.29.46,8.59,0a3.43,3.43,0,0,0,2.36-2.3,4.08,4.08,0,0,0,.18-1.61c-.54-.07-11.64-1.49-16.55-1.49a11.56,11.56,0,0,0-1.62.09c-3.38.5-10.24,3.83-10.31,3.86h0l-8.62-4.33Z" transform="translate(-562.12 -438.99)"/><path class="cls-11" d="M777.37,727.38a11.76,11.76,0,0,0,2.81,1.92,18,18,0,0,0,7.87,2.59,16.64,16.64,0,0,0,8-2.1A11.05,11.05,0,0,0,799,728a15.83,15.83,0,0,0-3.16,1.23,18.45,18.45,0,0,1-7.71,1.79,20.46,20.46,0,0,1-7.62-2.26A14.43,14.43,0,0,0,777.37,727.38Z" transform="translate(-562.12 -438.99)"/><path class="cls-11" d="M776.61,732.15c-.08.09.79,1,2.48,1.9a22.21,22.21,0,0,0,3.09,1.41,10.53,10.53,0,0,0,4.16.8,18.52,18.52,0,0,0,4.09-.93c1.1-.37,2.15-.72,3.18-1.05a11,11,0,0,0,2.87-1.18,11.06,11.06,0,0,0-3.05.58c-.92.23-2,.52-3.24.87a21.19,21.19,0,0,1-3.9.83,10.9,10.9,0,0,1-3.85-.68,31.82,31.82,0,0,1-3.07-1.21C777.65,732.72,776.7,732.05,776.61,732.15Z" transform="translate(-562.12 -438.99)"/><path class="cls-11" d="M776.19,737.73c-.14.32,3.11,1.57,7.1,2.82a3.38,3.38,0,0,0,1.72.05,11.74,11.74,0,0,0,1.44-.32,13.84,13.84,0,0,0,2.32-.87c1.28-.61,1.92-1.23,1.86-1.32a10.79,10.79,0,0,0-2.1.75,22.68,22.68,0,0,1-2.28.65,11.29,11.29,0,0,1-1.36.26,2.89,2.89,0,0,1-1.32,0c-2-.65-3.85-1.15-5.19-1.5A8.71,8.71,0,0,0,776.19,737.73Z" transform="translate(-562.12 -438.99)"/><path class="cls-12" d="M700.13,597.72S690,604.26,683.91,622.3C678.75,637.64,668,662.4,664.45,680c-2.59,12.85,3.49,28.06,19.49,32.4l60.7,18.24,9.28-22.78-54.48-27.67,14.93-34Z" transform="translate(-562.12 -438.99)"/><path class="cls-5" d="M678.54,710.39l.33.08,1,.27,3.75,1.11L697.52,716l47.19,14.4-.31.14c1.9-4.67,3.88-9.53,5.91-14.5l3.37-8.28.13.33c-11.39-5.63-21.92-11.11-31.15-15.89s-17.18-8.83-23.28-11.88h0a11.53,11.53,0,0,0-6.07.44,13.07,13.07,0,0,0-4,2.24,13.36,13.36,0,0,0-1.25,1.09,9.25,9.25,0,0,0-.84.88l-.5.55c-.11.12-.17.18-.18.17l.15-.2.47-.58a8.6,8.6,0,0,1,.82-.9,14.5,14.5,0,0,1,5.26-3.46,11.67,11.67,0,0,1,6.22-.52h0c6.13,3,14.11,7,23.35,11.76S742.65,702,754,707.67l.21.11-.09.22-3.37,8.28-5.92,14.5-.08.21-.23-.06-47.14-14.57L683.55,712l-3.73-1.19-1-.32A1.17,1.17,0,0,1,678.54,710.39Z" transform="translate(-562.12 -438.99)"/><path class="cls-5" d="M716.94,628.12a3.17,3.17,0,0,1,.17.54,11.82,11.82,0,0,1,.35,1.59,20.61,20.61,0,0,1,0,6,39.19,39.19,0,0,1-2.34,8.56c-1.2,3.12-2.74,6.45-4.29,10-3.13,7-6,13.31-8.05,18-1,2.24-1.88,4.07-2.5,5.42-.29.59-.52,1.08-.7,1.46a2.81,2.81,0,0,1-.28.5,2.38,2.38,0,0,1,.18-.54c.16-.4.37-.89.61-1.5l2.35-5.49,7.92-18c1.54-3.52,3.09-6.84,4.31-9.93a40.81,40.81,0,0,0,2.43-8.44,21.82,21.82,0,0,0,.14-5.9,14.5,14.5,0,0,0-.24-1.6A1.82,1.82,0,0,1,716.94,628.12Z" transform="translate(-562.12 -438.99)"/><path class="cls-8" d="M689.6,636.13a28.85,28.85,0,0,1,.59,3.15A55.7,55.7,0,0,0,695,653.87c.86,1.78,1.46,2.85,1.39,2.89s-.22-.23-.52-.69-.72-1.15-1.2-2a43.51,43.51,0,0,1-4.8-14.7c-.14-1-.21-1.79-.24-2.34A2.94,2.94,0,0,1,689.6,636.13Z" transform="translate(-562.12 -438.99)"/><path class="cls-8" d="M693.35,649c-.09-.06.76-1,1.54-2.79a12.27,12.27,0,0,0,.72-7.47l-.05-.25.46.09a14.51,14.51,0,0,0-2.6,6.92c-.2,1.91,0,3.1-.1,3.11a2.63,2.63,0,0,1-.19-.83,12.05,12.05,0,0,1-.08-2.31,14,14,0,0,1,2.55-7.2l.34-.47.12.56.06.27a11.9,11.9,0,0,1-.89,7.73,10.4,10.4,0,0,1-1.27,2C693.6,648.79,693.37,649,693.35,649Z" transform="translate(-562.12 -438.99)"/><path class="cls-8" d="M690.32,645.08a2.51,2.51,0,0,1-.88-.31,14.93,14.93,0,0,1-2.22-1.23,18.33,18.33,0,0,1-2.89-2.42,16.36,16.36,0,0,1-1.45-1.7,9.7,9.7,0,0,1-.68-1A1.65,1.65,0,0,1,682,637a.91.91,0,0,1,.65-.5,1.25,1.25,0,0,1,.73.09,5.46,5.46,0,0,1,1,.66,17.19,17.19,0,0,1,4.1,4.36,14.09,14.09,0,0,1,1.21,2.23,2.67,2.67,0,0,1,.3.89c-.09,0-.59-1.19-1.81-2.91a17.69,17.69,0,0,0-2.43-2.77,16.63,16.63,0,0,0-1.67-1.39,5.33,5.33,0,0,0-.93-.59c-.32-.14-.61-.08-.71.15a1.19,1.19,0,0,0,.16.92,8.47,8.47,0,0,0,.63.93,18.19,18.19,0,0,0,1.38,1.68,20,20,0,0,0,2.76,2.44C689.14,644.48,690.36,645,690.32,645.08Z" transform="translate(-562.12 -438.99)"/><path class="cls-8" d="M691.66,653.47a2,2,0,0,1-.72.25,8.76,8.76,0,0,1-2.09.18,9.66,9.66,0,0,1-6.36-2.73l-.32-.31.43-.12.68-.18a9.78,9.78,0,0,1,7.26,1.22,8.42,8.42,0,0,1,1.75,1.42,2.35,2.35,0,0,1,.5.67,19.85,19.85,0,0,0-2.44-1.78,10,10,0,0,0-7-1l-.64.18.1-.43a9.72,9.72,0,0,0,6,2.73A22.22,22.22,0,0,0,691.66,653.47Z" transform="translate(-562.12 -438.99)"/><path class="cls-8" d="M696.91,705.09s.26-.18.77-.4,1.26-.53,2.2-.85a43.83,43.83,0,0,1,15.29-2.36c1,0,1.79.09,2.34.15a3.46,3.46,0,0,1,.86.15,26.36,26.36,0,0,1-3.21.07,58.48,58.48,0,0,0-7.67.64,59.82,59.82,0,0,0-7.5,1.7C698.1,704.75,696.94,705.16,696.91,705.09Z" transform="translate(-562.12 -438.99)"/><path class="cls-8" d="M710.07,702.62a2.68,2.68,0,0,1-.28.83,9.83,9.83,0,0,1-1.23,2,11.81,11.81,0,0,1-6.5,4.29l-.26.07-.56.14.27-.51a13.94,13.94,0,0,1,5.27-5.52,11.32,11.32,0,0,1,2.1-1,2.53,2.53,0,0,1,.83-.2c0,.09-1.12.45-2.74,1.49a14.56,14.56,0,0,0-5,5.45l-.29-.38.25-.06a12.32,12.32,0,0,0,6.34-4A27.29,27.29,0,0,0,710.07,702.62Z" transform="translate(-562.12 -438.99)"/><path class="cls-8" d="M705.22,701.68c-.06.08-1.07-.78-3-1.74a18.86,18.86,0,0,0-3.43-1.35,16.47,16.47,0,0,0-2.12-.48,8.79,8.79,0,0,0-1.12-.14,1.16,1.16,0,0,0-.89.27c-.16.2-.08.47.19.7a5.31,5.31,0,0,0,.94.56,19.89,19.89,0,0,0,2,.87,18.36,18.36,0,0,0,3.57.91c2.08.32,3.41.21,3.41.31a3,3,0,0,1-.92.13,14.38,14.38,0,0,1-2.54-.07,17.32,17.32,0,0,1-5.74-1.69,5.67,5.67,0,0,1-1.06-.63,1.31,1.31,0,0,1-.42-.61.92.92,0,0,1,.16-.8,1.63,1.63,0,0,1,1.31-.47,10.62,10.62,0,0,1,1.2.15,17.21,17.21,0,0,1,2.17.53,17.42,17.42,0,0,1,3.46,1.49,14.49,14.49,0,0,1,2.11,1.42A2.84,2.84,0,0,1,705.22,701.68Z" transform="translate(-562.12 -438.99)"/><path class="cls-8" d="M713.31,699.09a21.51,21.51,0,0,0-1.2-2.52,9.73,9.73,0,0,0-5.15-4.13l.34-.29c0,.21.09.43.13.66a10,10,0,0,0,4.06,5.73,21,21,0,0,0,2.69,1.38,2.5,2.5,0,0,1-.82-.14,8.75,8.75,0,0,1-2.06-.93,9.77,9.77,0,0,1-4.37-5.92c0-.24-.1-.47-.14-.69l-.09-.43.42.14a9.55,9.55,0,0,1,5.3,4.44,7.75,7.75,0,0,1,.78,1.94A1.9,1.9,0,0,1,713.31,699.09Z" transform="translate(-562.12 -438.99)"/><path class="cls-8" d="M707.5,639.89a13.2,13.2,0,0,0,1-2.66,7.88,7.88,0,0,0-1.41-6.42l.4,0-.08.09a6.23,6.23,0,0,0-1.2,6.38,15.35,15.35,0,0,0,1.28,2.59,5.47,5.47,0,0,1-1.62-2.47,6.41,6.41,0,0,1-.49-3.21,6.78,6.78,0,0,1,1.64-3.64l.09-.1.2-.23.19.25a7.53,7.53,0,0,1,1.53,3.63,7.69,7.69,0,0,1-.18,3.2,6.61,6.61,0,0,1-.86,2C707.72,639.71,707.52,639.91,707.5,639.89Z" transform="translate(-562.12 -438.99)"/><path class="cls-8" d="M729.71,713.34a13.2,13.2,0,0,0,1-2.66,7.88,7.88,0,0,0-1.41-6.42l.4,0-.08.09a6.23,6.23,0,0,0-1.2,6.38,15.35,15.35,0,0,0,1.28,2.59,5.47,5.47,0,0,1-1.62-2.47,6.41,6.41,0,0,1-.49-3.21,6.78,6.78,0,0,1,1.64-3.64l.09-.1.2-.23.19.25a7.53,7.53,0,0,1,1.53,3.63,7.69,7.69,0,0,1-.18,3.2,6.61,6.61,0,0,1-.86,2C729.93,713.16,729.73,713.36,729.71,713.34Z" transform="translate(-562.12 -438.99)"/><path class="cls-8" d="M675.51,678.11c0-.09,1.54-.82,3.9-2.31a13.42,13.42,0,0,0,3.57-3.24,7.62,7.62,0,0,0,1.59-5.46c-.26-.2.35.26.28.22h-.18l-.2,0c-.13,0-.25,0-.38.06l-.75.17a10.68,10.68,0,0,0-1.41.5,10.48,10.48,0,0,0-2.43,1.47,10.35,10.35,0,0,0-2.9,3.8,14,14,0,0,0-1,4.36,3.76,3.76,0,0,1-.07-1.23,10,10,0,0,1,.74-3.27,10.21,10.21,0,0,1,2.93-4,10.84,10.84,0,0,1,2.52-1.57,10.49,10.49,0,0,1,1.49-.52c.25-.07.52-.14.78-.19l.4-.07.21,0h.2l.28.22a8,8,0,0,1-1.72,5.83,13.18,13.18,0,0,1-3.75,3.27,30.45,30.45,0,0,1-3,1.54A5.94,5.94,0,0,1,675.51,678.11Z" transform="translate(-562.12 -438.99)"/></g></svg>