<svg id="Capa_1" data-name="Capa 1" xmlns="http://www.w3.org/2000/svg" xmlns:xlink="http://www.w3.org/1999/xlink" viewBox="0 0 541.33 541.33"><defs><style>.cls-1{fill:url(#linear-gradient);}.cls-2{fill:#e5e5e5;}.cls-3{fill:#f5f5f5;}</style><linearGradient id="linear-gradient" x1="664.14" y1="-122.81" x2="281.36" y2="259.96" gradientUnits="userSpaceOnUse"><stop offset="0" stop-color="#f05655"/><stop offset="0.5" stop-color="#6e4263"/><stop offset="1" stop-color="#31485e"/></linearGradient></defs><circle class="cls-1" cx="270.66" cy="270.66" r="270.66"/><polygon class="cls-2" points="351.07 296.38 344.75 300.75 344.75 351.9 351.07 356.27 394.28 386.22 394.28 266.43 351.07 296.38"/><rect class="cls-3" x="152.66" y="259.11" width="192.09" height="134.42" rx="11.5"/><path class="cls-3" d="M797.2,280.42A38.24,38.24,0,1,1,759,242.18,38.25,38.25,0,0,1,797.2,280.42Z" transform="translate(-464.25 -76.97)"/><path class="cls-2" d="M759,224.77a55.66,55.66,0,1,0,55.66,55.65A55.65,55.65,0,0,0,759,224.77Zm-30.83,71a15.22,15.22,0,1,1,15.22-15.22A15.22,15.22,0,0,1,728.13,295.74Zm30.74-61.36a15.22,15.22,0,1,1-15.23,15.22A15.22,15.22,0,0,1,758.87,234.38Zm.18,92.09a15.22,15.22,0,1,1,15.23-15.22A15.22,15.22,0,0,1,759.05,326.47Zm30.74-30.92A15.22,15.22,0,1,1,805,280.33,15.23,15.23,0,0,1,789.79,295.55Z" transform="translate(-464.25 -76.97)"/><circle class="cls-3" cx="657.3" cy="290.09" r="29.23" transform="translate(-239.77 786.58) rotate(-76.77)"/><path class="cls-2" d="M657.3,244.09a46,46,0,1,0,46,46A46,46,0,0,0,657.3,244.09Zm-25.48,58.66a12.58,12.58,0,1,1,12.57-12.58A12.58,12.58,0,0,1,631.82,302.75ZM657.22,252a12.58,12.58,0,1,1-12.58,12.57A12.57,12.57,0,0,1,657.22,252Zm.16,76.1A12.58,12.58,0,1,1,670,315.56,12.58,12.58,0,0,1,657.38,328.14Zm25.39-25.56A12.58,12.58,0,1,1,695.35,290,12.57,12.57,0,0,1,682.77,302.58Z" transform="translate(-464.25 -76.97)"/><rect class="cls-2" x="175.65" y="287.29" width="63.39" height="83.09"/><rect class="cls-2" x="263.02" y="304.8" width="63.38" height="48.06"/></svg>