<svg id="Layer_1" data-name="Layer 1" xmlns="http://www.w3.org/2000/svg" xmlns:xlink="http://www.w3.org/1999/xlink" viewBox="0 0 110.67 110.67"><defs><style>.cls-1{fill:url(#linear-gradient);}.cls-2{fill:#f9f9f9;}.cls-3{fill:#f1f1f1;}.cls-4{fill:none;}</style><linearGradient id="linear-gradient" x1="106.33" y1="4.34" x2="28.07" y2="82.59" gradientUnits="userSpaceOnUse"><stop offset="0" stop-color="#f05454"/><stop offset="0.5" stop-color="#6d4163"/><stop offset="1" stop-color="#30475e"/></linearGradient></defs><circle class="cls-1" cx="55.33" cy="55.33" r="55.33"/><path class="cls-2" d="M267.79,212.74s10.54,6.62,1.41,15.21c14.57-6.09,9.42-25,9.42-25Z" transform="translate(-200.38 -155.25)"/><path class="cls-3" d="M266.7,221.43c0,7.32-8.77,13.26-19.58,13.26s-19.57-5.94-19.57-13.26,8.76-13.27,19.57-13.27S266.7,214.1,266.7,221.43Z" transform="translate(-200.38 -155.25)"/><path class="cls-3" d="M242.6,232s-7.06,7.27,1.82,12.31c-12.7-2-12.28-18-12.28-18Z" transform="translate(-200.38 -155.25)"/><rect class="cls-4" x="44.76" y="38.13" width="5.22" height="5.64"/><rect class="cls-4" x="68.56" y="38.13" width="5.22" height="5.64"/><rect class="cls-4" x="56.66" y="38.13" width="2.68" height="5.64"/><path class="cls-2" d="M257,199v-5.64h2.68V176.84c-13.34,0-24.16,8.76-24.16,19.57S246.38,216,259.72,216V199Zm-6.68,0h-5.22v-5.64h5.22Z" transform="translate(-200.38 -155.25)"/><path class="cls-2" d="M259.72,176.84v16.54h2.54V199h-2.54v17c13.34,0,24.16-8.77,24.16-19.58S273.06,176.84,259.72,176.84ZM274.16,199h-5.22v-5.64h5.22Z" transform="translate(-200.38 -155.25)"/></svg>