<svg id="Layer_1" data-name="Layer 1" xmlns="http://www.w3.org/2000/svg" xmlns:xlink="http://www.w3.org/1999/xlink" viewBox="0 0 110.67 110.67"><defs><style>.cls-1{fill:url(#linear-gradient);}.cls-2{fill:#f5f5f5;}.cls-3{fill:#f1f1f1;}.cls-4{fill:#41525b;}</style><linearGradient id="linear-gradient" x1="122.53" y1="-11.86" x2="44.27" y2="66.39" gradientUnits="userSpaceOnUse"><stop offset="0" stop-color="#f05454"/><stop offset="0.5" stop-color="#6d4163"/><stop offset="1" stop-color="#30475e"/></linearGradient></defs><circle class="cls-1" cx="55.33" cy="55.33" r="55.33"/><path class="cls-2" d="M249.91,228.05q-.49-.13-1-.3Q249.42,227.92,249.91,228.05Z" transform="translate(-200.7 -153.81)"/><path class="cls-2" d="M264.55,178.92v7.21H262v-8.2a10.05,10.05,0,0,0-2.21-.28h0v8.48h-2.59v-8.49h-2.22v8.49h-2.59v-8.48a10.7,10.7,0,0,0-2.22.28v8.2h-2.59v-7.21a10.7,10.7,0,0,0-5.66,9.45v29.31a10.72,10.72,0,0,0,6.81,10,8.51,8.51,0,0,1-1.15-.53v-7.21h2.59v8.19a10.7,10.7,0,0,0,2.22.29v-8.48h2.59v8.49h2.22v-8.49h2.59v8.48a10.7,10.7,0,0,0,2.21-.29v-8.19h2.6v7.21a10.45,10.45,0,0,1-1.18.54,10.73,10.73,0,0,0,6.83-10v-.09h-10V215h10v-2.67h-10v-2.63h10V207h-10v-2.62h10v-2.68h-10v-2.62h10v-2.68h-10v-2.62h10v-2.68h-10v-2.62h10v-.09A10.69,10.69,0,0,0,264.55,178.92Zm-12.67,38.67h-10V215h10Zm0-5.3h-10v-2.63h10Zm0-5.31h-10v-2.62h10Zm0-5.3h-10v-2.62h10Zm0-5.3h-10v-2.62h10Zm0-5.3h-10v-2.62h10Z" transform="translate(-200.7 -153.81)"/><path class="cls-3" d="M263.17,227.73a8.79,8.79,0,0,1-1,.32A8.79,8.79,0,0,0,263.17,227.73Z" transform="translate(-200.7 -153.81)"/><path class="cls-3" d="M264.55,178.92v7.21H262v-8.2a10.05,10.05,0,0,0-2.21-.28h0v8.48h-2.59v-8.49H256V228.4h1.11v-8.49h2.59v8.48a10.7,10.7,0,0,0,2.21-.29v-8.19h2.6v7.21a10.45,10.45,0,0,1-1.18.54,10.73,10.73,0,0,0,6.83-10v-.09h-10V215h10v-2.67h-10v-2.63h10V207h-10v-2.62h10v-2.68h-10v-2.62h10v-2.68h-10v-2.62h10v-2.68h-10v-2.62h10v-.09A10.69,10.69,0,0,0,264.55,178.92Z" transform="translate(-200.7 -153.81)"/><path class="cls-4" d="M259.74,177.65h0Z" transform="translate(-200.7 -153.81)"/><path class="cls-4" d="M263.37,227.66l-.2.07Z" transform="translate(-200.7 -153.81)"/><path class="cls-4" d="M262,228.11a1.06,1.06,0,0,0,.19-.06l-.19,0Z" transform="translate(-200.7 -153.81)"/><path class="cls-4" d="M259.74,228.4h0Z" transform="translate(-200.7 -153.81)"/><rect class="cls-2" x="53.55" y="74.59" width="3.57" height="10"/><rect class="cls-2" x="45.1" y="82.37" width="20.47" height="4.47"/><path class="cls-2" d="M272.34,199.06v18.62a12.89,12.89,0,0,1-12.87,12.87H252.6a12.89,12.89,0,0,1-12.87-12.87V199.06h-2.86v18.62a15.75,15.75,0,0,0,15.73,15.73h6.87a15.75,15.75,0,0,0,15.73-15.73V199.06Z" transform="translate(-200.7 -153.81)"/><rect class="cls-2" x="37.33" y="48.23" width="3.85" height="2.14"/><rect class="cls-2" x="69.5" y="48.23" width="3.57" height="2.14"/></svg>