<svg id="Illustration" xmlns="http://www.w3.org/2000/svg" xmlns:xlink="http://www.w3.org/1999/xlink" viewBox="0 0 2589.55 2589.55"><defs><style>.cls-1{fill:url(#linear-gradient);}.cls-2{fill:#f7fafb;}.cls-3,.cls-4,.cls-5,.cls-6,.cls-7,.cls-8{fill:none;stroke-miterlimit:10;}.cls-3,.cls-8{stroke:#8e8e8e;}.cls-3,.cls-4,.cls-8{stroke-linecap:round;}.cls-3,.cls-4{stroke-width:8px;}.cls-4{stroke:#bababa;}.cls-5,.cls-6,.cls-7{stroke-width:3px;}.cls-5{stroke:url(#linear-gradient-2);}.cls-6{stroke:url(#linear-gradient-3);}.cls-7{stroke:url(#linear-gradient-4);}.cls-8{stroke-width:12px;}.cls-9{fill:#181818;opacity:0.03;}</style><linearGradient id="linear-gradient" x1="2867.07" y1="-277.52" x2="1035.98" y2="1553.57" gradientUnits="userSpaceOnUse"><stop offset="0" stop-color="#f05454"/><stop offset="0.5" stop-color="#6d4163"/><stop offset="1" stop-color="#30475e"/></linearGradient><linearGradient id="linear-gradient-2" x1="2098.71" y1="1511.56" x2="2264.45" y2="1511.56" gradientUnits="userSpaceOnUse"><stop offset="0.5" stop-color="#6d4163"/><stop offset="1" stop-color="#30475e"/></linearGradient><linearGradient id="linear-gradient-3" x1="2098.71" y1="1796.18" x2="2264.45" y2="1796.18" xlink:href="#linear-gradient-2"/><linearGradient id="linear-gradient-4" x1="2098.71" y1="2080.8" x2="2264.45" y2="2080.8" xlink:href="#linear-gradient-2"/></defs><circle class="cls-1" cx="1294.77" cy="1294.77" r="1294.77"/><rect class="cls-2" x="773.4" y="540.04" width="1042.76" height="1421.57"/><line class="cls-3" x1="859.63" y1="825.74" x2="1203.91" y2="825.74"/><line class="cls-3" x1="859.63" y1="875.43" x2="1432.75" y2="875.43"/><line class="cls-3" x1="859.63" y1="925.11" x2="1359.68" y2="925.11"/><line class="cls-3" x1="859.63" y1="974.8" x2="1399.14" y2="974.8"/><rect class="cls-4" x="1536.41" y="825.74" width="149.06" height="149.06"/><path class="cls-5" d="M2099.43,1524.1s31.2,17.2,51.46,41.43c41.21-51.31,62.49-78.36,112.78-109" transform="translate(-520.8 -640.42)"/><line class="cls-3" x1="859.63" y1="1110.35" x2="1203.91" y2="1110.35"/><line class="cls-3" x1="859.63" y1="1160.04" x2="1432.75" y2="1160.04"/><line class="cls-3" x1="859.63" y1="1209.73" x2="1359.68" y2="1209.73"/><line class="cls-3" x1="859.63" y1="1259.42" x2="1399.14" y2="1259.42"/><rect class="cls-4" x="1536.41" y="1110.35" width="149.06" height="149.06"/><path class="cls-6" d="M2099.43,1808.72s31.2,17.2,51.46,41.43c41.21-51.31,62.49-78.36,112.78-109" transform="translate(-520.8 -640.42)"/><line class="cls-3" x1="859.63" y1="1394.97" x2="1203.91" y2="1394.97"/><line class="cls-3" x1="859.63" y1="1444.66" x2="1432.75" y2="1444.66"/><line class="cls-3" x1="859.63" y1="1494.35" x2="1359.68" y2="1494.35"/><line class="cls-3" x1="859.63" y1="1544.03" x2="1399.14" y2="1544.03"/><rect class="cls-4" x="1536.41" y="1394.97" width="149.06" height="149.06"/><path class="cls-7" d="M2099.43,2093.34s31.2,17.19,51.46,41.43c41.21-51.31,62.49-78.37,112.78-109" transform="translate(-520.8 -640.42)"/><line class="cls-3" x1="859.63" y1="1679.59" x2="1203.91" y2="1679.59"/><line class="cls-3" x1="859.63" y1="1729.28" x2="1432.75" y2="1729.28"/><line class="cls-3" x1="859.63" y1="1778.96" x2="1359.68" y2="1778.96"/><line class="cls-3" x1="859.63" y1="1828.65" x2="1399.14" y2="1828.65"/><rect class="cls-4" x="1536.41" y="1679.59" width="149.06" height="149.06"/><line class="cls-8" x1="1072.85" y1="690.21" x2="1528.91" y2="690.21"/><path class="cls-9" d="M2355.51,2695.68H1275.64a66,66,0,0,1-66-66l1211.79-1455v1455A66,66,0,0,1,2355.51,2695.68Z" transform="translate(-520.8 -640.42)"/></svg>