<svg id="Illustration" xmlns="http://www.w3.org/2000/svg" xmlns:xlink="http://www.w3.org/1999/xlink" viewBox="0 0 2589.55 2589.55"><defs><style>.cls-1{fill:url(#linear-gradient);}.cls-2{fill:none;}.cls-3{fill:#f5f5f5;}.cls-4{fill:#e9e9e9;}.cls-5{fill:#e1e1e1;}.cls-6{fill:#bababa;}</style><linearGradient id="linear-gradient" x1="2867.07" y1="-277.52" x2="1035.98" y2="1553.57" gradientUnits="userSpaceOnUse"><stop offset="0" stop-color="#f05454"/><stop offset="0.5" stop-color="#6d4163"/><stop offset="1" stop-color="#30475e"/></linearGradient></defs><circle class="cls-1" cx="1294.77" cy="1294.77" r="1294.77"/><polygon class="cls-2" points="1275.31 608.67 887.5 601.49 887.16 709.33 1275.14 713.36 1275.31 608.67"/><polygon class="cls-2" points="994.7 1546.55 1119.5 1539.73 1119.8 1404.48 995.07 1409.93 994.7 1546.55"/><polygon class="cls-2" points="996.2 996.83 1120.71 995.5 1121.02 860.83 996.57 860.81 996.2 996.83"/><path class="cls-3" d="M1670,1143.4l-317.65-7.59L1348,2430.14l514.23-37.93L2204.28,2367V1156.17Zm-263.78,62.06,387.82,7.18-.17,104.69-388-4Zm232,938.24-124.8,6.82.37-136.62,124.73-5.45Zm.61-272.41-124.66,4.07.37-136.32,124.59-2.71Zm.61-271.82-124.52,1.33.37-136h124.45ZM2117,2053.13l-438.85,21.16.14-67.44L2117.06,1988Zm.09-262.29-438.38,11.89.14-67.29,438.26-9.6Zm-437.81-259.09.14-67.15,437.78-.37,0,64.86" transform="translate(-518.69 -603.97)"/><polygon class="cls-2" points="1275.32 608.67 1275.31 614.9 887.49 605.63 887.5 601.49 1275.32 608.67"/><polygon class="cls-4" points="829.26 1826.17 833.38 604.34 803.75 603.63 799.14 1897.96 1655.94 1834.77 1655.94 1765.17 1343.5 1788.24 829.26 1826.17"/><polygon class="cls-3" points="1685.59 552.2 1151.28 539.43 833.63 531.84 833.38 604.34 887.49 605.63 887.5 601.49 1275.31 608.67 1275.3 614.9 1655.94 623.99 1655.94 1765.17 1685.59 1762.99 1685.59 552.2"/><path class="cls-3" d="M1794,1218.87l-.16,98.46-30.47-.32-.12,72.11-388-4,.34-107.85,30.36.56.21-68.21-54.1-1.29L1348,2430.14l514.23-37.93,312.44-23.07V1228ZM1475.94,1527.6h39.15l.17-62.82h124.45l-.3,134.68-39.18.42-.14,62.4-124.52,1.33Zm162.25,616.1-39.18,2.14-.14,60.68-124.8,6.82.37-136.62,39.16-1.71.16-61.11,124.73-5.45Zm-38.57-271.13-.14,61.54-124.66,4.07.37-136.32,39.15-.85.17-62,124.59-2.71-.3,135ZM2117,2053.13l-39.3,1.89,0,60.93-438.85,21.16.14-67.44,39.19-1.68.13-61.14L2117.06,1988Zm.09-262.29-39.3,1.06,0,61.75-438.38,11.9.14-67.29,39.2-.86.12-62,438.26-9.6Zm.09-261.75-39.3.24,0,62.58-437.9,2.66.14-67.15,39.19,0,.13-62.79,437.78-.37Z" transform="translate(-518.69 -603.97)"/><path class="cls-3" d="M1698.12,1497.89c4.5,5.5,12.34,5.15,18.38,2.71,7.22-2.9,12.21-9.17,18.82-13.06,13.17-7.74,25.59,2.61,36.67,9.2,5.43,3.23,11.28,6.12,17.68,6.61,6.69.5,13-2.14,18.6-5.53,5.9-3.54,11.31-7.94,17.56-10.9a23.26,23.26,0,0,1,18.8-.93c11.9,4.55,20.81,16.13,33.93,17.67,7.79.91,14.27-3.12,20.35-7.45s15-10.49,22.47-5.84c3.29,2.06,4.77,5.9,6.69,9.09a17.56,17.56,0,0,0,7.45,7.21c6.37,3,13.92,1.83,20.33-.43,8-2.82,14.92-8,23-10.83,4.14-1.44,8.63-2.29,13-1.27,3.88.9,7.08,3.24,10.27,5.5,3,2.14,6.15,4.34,9.8,5.19a16.15,16.15,0,0,0,9.59-.8c6.56-2.55,11.56-7.94,18.13-10.44,8.5-3.24,16.52,1.59,23.79,5.64,6.25,3.47,13.31,6.55,20.64,5.35a13.77,13.77,0,0,0,8.3-4.52c1.27-1.44-.84-3.57-2.12-2.12-5,5.76-13.69,4.17-19.94,1.47-7.51-3.25-14.08-8.81-22.45-9.8-7.53-.9-13.59,3.13-19.55,7.14s-12.13,7.46-19.13,3.86c-3.34-1.72-6.21-4.19-9.37-6.19a22.49,22.49,0,0,0-10.43-3.67c-8.63-.66-16.86,3.85-24.19,7.82-6.62,3.58-13.67,7-21.38,6.9a15.28,15.28,0,0,1-9.42-3c-3-2.42-4.45-6.11-6.44-9.31a14.47,14.47,0,0,0-7.9-6.64,17.93,17.93,0,0,0-10.43.39c-7.86,2.43-13.45,8.75-20.8,12.15-13.28,6.15-25-5.57-35.53-12-5.24-3.19-11.09-5.82-17.35-5.69-6.52.13-12.46,3.13-17.86,6.54-5.74,3.64-11.19,8-17.52,10.6a24.34,24.34,0,0,1-18.86-.14c-11.63-4.65-21.11-15.12-34-16.56-7.32-.81-13.56,2.52-19.15,6.91-5.93,4.66-11.64,10.33-19.65,10.63a10.09,10.09,0,0,1-8.61-3.54c-1.22-1.49-3.33.64-2.12,2.12Z" transform="translate(-518.69 -603.97)"/><path class="cls-3" d="M1697.13,1765.36c6.38,9.69,18.58,11.9,29.38,10.52,13.84-1.77,25.74-9.89,39.23-13a44.71,44.71,0,0,1,21.35.6c6.78,1.76,13.27,4.46,19.88,6.75s13.16,4.11,20,4.31a60.63,60.63,0,0,0,19.48-3.07c13-4,25.16-10.62,38.66-12.76,13.91-2.2,27.16,2.48,40,7.38,12.66,4.85,25.66,9.94,39.49,9,14.06-.92,27-6.85,40.27-11.16a84.32,84.32,0,0,1,20.74-4.47c8-.49,16,.87,24,1.88,12.47,1.59,26.53,1.94,37-6.29a24.78,24.78,0,0,0,5.64-6.31c1-1.64-1.56-3.15-2.59-1.52-6.85,10.9-21.18,12.79-33,11.88-7.82-.61-15.54-2.17-23.38-2.62a68.86,68.86,0,0,0-21.1,2.18c-13.36,3.39-25.88,9.57-39.42,12.31a56,56,0,0,1-20.36.5,107.49,107.49,0,0,1-19.34-5.59c-12.26-4.55-24.53-10.1-37.79-10.76s-25.84,4.59-38.06,9.32c-12.6,4.87-25.39,8.91-39,5.93-13.22-2.91-25.29-10-38.88-11.39-14.54-1.53-27.38,5.66-40.57,10.54-10.32,3.81-23.28,6.05-33.23-.06a18.86,18.86,0,0,1-5.86-5.7c-1.06-1.61-3.66-.11-2.59,1.51Z" transform="translate(-518.69 -603.97)"/><path class="cls-5" d="M2204.28,2553.24q30.9,13.74,61.8,0V1697.55h-61.8Z" transform="translate(-518.69 -603.97)"/><path class="cls-6" d="M2247.07,2559.09a70.27,70.27,0,0,1-23.24.09V1697.55h23.24Z" transform="translate(-518.69 -603.97)"/><path class="cls-3" d="M2204.28,1697.55c20.37,11.9,41,12,61.8,0l-28.89-193.7a2,2,0,0,0-4,0Z" transform="translate(-518.69 -603.97)"/><path class="cls-6" d="M2237.19,1503.85l11.23,75.29a53.83,53.83,0,0,1-26.48,0l11.23-75.32A2,2,0,0,1,2237.19,1503.85Z" transform="translate(-518.69 -603.97)"/></svg>