<svg id="Object" xmlns="http://www.w3.org/2000/svg" xmlns:xlink="http://www.w3.org/1999/xlink" viewBox="0 0 963 963"><defs><style>.cls-1{stroke:#000;stroke-miterlimit:10;fill:url(#linear-gradient);}.cls-2{fill:#f5f5f5;}</style><linearGradient id="linear-gradient" x1="902.29" y1="-18.31" x2="282.71" y2="717.62" gradientUnits="userSpaceOnUse"><stop offset="0" stop-color="#f05454"/><stop offset="0.11" stop-color="#d55057"/><stop offset="0.29" stop-color="#b04b5b"/><stop offset="0.48" stop-color="#93465f"/><stop offset="0.66" stop-color="#7e4361"/><stop offset="0.83" stop-color="#714263"/><stop offset="1" stop-color="#6d4163"/></linearGradient></defs><circle class="cls-1" cx="481.5" cy="481.5" r="481"/><path class="cls-2" d="M374.61,691.07a2.8,2.8,0,0,0-1.86,1.82l-23.83,72.9-6,18.4a2.81,2.81,0,0,0,4.07,3.32l16.88-9.66,66.91-38.26a2.83,2.83,0,0,0,.37-4.65l-53.94-43.37A2.82,2.82,0,0,0,374.61,691.07Z" transform="translate(-90.75 -69.25)"/><path class="cls-2" d="M439.13,731.53c38.1-33.85,84-81.9,131.31-138.42L484.17,523.7c-45.09,58.35-82.14,113.5-107,158Z" transform="translate(-90.75 -69.25)"/><path class="cls-2" d="M652.55,313.51l-160.82,200A7.5,7.5,0,0,0,492.87,524l75.39,60.64a7.51,7.51,0,0,0,10.55-1.14L804.75,302.58a7.5,7.5,0,0,0-6.08-12.2l-127.38,4a7.48,7.48,0,0,0-5.62,2.79l-3.35,4.17.42.33-9.8,12.17Z" transform="translate(-90.75 -69.25)"/><polygon class="cls-2" points="545.96 211.5 411 379.35 425.08 390.66 550.26 234.98 561.8 244.26 562.19 244.59 571.99 232.42 571.57 232.09 560.03 222.81 560.05 222.81 545.96 211.5"/><path class="cls-2" d="M338.52,799.09a10.83,10.83,0,0,0,0,21.66H806a10.83,10.83,0,0,0,0-21.66Z" transform="translate(-90.75 -69.25)"/></svg>