<svg id="Layer_1" data-name="Layer 1" xmlns="http://www.w3.org/2000/svg" xmlns:xlink="http://www.w3.org/1999/xlink" viewBox="0 0 1068 524.73"><defs><style>.cls-1{fill:none;stroke-miterlimit:10;stroke-width:8px;stroke:url(#linear-gradient);}</style><linearGradient id="linear-gradient" x1="102" y1="536.37" x2="1170" y2="536.37" gradientUnits="userSpaceOnUse"><stop offset="0" stop-color="#213140"/><stop offset="0.42" stop-color="#30475e"/><stop offset="0.73" stop-color="#6d4163"/><stop offset="1" stop-color="#f05454"/></linearGradient></defs><path class="cls-1" d="M127.8,612.47m16.72,0h68a50,50,0,0,0,50-50V338.28a50,50,0,0,0-50-50H166.28a50,50,0,0,0-50,50V602m0,.19a10.28,10.28,0,1,0,10.28,10.28A10.28,10.28,0,0,0,116.28,602.19ZM310,450.38V612.47m-.09-199.26a10.28,10.28,0,1,0,10.28,10.28A10.28,10.28,0,0,0,309.89,413.21Zm108.6,38.12-11.28,0a50,50,0,0,0-50.13,50.08l.1,60.7a50,50,0,0,0,50,49.92h10.88m46.34,40.8H987m-568.51,0H326.21a50,50,0,0,0-50,50v41.93a50,50,0,0,0,50,50h55a50,50,0,0,0,50-50V457.89M997.74,642.52A10.28,10.28,0,1,0,1008,652.8,10.28,10.28,0,0,0,997.74,642.52ZM478.4,450.38V612.47m.4-199.26a10.28,10.28,0,1,0,10.28,10.28A10.28,10.28,0,0,0,478.8,413.21ZM528,299V562.47a50,50,0,0,0,50,50h46.28a50,50,0,0,0,50-50v-61.3a50,50,0,0,0-50-50H549.31m62.37-.17h0a42.8,42.8,0,0,0,42.8-42.8V332.73A42.8,42.8,0,0,0,610.75,290l-61.44,1.33M528,278a10.28,10.28,0,1,0,10.28,10.28A10.28,10.28,0,0,0,528,278ZM720.45,450.38V575.22A36.78,36.78,0,0,0,757.23,612h0A36.78,36.78,0,0,0,794,575.22V451.33m108.45,0H881.18a39.53,39.53,0,0,0-39.54,39.53v81.6A39.54,39.54,0,0,0,881.18,612h0a39.54,39.54,0,0,0,39.54-39.54V288.28m106,163.05h-21.27a39.53,39.53,0,0,0-39.53,39.53v81.6A39.53,39.53,0,0,0,1005.41,612h0A39.53,39.53,0,0,0,1045,572.46V288.28m47.12,162.89V562a50,50,0,0,0,50,50h10.8M1051.74,794.73H1116a50,50,0,0,0,50-50V451.17M1091,437h-45V626h45Z" transform="translate(-102 -274)"/></svg>