<svg id="upload-make" xmlns="http://www.w3.org/2000/svg" xmlns:xlink="http://www.w3.org/1999/xlink" viewBox="0 0 212.77 225.23"><defs><style>.cls-1{opacity:0.5;fill:url(#linear-gradient);}.cls-2{fill:url(#linear-gradient-2);}</style><linearGradient id="linear-gradient" x1="1067.08" y1="544.42" x2="1248.08" y2="467.56" gradientTransform="translate(754.41 1709.26) rotate(-93.14)" gradientUnits="userSpaceOnUse"><stop offset="0" stop-color="#31475e"/><stop offset="1" stop-color="#6d4163"/></linearGradient><linearGradient id="linear-gradient-2" x1="1087.32" y1="549.56" x2="1268.32" y2="472.7" gradientTransform="matrix(1, 0, 0, 1, 0, 0)" xlink:href="#linear-gradient"/></defs><g id="make"><path class="cls-1" d="M1074.33,534.19c.71-7.76,5.17-13.65,8.05-17.46,6.2-8.18,10.8-8.78,23.09-17.3,20.5-14.21,33.81-30.65,39-37.19,2.88-3.61,2.25-3.1,5.61-7.32,9.52-12,18.11-22.75,28.42-29.6,13-8.67,26.48-9.36,37.5-10.07a97.77,97.77,0,0,1,35.28,4.07c16.1,5,23.12,10.21,25.73,12.61,3.87,3.55,8.4,7.71,8.75,13.54.48,7.69-6.64,13-12.93,19.74-6.77,7.24-17.35,20-20.11,35.15-2.32,12.74,1.66,24.28,5.44,35.26,4.5,13,7.77,14.06,10.42,25.46,2,8.63,4.49,19.31-.36,30.07-7.44,16.55-26.65,20.94-29.85,21.67-15.91,3.63-29-2.2-33.28-4.18-13.37-6.2-12.21-12.27-24-17.71-14.18-6.55-20.07.29-41.21-2.75a90.83,90.83,0,0,1-41-16.78C1091.45,565.79,1072.74,551.71,1074.33,534.19Z" transform="translate(-1074.24 -388.75)"/><path class="cls-2" d="M1176,389c7.71,1.13,13.35,5.91,17,9,7.83,6.63,8.17,11.26,16,24,13.07,21.25,28.76,35.43,35,41,3.45,3.07,3,2.41,7,6,11.42,10.17,21.72,19.33,28,30,7.94,13.49,7.89,27,8,38a97.77,97.77,0,0,1-6,35c-5.92,15.8-11.46,22.53-14,25-3.76,3.67-8.16,8-14,8-7.71,0-12.62-7.35-19-14-6.86-7.16-19.06-18.42-34-22-12.6-3-24.34.32-35.5,3.5-13.27,3.78-14.47,7-26,9-8.72,1.53-19.52,3.42-30-2-16.12-8.34-19.45-27.76-20-31-2.76-16.09,3.79-28.84,6-33,6.91-13,12.92-11.52,19-23,7.31-13.8.8-20.06,5-41a90.93,90.93,0,0,1,19-40C1143.51,404.36,1158.6,386.45,1176,389Z" transform="translate(-1074.24 -388.75)"/></g></svg>