<svg id="home" xmlns="http://www.w3.org/2000/svg" xmlns:xlink="http://www.w3.org/1999/xlink" viewBox="0 0 1129.77 1080"><defs><style>.cls-1{clip-path:url(#clip-path);}.cls-2{fill:url(#New_Gradient_Swatch_1);}.cls-3{fill:url(#New_Gradient_Swatch_1-2);}</style><clipPath id="clip-path" transform="translate(-790.23)"/><linearGradient id="New_Gradient_Swatch_1" x1="-540.45" y1="2124.58" x2="1704.55" y2="-120.43" gradientUnits="userSpaceOnUse"><stop offset="0" stop-color="#213140"/><stop offset="0.45" stop-color="#31475e"/><stop offset="0.76" stop-color="#6d4163"/><stop offset="1" stop-color="#f05555"/></linearGradient><linearGradient id="New_Gradient_Swatch_1-2" x1="-5.42" y1="2659.61" x2="2239.58" y2="414.6" xlink:href="#New_Gradient_Swatch_1"/></defs><g class="cls-1"><path class="cls-2" d="M1023,204c123.31,18.76,182.2-44.57,291-64,185-33,342.22,83.7,389,116,24.21,16.71,165.67,107,217,202V0H790.23C798,34.92,813.78,75.15,845,112,906.87,185,990.63,199.08,1023,204Z" transform="translate(-790.23)"/><path class="cls-3" d="M1763,717c-44.86,90.11,4.5,134.52-40,201-35.23,52.63-85.31,53.4-294,107-88.19,22.65-151.34,39-200.63,55H1920V575.66C1884.67,618,1808.14,626.32,1763,717Z" transform="translate(-790.23)"/></g></svg>