<svg id="student_panel" data-name="student/panel" xmlns="http://www.w3.org/2000/svg" viewBox="0 0 1920.5 1091"><defs><style>.cls-1{fill:none;stroke:#714264;stroke-miterlimit:10;}.cls-2{fill:#f5f5f5;}</style></defs><polyline class="cls-1" points="877.5 305.5 877.5 321.5 893.5 321.5 894.5 321.5"/><polyline class="cls-1" points="888.5 315.5 894.5 321.5 888.5 327.5"/><path class="cls-2" d="M1920,541V812l.5-.5V541Z"/><path class="cls-2" d="M1920,541V812c-29.06,28-61,21.68-116,43-25.34,9.82-43.67,15.85-61,32a128.82,128.82,0,0,0-23,29c-22.07,35.75-58,60.93-98,89-67.69,47.47-153,53.69-227,74-13.93,3.83-26.26,7.83-37.35,12H0V0H774.86C787.67,4.85,802.28,10.46,819,17c46.35,18.13,69.79,27.35,83,35,66.9,38.73,68.16,79,124,132,64.28,61.05,139.12,80.4,184,92,35.89,9.28,102.57,22,182,12,57.17-7.21,126-26.85,144-32,36.74-10.49,70.83-22.09,121-23,48.07-.88,66.5,8.86,72,12,43.11,24.59,52.39,78.62,54,89,6.22,40-10.76,47.33-5,92,2.31,17.89,6.89,53.45,34,81C1848.57,544.16,1901.6,541.82,1920,541Z"/></svg>