<svg id="faq_home" data-name="faq/home" xmlns="http://www.w3.org/2000/svg" xmlns:xlink="http://www.w3.org/1999/xlink" viewBox="0 0 982.73 773.64"><defs><style>.cls-1{opacity:0.5;fill:url(#linear-gradient);}.cls-2{fill:url(#linear-gradient-2);}</style><linearGradient id="linear-gradient" x1="449.11" y1="668.64" x2="1439.61" y2="668.64" gradientTransform="translate(-76.6 58.1) rotate(-10.65)" gradientUnits="userSpaceOnUse"><stop offset="0" stop-color="#31475e"/><stop offset="1" stop-color="#6d4163"/></linearGradient><linearGradient id="linear-gradient-2" x1="495.23" y1="540.7" x2="1454.88" y2="540.7" gradientTransform="matrix(1, 0, 0, 1, 0, 0)" xlink:href="#linear-gradient"/></defs><path class="cls-1" d="M791.19,198.46C870,171.82,916.86,262.4,1112.91,359.11c217.87,107.46,341.89,85.31,362.39,163,19.68,74.63-73.53,175-159.49,221-113.77,60.86-167.6,1.2-301,56.59C876.27,857.3,877,945.53,782.49,954c-124.79,11.2-277.1-129.07-279.9-259-1.41-65.22,36-75.72,134.59-246.46C741.49,268,735.72,217.2,791.19,198.46Z" transform="translate(-495.23 -181)"/><path class="cls-2" d="M861.27,181.91c79.82-11.25,108.21,83.38,277.56,210.57,188.2,141.33,310.26,142.45,315.86,220.14,5.38,74.58-101.34,153.46-191.43,181.85-119.22,37.59-159.8-28.86-296.71,0C824.3,824.46,809.2,908.61,717.7,899.76,596.87,888.08,477,727.25,497.55,603.05c10.34-62.36,47.83-65.66,172.29-210.57C801.5,239.17,805.09,189.82,861.27,181.91Z" transform="translate(-495.23 -181)"/></svg>