<svg id="Layer_1" data-name="Layer 1" xmlns="http://www.w3.org/2000/svg" xmlns:xlink="http://www.w3.org/1999/xlink" viewBox="0 0 2849.84 4105.03"><defs><style>.cls-1{fill:none;}.cls-2{clip-path:url(#clip-path);}.cls-3{fill:url(#linear-gradient);}</style><clipPath id="clip-path" transform="translate(120.12 452.29)"><rect class="cls-1" width="1920" height="4320"/></clipPath><linearGradient id="linear-gradient" x1="281.12" y1="2946.15" x2="2526.13" y2="701.14" gradientUnits="userSpaceOnUse"><stop offset="0" stop-color="#213140"/><stop offset="0.45" stop-color="#31475e"/><stop offset="0.76" stop-color="#6d4163"/><stop offset="1" stop-color="#f05555"/></linearGradient></defs><g class="cls-2"><path class="cls-3" d="M784-87c-1.8,22.63-6.92,118.82,61,199,61.87,73,145.63,87.08,178,92,123.31,18.76,182.2-44.57,291-64,185-33,342.22,83.7,389,116,31.56,21.79,262.5,168.72,233,288-18.31,74-118.52,63.56-173,173-44.86,90.11,4.5,134.52-40,201-35.23,52.63-85.31,53.4-294,107-152.73,39.23-230.34,59.51-291,92-130.81,70.07-117.76,130.67-219,202-205.17,144.55-377.86-13.24-650,112C116.25,1501.3,29.6,1615.93,0,1659c-134.11,195.18-150,454.19-77,656,133.37,368.67,573.46,574.08,904,527,259.08-36.9,322.58-210.66,522-167,197.56,43.25,377.92,266.89,391,481,12,196.53-122.14,299.76-63,401,64.51,110.43,292.61,104.85,380,83,695.84-174,1073-3531.41,12-4029C1893.86-471.14,1515.57-552.24,784-87Z" transform="translate(120.12 452.29)"/></g></svg>