<svg id="home" xmlns="http://www.w3.org/2000/svg" xmlns:xlink="http://www.w3.org/1999/xlink" viewBox="0 0 1920 3652.58"><defs><style>.cls-1{fill:none;}.cls-2{clip-path:url(#clip-path);}.cls-3{fill:url(#New_Gradient_Swatch_1);}.cls-4{fill:url(#New_Gradient_Swatch_1-2);}</style><clipPath id="clip-path"><rect class="cls-1" width="1920" height="4320"/></clipPath><linearGradient id="New_Gradient_Swatch_1" x1="-540.45" y1="2124.58" x2="1704.55" y2="-120.43" gradientUnits="userSpaceOnUse"><stop offset="0" stop-color="#213140"/><stop offset="0.45" stop-color="#31475e"/><stop offset="0.76" stop-color="#6d4163"/><stop offset="1" stop-color="#f05555"/></linearGradient><linearGradient id="New_Gradient_Swatch_1-2" x1="471.47" y1="3136.5" x2="2716.47" y2="891.49" xlink:href="#New_Gradient_Swatch_1"/></defs><g class="cls-2"><path class="cls-3" d="M1023,204c123.31,18.76,182.2-44.57,291-64,185-33,342.22,83.7,389,116,24.21,16.71,165.67,107,217,202V0H790.23C798,34.92,813.78,75.15,845,112,906.87,185,990.63,199.08,1023,204Z"/><path class="cls-4" d="M1763,717c-44.86,90.11,4.5,134.52-40,201-35.23,52.63-85.31,53.4-294,107-152.73,39.23-230.34,59.51-291,92-130.81,70.07-117.76,130.67-219,202-205.17,144.55-377.86-13.24-650,112C116.25,1501.3,29.6,1615.93,0,1659v807.13C182.89,2738.39,544.85,2882.19,827,2842c259.08-36.9,322.58-210.66,522-167,197.56,43.25,377.92,266.89,391,481,12,196.53-122.14,299.76-63,401,41,70.16,148,93.49,243,95.58V575.66C1884.67,618,1808.14,626.32,1763,717Z"/></g></svg>