<svg id="student_panel" data-name="student/panel" xmlns="http://www.w3.org/2000/svg" xmlns:xlink="http://www.w3.org/1999/xlink" viewBox="0 0 2678.39 4425.12"><defs><style>.cls-1{fill:none;}.cls-2{clip-path:url(#clip-path);}.cls-3{fill:url(#New_Gradient_Swatch_1);}</style><clipPath id="clip-path" transform="translate(137.23 292.09)"><rect class="cls-1" width="1920" height="4320"/></clipPath><linearGradient id="New_Gradient_Swatch_1" x1="314.32" y1="3067.41" x2="2829.57" y2="552.15" gradientUnits="userSpaceOnUse"><stop offset="0" stop-color="#213140"/><stop offset="0.45" stop-color="#31475e"/><stop offset="0.76" stop-color="#6d4163"/><stop offset="1" stop-color="#f05555"/></linearGradient></defs><g class="cls-2"><path class="cls-3" d="M686-35c.58,5.43,14,5.46,133,52,46.35,18.13,69.79,27.35,83,35,66.9,38.73,68.16,79,124,132,64.28,61.05,139.12,80.4,184,92,35.89,9.28,102.57,22,182,12,57.17-7.21,126-26.85,144-32,36.74-10.49,70.83-22.09,121-23,48.07-.88,66.5,8.86,72,12,43.11,24.59,52.39,78.62,54,89,6.22,40-10.76,47.33-5,92,2.31,17.89,6.89,53.45,34,81,36.57,37.16,89.6,34.82,108,34,49.77-2.2,63.12-32,79-23,42.18,23.84-41.23,223.44-54,254-5.94,14.22-12,27.47-25,40-29.06,28-61,21.68-116,43-25.34,9.82-43.67,15.85-61,32a128.82,128.82,0,0,0-23,29c-22.07,35.75-58,60.93-98,89-67.69,47.47-153,53.69-227,74-128,35.15-120.54,84.7-262,153-219.63,106-323.22,28-404,124-75.57,89.81,8.69,165.72-57,314-73.44,165.79-255.85,244.87-383,300-195.73,84.86-245.93,41.77-320,112-142.15,134.79-145.07,471.66,12,651,104.27,119.05,235.74,119.26,846,164,726.1,53.23,861.56,76.51,936,190,89.13,135.9-11,246.07,55,611,12,66.68,78,431.22,150,435,234.59,12.3,1122.69-3770.27,69-4338C1564.86-459.39,681.2-80,686-35Z" transform="translate(137.23 292.09)"/></g></svg>