<svg id="teacher_panel" data-name="teacher/panel" xmlns="http://www.w3.org/2000/svg" viewBox="0 0 1920 4320"><defs><style>.cls-1{fill:#f5f5f5;}</style></defs><path class="cls-1" d="M269,1431c272.14-125.24,444.83,32.55,650-112,101.24-71.33,88.19-131.93,219-202,60.66-32.49,138.27-52.77,291-92,208.69-53.6,258.77-54.37,294-107,44.5-66.48-4.86-110.89,40-201,45.14-90.68,121.67-99,157-141.34V458c-51.33-95-192.79-185.31-217-202-46.78-32.3-204-149-389-116-108.8,19.43-167.69,82.76-291,64-32.37-4.92-116.13-19-178-92C813.78,75.15,798,34.92,790.23,0H0V1659C29.6,1615.93,116.25,1501.3,269,1431Z"/><path class="cls-1" d="M1677,3557c-59.14-101.24,75-204.47,63-401-13.08-214.11-193.44-437.75-391-481-199.42-43.66-262.92,130.1-522,167-282.15,40.19-644.11-103.61-827-375.87V4320H1920V3652.58C1825,3650.49,1718,3627.16,1677,3557Z"/></svg>