<svg id="home" xmlns="http://www.w3.org/2000/svg" xmlns:xlink="http://www.w3.org/1999/xlink" viewBox="0 0 1920 2500.93"><defs><style>.cls-1{fill:url(#New_Gradient_Swatch_1);}.cls-2{fill:url(#New_Gradient_Swatch_1-2);}.cls-3{fill:url(#New_Gradient_Swatch_1-3);}.cls-4{fill:url(#linear-gradient);}.cls-5{fill:url(#New_Gradient_Swatch_1-4);}.cls-6{fill:url(#New_Gradient_Swatch_1-5);}</style><linearGradient id="New_Gradient_Swatch_1" x1="-236.69" y1="3527.15" x2="3019.08" y2="271.39" gradientUnits="userSpaceOnUse"><stop offset="0" stop-color="#213140"/><stop offset="0.45" stop-color="#31475e"/><stop offset="0.76" stop-color="#6d4163"/><stop offset="1" stop-color="#f05555"/></linearGradient><linearGradient id="New_Gradient_Swatch_1-2" x1="-236.55" y1="3527.29" x2="3019.22" y2="271.52" xlink:href="#New_Gradient_Swatch_1"/><linearGradient id="New_Gradient_Swatch_1-3" x1="-776.84" y1="4067.58" x2="2478.93" y2="811.81" xlink:href="#New_Gradient_Swatch_1"/><linearGradient id="linear-gradient" x1="-487.21" y1="1627.59" x2="3044.62" y2="3152.83" gradientUnits="userSpaceOnUse"><stop offset="0" stop-color="#2e445a" stop-opacity="0"/><stop offset="0.01" stop-color="#2e445a" stop-opacity="0.03"/><stop offset="0.07" stop-color="#30465c" stop-opacity="0.18"/><stop offset="0.15" stop-color="#31475e" stop-opacity="0.27"/><stop offset="0.27" stop-color="#31475e" stop-opacity="0.3"/><stop offset="0.42" stop-color="#464560" stop-opacity="0.54"/><stop offset="0.65" stop-color="#6d4163"/></linearGradient><linearGradient id="New_Gradient_Swatch_1-4" x1="-1132.45" y1="3711.97" x2="2123.32" y2="456.2" xlink:href="#New_Gradient_Swatch_1"/><linearGradient id="New_Gradient_Swatch_1-5" x1="-1412.3" y1="3432.11" x2="1843.47" y2="176.34" xlink:href="#New_Gradient_Swatch_1"/></defs><path class="cls-1" d="M0,2345.15l.5-.22c31.65-13.75,115.6-10.29,252-39s135.23-41.26,200-46c105.11-7.7,149.76,22.28,323,62,118.32,27.12,187.88,43.07,269,46,213.55,7.71,263.45-83.59,423-85,193.51-1.72,261.33,131.31,448,216,1.5.68,3,1.34,4.5,2V2160H0Z"/><path class="cls-2" d="M0,2345.15l.5-.22c31.65-13.75,115.6-10.29,252-39s135.23-41.26,200-46c105.11-7.7,149.76,22.28,323,62,118.32,27.12,187.88,43.07,269,46,213.55,7.71,263.45-83.59,423-85,193.51-1.72,261.33,131.31,448,216,1.5.68,3,1.34,4.5,2V2160.54H0Z"/><path class="cls-3" d="M0,2345.15l.5-.22c31.65-13.75,115.6-10.29,252-39s135.23-41.26,200-46c105.11-7.7,149.76,22.28,323,62,118.32,27.12,187.88,43.07,269,46,213.55,7.71,263.45-83.59,423-85,193.51-1.72,261.33,131.31,448,216,1.5.68,3,1.34,4.5,2V2160.54H0Z"/><path class="cls-4" d="M0,2345.15l.5-.22c26.63-11.57,90.31-11,191.1-27.58,19-3.13,39.28-6.87,60.9-11.42,83.26-17.53,115.26-29,142.27-36.41,17.26-4.71,32.48-7.75,57.73-9.59,44.24-3.24,77.77.19,114.69,8.22,50.79,11,108,30.78,208.31,53.78,97.58,22.37,162,37.13,227.07,43.26l4.45.41.28,0c12.27,1.07,24.6,1.84,37.2,2.3l5.1.16q4.79.15,9.47.21h.3a575.66,575.66,0,0,0,92-5.56c129.88-18.88,187.21-78.68,316.11-79.82,84.39-.75,144.88,24.13,201.74,59.45,73.53,45.67,141,108.79,246.26,156.55,1.5.68,3,1.34,4.5,2V2160H0Z"/><rect class="cls-5" y="1079.5" width="1920" height="1080.04"/><path class="cls-6" d="M1443.67,0C1362,73.54,1314.5,140.5,1314.5,140.5c-64.3,90.59-124.32,175.16-131,293-9.37,165.37,95.57,232.79,69,423-8.49,60.78-15.3,109.52-54,138-69.72,51.31-171.45-15.75-392-84-183.13-56.67-274.69-85-385-77C238.32,846.79,109,950.33,0,1040.09v39.45H1920V0Z"/></svg>