<svg id="home" xmlns="http://www.w3.org/2000/svg" xmlns:xlink="http://www.w3.org/1999/xlink" viewBox="0 0 1920 340.93"><defs><style>.cls-1{fill:url(#New_Gradient_Swatch_1);}.cls-2{fill:url(#linear-gradient);}</style><linearGradient id="New_Gradient_Swatch_1" x1="-236.69" y1="4607.73" x2="3019.08" y2="1351.96" gradientUnits="userSpaceOnUse"><stop offset="0" stop-color="#213140"/><stop offset="0.45" stop-color="#31475e"/><stop offset="0.76" stop-color="#6d4163"/><stop offset="1" stop-color="#f05555"/></linearGradient><linearGradient id="linear-gradient" x1="-487.21" y1="2708.17" x2="3044.62" y2="4233.4" gradientUnits="userSpaceOnUse"><stop offset="0" stop-color="#2e445a" stop-opacity="0"/><stop offset="0.01" stop-color="#2e445a" stop-opacity="0.03"/><stop offset="0.07" stop-color="#30465c" stop-opacity="0.18"/><stop offset="0.15" stop-color="#31475e" stop-opacity="0.27"/><stop offset="0.27" stop-color="#31475e" stop-opacity="0.3"/><stop offset="0.42" stop-color="#464560" stop-opacity="0.54"/><stop offset="0.65" stop-color="#6d4163"/></linearGradient></defs><path class="cls-1" d="M0,3425.72l.5-.22c31.65-13.74,115.6-10.29,252-39s135.23-41.26,200-46c105.11-7.7,149.76,22.29,323,62,118.32,27.13,187.88,43.07,269,46,213.55,7.71,263.45-83.58,423-85,193.51-1.72,261.33,131.32,448,216l4.5,2V3240.57H0Z" transform="translate(0 -3240.57)"/><path class="cls-2" d="M0,3425.72l.5-.22c26.63-11.56,90.31-10.95,191.1-27.58,19-3.13,39.28-6.87,60.9-11.42,83.26-17.52,115.26-29,142.27-36.4,17.26-4.72,32.48-7.75,57.73-9.6,44.24-3.24,77.77.2,114.69,8.22,50.79,11.05,108,30.78,208.31,53.78,97.58,22.37,162,37.13,227.07,43.27l4.45.4.28,0c12.27,1.07,24.6,1.84,37.2,2.3l5.1.17q4.79.14,9.47.21h.3a575.66,575.66,0,0,0,92-5.56c129.88-18.87,187.21-78.68,316.11-79.82,84.39-.75,144.88,24.13,201.74,59.45,73.53,45.67,141,108.8,246.26,156.55l4.5,2V3240.57H0Z" transform="translate(0 -3240.57)"/></svg>