<svg id="Layer_1" data-name="Layer 1" xmlns="http://www.w3.org/2000/svg" xmlns:xlink="http://www.w3.org/1999/xlink" viewBox="0 0 3876.83 4337.84"><defs><style>.cls-1{fill:none;}.cls-2{clip-path:url(#clip-path);}.cls-3{fill:url(#linear-gradient);}</style><clipPath id="clip-path" transform="translate(617.54 212.34)"><rect class="cls-1" width="1920" height="4320"/></clipPath><linearGradient id="linear-gradient" x1="-589.03" y1="4255.39" x2="2666.74" y2="999.62" gradientUnits="userSpaceOnUse"><stop offset="0" stop-color="#213140"/><stop offset="0.45" stop-color="#31475e"/><stop offset="0.76" stop-color="#6d4163"/><stop offset="1" stop-color="#f05555"/></linearGradient></defs><g class="cls-2"><path class="cls-3" d="M1598.5-112.5c-173.48,97.29-284,253-284,253-64.3,90.59-124.32,175.16-131,293-9.37,165.37,95.57,232.79,69,423-8.49,60.78-15.3,109.52-54,138-69.72,51.31-171.45-15.75-392-84-183.13-56.67-274.69-85-385-77C238,846.81,108.57,950.65-.5,1040.5c-19.49,16.06-240.91,202.09-378,493-370.86,787-242,2590.7-69,2592,94.91.72,84.76-542.26,448-700,31.65-13.74,115.6-10.29,252-39s135.23-41.26,200-46c105.11-7.7,149.76,22.29,323,62,118.32,27.13,187.88,43.07,269,46,213.55,7.71,263.45-83.58,423-85,193.51-1.72,261.33,131.32,448,216,345.8,156.87,743.8-13.51,799-39,824.18-380.56,694.43-3306.28-262-3677C2317.52-188.82,1912.43-288.56,1598.5-112.5Z" transform="translate(617.54 212.34)"/></g></svg>