<svg id="upload-make" xmlns="http://www.w3.org/2000/svg" xmlns:xlink="http://www.w3.org/1999/xlink" viewBox="0 0 722.59 238.2"><defs><style>.cls-1,.cls-3{opacity:0.5;}.cls-1{fill:url(#linear-gradient);}.cls-2{fill:url(#linear-gradient-2);}.cls-3{fill:url(#linear-gradient-3);}.cls-4{fill:url(#linear-gradient-4);}</style><linearGradient id="linear-gradient" x1="555.26" y1="477.35" x2="759.38" y2="477.35" gradientTransform="matrix(0.92, -0.39, 0.39, 0.92, -134.96, 299.75)" gradientUnits="userSpaceOnUse"><stop offset="0" stop-color="#31475e"/><stop offset="1" stop-color="#6d4163"/></linearGradient><linearGradient id="linear-gradient-2" x1="570.32" y1="481.22" x2="767.82" y2="481.22" gradientTransform="matrix(1, 0, 0, 1, 0, 0)" xlink:href="#linear-gradient"/><linearGradient id="linear-gradient-3" x1="1067.08" y1="544.42" x2="1248.08" y2="467.56" gradientTransform="translate(754.41 1709.26) rotate(-93.14)" xlink:href="#linear-gradient"/><linearGradient id="linear-gradient-4" x1="1087.32" y1="549.56" x2="1268.32" y2="472.7" gradientTransform="matrix(1, 0, 0, 1, 0, 0)" xlink:href="#linear-gradient"/></defs><g id="upload"><path class="cls-1" d="M607,399.76c6.61-17.58,29.21-22.81,30.61-23.11,1.24-.27,18.58-3.54,31.2,4.72,7.21,4.71,7.86,9.24,15.41,20.41a154.39,154.39,0,0,0,34.35,35.94c16.41,12.73,19.58,9.33,31.14,20.46,5.56,5.34,17.12,16.46,21.06,33.72,5.75,25.19-8.31,46.06-12,51.13-9.29,12.85-19.37,20.12-40.8,26.87-15.35,4.83-35,8.7-72.79,16.31-13.36,2.69-20.89.36-30.39-2.81-27.51-9.19-39.89-33.7-42.08-38.28-3.85-8-13.1-27.31-5.15-43.85,3.05-6.35,8.06-14.09,16.89-18.4,16.31-8,18.56-8.9,23.26-16.61,2.08-3.42,3.06-7.2,2-24.43C607.75,411,603.71,408.41,607,399.76Z" transform="translate(-564.41 -375.79)"/><path class="cls-2" d="M656,389c12.53-13.16,34.63-9.26,36-9,1.2.23,17.88,3.87,26,16,4.64,6.92,3.51,11.2,6,24a149.65,149.65,0,0,0,17,45c9.81,17.55,13.91,15.72,20,30,2.93,6.86,9,21.14,6,38-4.4,24.6-24.82,37.87-30,41-13.13,7.93-24.87,10.59-46.5,8.5-15.5-1.5-34.5-5.5-71-13-12.92-2.65-18.74-7.58-26-14-21-18.58-22.78-45.09-23-50-.39-8.6-1.33-29.28,12-41,5.12-4.5,12.5-9.5,22-10,17.54-.92,19.9-.91,27-6,3.14-2.25,5.44-5.25,11-21C652.45,399.31,649.83,395.48,656,389Z" transform="translate(-564.41 -375.79)"/></g><g id="make"><path class="cls-3" d="M1074.33,534.19c.71-7.76,5.17-13.65,8.05-17.46,6.2-8.18,10.8-8.78,23.09-17.3,20.5-14.21,33.81-30.65,39-37.19,2.88-3.61,2.25-3.1,5.61-7.32,9.52-12,18.11-22.75,28.42-29.6,13-8.67,26.48-9.36,37.5-10.07a97.77,97.77,0,0,1,35.28,4.07c16.1,5,23.12,10.21,25.73,12.61,3.87,3.55,8.4,7.71,8.75,13.54.48,7.69-6.64,13-12.93,19.74-6.77,7.24-17.35,20-20.11,35.15-2.32,12.74,1.66,24.28,5.44,35.26,4.5,13,7.77,14.06,10.42,25.46,2,8.63,4.49,19.31-.36,30.07-7.44,16.55-26.65,20.94-29.85,21.67-15.91,3.63-29-2.2-33.28-4.18-13.37-6.2-12.21-12.27-24-17.71-14.18-6.55-20.07.29-41.21-2.75a90.83,90.83,0,0,1-41-16.78C1091.45,565.79,1072.74,551.71,1074.33,534.19Z" transform="translate(-564.41 -375.79)"/><path class="cls-4" d="M1176,389c7.71,1.13,13.35,5.91,17,9,7.83,6.63,8.17,11.26,16,24,13.07,21.25,28.76,35.43,35,41,3.45,3.07,3,2.41,7,6,11.42,10.17,21.72,19.33,28,30,7.94,13.49,7.89,27,8,38a97.77,97.77,0,0,1-6,35c-5.92,15.8-11.46,22.53-14,25-3.76,3.67-8.16,8-14,8-7.71,0-12.62-7.35-19-14-6.86-7.16-19.06-18.42-34-22-12.6-3-24.34.32-35.5,3.5-13.27,3.78-14.47,7-26,9-8.72,1.53-19.52,3.42-30-2-16.12-8.34-19.45-27.76-20-31-2.76-16.09,3.79-28.84,6-33,6.91-13,12.92-11.52,19-23,7.31-13.8.8-20.06,5-41a90.93,90.93,0,0,1,19-40C1143.51,404.36,1158.6,386.45,1176,389Z" transform="translate(-564.41 -375.79)"/></g></svg>