<svg id="role_teacher" data-name="role/teacher" xmlns="http://www.w3.org/2000/svg" xmlns:xlink="http://www.w3.org/1999/xlink" viewBox="0 0 515.54 335.33"><defs><style>.cls-1{fill:none;}.cls-2,.cls-3{fill:#f5f5f5;}.cls-3{stroke:#2f465c;stroke-miterlimit:10;stroke-width:4px;}.cls-4{clip-path:url(#clip-path);}.cls-5{fill:#263238;}.cls-6{fill:#455b64;}.cls-7{fill:#fff;}.cls-8{fill:#fafbfb;}.cls-9{fill:#3694d1;}.cls-10{fill:#fbbd9d;}.cls-11{fill:#ec996f;}.cls-12{fill:#76c8a6;}.cls-13{fill:#e7515b;}.cls-14{opacity:0.5;}.cls-15{fill:#e0e0e0;}</style><clipPath id="clip-path" transform="translate(-493.12 -448.78)"><path class="cls-1" d="M664.29,458.33a42.89,42.89,0,0,1,37.43,2,334.19,334.19,0,0,1,91.2,73.71c23.38,27.07,55.46,64.23,60,118.45a144.42,144.42,0,0,1-8,61.2c-2.91,8-22.26,61.1-57,64.16-9.61.85-17.86-3.37-34-11.84-41.52-21.85-43.17-39.48-69-48.37-23.69-8.17-31.85,3.42-71,3-29.88-.35-53.44-1.35-75.95-15.79-21-13.47-46.17-42.25-41.47-70.58,2.51-15.15,20.7-30.38,57-60.22,36.5-30,37.53-25.55,49-39.48,22.64-27.57,20.13-47,43-65.15A80.22,80.22,0,0,1,664.29,458.33Z"/></clipPath></defs><path class="cls-2" d="M651.1,454.91a43.65,43.65,0,0,1,38.6-.9,345,345,0,0,1,99.67,69.27c26.22,26.26,62.2,62.3,71.25,118.31a152.37,152.37,0,0,1-3.21,64.27c-2.33,8.52-17.87,65.31-53.26,71.3-9.8,1.66-18.62-2.07-35.86-9.58-44.42-19.36-47.55-37.56-74.76-44.72-25-6.58-32.43,6.13-72.62,8.8-30.71,2.05-55,2.91-79.28-10.29-22.65-12.31-50.87-40.2-48.35-70,1.34-16,18.77-33.25,53.58-67.2,35-34.16,36.45-29.59,47.06-45,21-30.49,16.84-50.45,38.8-71.2A82.07,82.07,0,0,1,651.1,454.91Z" transform="translate(-493.12 -448.78)"/><path class="cls-3" d="M664.29,458.27a42.41,42.41,0,0,1,37.45,2.07A335.16,335.16,0,0,1,793,535c23.39,27.43,55.49,65.07,60,120a148.15,148.15,0,0,1-8,62c-2.9,8.07-22.27,61.9-57,65-9.62.86-17.88-3.41-34-12-41.55-22.13-43.2-40-69-49-23.71-8.28-31.88,3.47-71,3-29.9-.36-53.47-1.37-76-16-21-13.64-46.2-42.8-41.5-71.5,2.51-15.34,20.71-30.77,57-61,36.52-30.42,37.55-25.89,49-40,22.66-27.93,20.15-47.58,43-66A79.89,79.89,0,0,1,664.29,458.27Z" transform="translate(-493.12 -448.78)"/><g class="cls-4"><rect class="cls-5" x="165.38" width="331.91" height="237.06"/><rect class="cls-6" x="173.27" y="9.48" width="313.77" height="218.48"/><path class="cls-5" d="M980.16,676.73c0-1.73-.09-85.65-.21-218.48l.21.21-313.75.05h0l.26-.26c0,78.09,0,152.24,0,218.48l-.24-.24,313.77.24L666.39,677h-.24v-.24c0-66.24,0-140.39,0-218.48V458h.28l313.75.05h.21v.21C980.24,591.08,980.16,675,980.16,676.73Z" transform="translate(-493.12 -448.78)"/><rect class="cls-5" x="154.57" y="237.06" width="360.96" height="9.43"/><path class="cls-6" d="M1000.24,685.83c0,.15-64,.26-142.85.26s-142.87-.11-142.87-.26,64-.26,142.87-.26S1000.24,685.69,1000.24,685.83Z" transform="translate(-493.12 -448.78)"/><path class="cls-6" d="M667.61,457.8a53.92,53.92,0,0,1-4.57-4.32,52.92,52.92,0,0,1-4.42-4.48,29.85,29.85,0,0,1,4.78,4.11A30.24,30.24,0,0,1,667.61,457.8Z" transform="translate(-493.12 -448.78)"/><path class="cls-6" d="M990.44,449.21a47.26,47.26,0,0,1-4.84,5.05,47.91,47.91,0,0,1-5.2,4.69,93.59,93.59,0,0,1,10-9.74Z" transform="translate(-493.12 -448.78)"/><path class="cls-6" d="M991.61,685.53a37,37,0,0,1-5.58-4.12,36,36,0,0,1-5.06-4.74,63.73,63.73,0,0,1,5.4,4.34A61.46,61.46,0,0,1,991.61,685.53Z" transform="translate(-493.12 -448.78)"/><path class="cls-7" d="M935.26,572.73a1.33,1.33,0,0,1,0-.26c0-.19,0-.44,0-.77,0-.69,0-1.68,0-3,0-2.6,0-6.38-.06-11.17,0-9.6-.07-23.28-.12-39.69l.23.23-54.84,0h0l.26-.26c0,20.08,0,38.9,0,54.84l-.22-.22,39.68.11,11.17.06,3,0h1l-.24,0h-.74l-2.92,0-11.11.06-39.83.11h-.23v-.23c0-15.94,0-34.76,0-54.84v-.26h.26l54.84,0h.22v.22c0,16.47-.08,30.2-.11,39.83,0,4.77,0,8.53-.06,11.12q0,1.89,0,2.91c0,.32,0,.56,0,.74A1.76,1.76,0,0,1,935.26,572.73Z" transform="translate(-493.12 -448.78)"/><path class="cls-7" d="M935.26,572.73s.13-.1.42-.29l1.25-.81,4.86-3.06,17.86-11.12-.1.17c0-14.31,0-33.27-.06-54l.26.26h-.15l-54.06-.06.1,0-18.41,10.37-5,2.81-1.31.72-.46.22.43-.28,1.29-.76,5-2.9,18.32-10.52,0,0h0l54.06-.06H960v.26c0,20.75,0,39.71-.06,54v.11l-.1.06-17.94,11-4.92,3-1.28.76Z" transform="translate(-493.12 -448.78)"/><path class="cls-7" d="M959.75,503.6c.07.12-5.35,3.42-12.11,7.37s-12.31,7-12.38,6.92,5.35-3.42,12.11-7.37S959.68,503.48,959.75,503.6Z" transform="translate(-493.12 -448.78)"/><path class="cls-7" d="M883,570.48c.07.13-.46.56-1.17,1s-1.36.64-1.43.52.45-.56,1.17-1S883,570.36,883,570.48Z" transform="translate(-493.12 -448.78)"/><path class="cls-7" d="M888.22,567.5c.07.12-.45.56-1.17,1s-1.36.64-1.43.52.45-.56,1.17-1S888.15,567.37,888.22,567.5Z" transform="translate(-493.12 -448.78)"/><path class="cls-7" d="M893.43,564.51c.07.12-.46.56-1.18,1s-1.36.65-1.43.52.46-.56,1.17-1S893.35,564.38,893.43,564.51Z" transform="translate(-493.12 -448.78)"/><path class="cls-7" d="M898.63,561.52c.07.13-.45.56-1.17,1s-1.36.65-1.43.53.45-.56,1.17-1S898.56,561.4,898.63,561.52Z" transform="translate(-493.12 -448.78)"/><path class="cls-7" d="M903.83,558.53c.07.13-.45.56-1.17,1s-1.36.64-1.43.52.45-.56,1.17-1S903.76,558.41,903.83,558.53Z" transform="translate(-493.12 -448.78)"/><path class="cls-7" d="M905.15,553.28c.14,0,.26.67.25,1.5s-.13,1.5-.27,1.5-.26-.68-.25-1.5S905,553.28,905.15,553.28Z" transform="translate(-493.12 -448.78)"/><path class="cls-7" d="M905.2,547.28c.14,0,.25.67.25,1.5s-.13,1.5-.28,1.5-.25-.68-.24-1.5S905.05,547.28,905.2,547.28Z" transform="translate(-493.12 -448.78)"/><path class="cls-7" d="M905.24,541.28c.15,0,.26.67.25,1.5s-.12,1.5-.27,1.5-.25-.68-.25-1.5S905.1,541.28,905.24,541.28Z" transform="translate(-493.12 -448.78)"/><path class="cls-7" d="M905.29,535.28c.15,0,.26.67.25,1.5s-.13,1.5-.27,1.5-.26-.68-.25-1.5S905.15,535.28,905.29,535.28Z" transform="translate(-493.12 -448.78)"/><path class="cls-7" d="M905.34,529.28c.14,0,.25.67.25,1.5s-.13,1.5-.27,1.5-.26-.68-.25-1.5S905.2,529.28,905.34,529.28Z" transform="translate(-493.12 -448.78)"/><path class="cls-7" d="M905.39,523.28c.14,0,.25.67.24,1.5s-.12,1.5-.27,1.5-.25-.68-.25-1.5S905.24,523.28,905.39,523.28Z" transform="translate(-493.12 -448.78)"/><path class="cls-7" d="M905.43,517.28c.15,0,.26.67.25,1.5s-.13,1.5-.27,1.5-.26-.67-.25-1.5S905.29,517.28,905.43,517.28Z" transform="translate(-493.12 -448.78)"/><path class="cls-7" d="M905.48,511.28c.14,0,.26.67.25,1.5s-.13,1.5-.27,1.5-.26-.67-.25-1.5S905.34,511.28,905.48,511.28Z" transform="translate(-493.12 -448.78)"/><path class="cls-7" d="M905.53,505.28c.14,0,.25.67.25,1.5s-.13,1.5-.28,1.5-.25-.67-.24-1.5S905.38,505.28,905.53,505.28Z" transform="translate(-493.12 -448.78)"/><path class="cls-7" d="M956.75,557.62c0-.14.67-.26,1.5-.26s1.5.12,1.5.26-.67.26-1.5.26S956.75,557.76,956.75,557.62Z" transform="translate(-493.12 -448.78)"/><path class="cls-7" d="M950.75,557.62c0-.14.67-.26,1.5-.26s1.5.12,1.5.26-.67.26-1.5.26S950.75,557.76,950.75,557.62Z" transform="translate(-493.12 -448.78)"/><path class="cls-7" d="M944.75,557.62c0-.14.67-.26,1.5-.26s1.5.12,1.5.26-.67.26-1.5.26S944.75,557.76,944.75,557.62Z" transform="translate(-493.12 -448.78)"/><path class="cls-7" d="M938.75,557.62c0-.14.67-.26,1.5-.26s1.5.12,1.5.26-.67.26-1.5.26S938.75,557.76,938.75,557.62Z" transform="translate(-493.12 -448.78)"/><path class="cls-7" d="M932.75,557.62c0-.14.67-.26,1.5-.26s1.5.12,1.5.26-.67.26-1.5.26S932.75,557.76,932.75,557.62Z" transform="translate(-493.12 -448.78)"/><path class="cls-7" d="M926.75,557.62c0-.14.67-.26,1.5-.26s1.5.12,1.5.26-.67.26-1.5.26S926.75,557.76,926.75,557.62Z" transform="translate(-493.12 -448.78)"/><path class="cls-7" d="M920.75,557.62c0-.14.67-.26,1.5-.26s1.5.12,1.5.26-.67.26-1.5.26S920.75,557.76,920.75,557.62Z" transform="translate(-493.12 -448.78)"/><path class="cls-7" d="M914.75,557.62c0-.14.67-.26,1.5-.26s1.5.12,1.5.26-.67.26-1.5.26S914.75,557.76,914.75,557.62Z" transform="translate(-493.12 -448.78)"/><path class="cls-7" d="M908.75,557.62c0-.14.67-.26,1.5-.26s1.5.12,1.5.26-.67.26-1.5.26S908.75,557.76,908.75,557.62Z" transform="translate(-493.12 -448.78)"/><path class="cls-7" d="M905.12,557.62a.29.29,0,0,1,.31-.26.27.27,0,1,1,0,.52A.29.29,0,0,1,905.12,557.62Z" transform="translate(-493.12 -448.78)"/><path class="cls-7" d="M966.39,539.35a5.94,5.94,0,0,0,1.37-.06,4.25,4.25,0,0,0,2.84-2.14,5.72,5.72,0,0,0-.16-5.22,1.56,1.56,0,0,0-1.07-.86,1.86,1.86,0,0,0-1.4.37,6.56,6.56,0,0,0-1.74,2.91,13.44,13.44,0,0,0-.78,3.72H965c-.06-4-.09-7.44-.09-9.92,0-1.16,0-2.13,0-2.9a5.14,5.14,0,0,1,.07-1,4.54,4.54,0,0,1,.11,1c0,.78.08,1.75.13,2.91.09,2.47.18,5.94.26,9.91H965a13.75,13.75,0,0,1,.79-3.87,15.18,15.18,0,0,1,.75-1.69,4.34,4.34,0,0,1,1.18-1.45,2.36,2.36,0,0,1,1.8-.45,2.05,2.05,0,0,1,1.39,1.11,6,6,0,0,1,.06,5.63,4.36,4.36,0,0,1-3.13,2.17,3.45,3.45,0,0,1-1,0C966.5,539.42,966.39,539.37,966.39,539.35Z" transform="translate(-493.12 -448.78)"/><path class="cls-7" d="M939.8,497.34s0,.08-.12.19a1.59,1.59,0,0,1-.54.4,2.12,2.12,0,0,1-1,.23,2.06,2.06,0,0,1-1.35-.57,4,4,0,0,1-.9-1.53c-.23-.58-.44-1.23-.64-1.92a22.39,22.39,0,0,1-.76-4.73l.49,0a18,18,0,0,1-.18,6.26,5.69,5.69,0,0,1-1.94,3.19,2.47,2.47,0,0,1-1.83.4,2.23,2.23,0,0,1-1.43-1.09,6.13,6.13,0,0,1,.11-5.71,6.26,6.26,0,0,1,2.85-2.64,4.93,4.93,0,0,1,1-.34c.23-.05.36-.06.36,0s-.49.15-1.28.57a6,6,0,0,0-3.26,5.1,5.14,5.14,0,0,0,.62,2.81,1.74,1.74,0,0,0,1.12.85,1.9,1.9,0,0,0,1.44-.34,5.19,5.19,0,0,0,1.73-2.9,17.88,17.88,0,0,0,.19-6.08l.49,0a21.94,21.94,0,0,0,.67,4.64c.18.69.37,1.32.58,1.91a3.86,3.86,0,0,0,.77,1.44,2,2,0,0,0,2.13.41A3.69,3.69,0,0,0,939.8,497.34Z" transform="translate(-493.12 -448.78)"/><path class="cls-7" d="M847.46,558.59a2.09,2.09,0,0,1,0,.3l.09.89c.07.81.17,2,.3,3.4.22,3,.57,7.24.59,12.56a71.16,71.16,0,0,1-2.12,18.51,46.86,46.86,0,0,1-4,10.28,40.83,40.83,0,0,1-7.14,9.45c-2.86,2.89-5.82,5.51-8.29,8.39a34.26,34.26,0,0,0-5.69,9.27,53.24,53.24,0,0,0-3.68,18.09c-.22,5.29,0,9.58.14,12.54.07,1.46.12,2.6.16,3.42,0,.36,0,.66,0,.88a.94.94,0,0,1,0,.31,1.4,1.4,0,0,1,0-.3c0-.23-.05-.52-.09-.89-.06-.81-.14-2-.25-3.4a121.39,121.39,0,0,1-.3-12.57,52.67,52.67,0,0,1,3.6-18.26,34.54,34.54,0,0,1,5.74-9.42c2.5-2.92,5.47-5.56,8.3-8.43a40,40,0,0,0,7.07-9.32,46.94,46.94,0,0,0,4-10.16,72.31,72.31,0,0,0,2.21-18.39c0-5.3-.26-9.58-.43-12.54-.08-1.46-.15-2.6-.19-3.41,0-.37,0-.66,0-.89A1.5,1.5,0,0,1,847.46,558.59Z" transform="translate(-493.12 -448.78)"/><path class="cls-7" d="M836.28,575.65A16.64,16.64,0,0,1,835,573c-.71-1.67-1.65-4-2.66-6.59l-.16-.4.47,0a27.91,27.91,0,0,0-2.5,6.26c-.44,1.66-.6,2.72-.68,2.71a9.64,9.64,0,0,1,.33-2.8,23.81,23.81,0,0,1,2.39-6.42l.27-.49.2.52.16.4c1,2.59,1.9,4.94,2.52,6.65A17.78,17.78,0,0,1,836.28,575.65Z" transform="translate(-493.12 -448.78)"/><path class="cls-7" d="M831.19,670.33c-.15,0,.15-23.39.65-52.23s1-52.23,1.18-52.23-.15,23.39-.66,52.24S831.33,670.34,831.19,670.33Z" transform="translate(-493.12 -448.78)"/><path class="cls-7" d="M853.42,616.27c0,.14-8.18.26-18.26.26s-18.26-.12-18.26-.26,8.17-.26,18.26-.26S853.42,616.13,853.42,616.27Z" transform="translate(-493.12 -448.78)"/><path class="cls-7" d="M849.37,620.28a19,19,0,0,1,2.72-1.33c1.71-.76,4.09-1.79,6.75-2.9l0,.49-.31-.1c-2.8-.93-5.33-1.8-7.15-2.46a18,18,0,0,1-2.92-1.16,19,19,0,0,1,3,.81c1.85.57,4.4,1.38,7.2,2.31l.31.1.66.22-.64.27c-2.66,1.11-5.07,2.08-6.81,2.76A16.78,16.78,0,0,1,849.37,620.28Z" transform="translate(-493.12 -448.78)"/><path class="cls-7" d="M853.52,609s-.06.15-.25.36l-.59.69.43-.83c.35-.65,1.23-2,2.32-3.61a21.48,21.48,0,0,1,2.9-3.73,21.58,21.58,0,0,1-2.47,4c-1.09,1.57-2.08,2.88-2.57,3.43l-.16-.14C853.36,609.08,853.49,609,853.52,609Z" transform="translate(-493.12 -448.78)"/><path class="cls-7" d="M859.78,608.33a18.77,18.77,0,0,1-3.29-3.05,20,20,0,0,1-2.91-3.41,18.77,18.77,0,0,1,3.29,3A20.4,20.4,0,0,1,859.78,608.33Z" transform="translate(-493.12 -448.78)"/><path class="cls-7" d="M826.56,606.91s.25-.22.78-.11a2,2,0,0,1,1.42,1.59,5.77,5.77,0,0,1-.56,3.13,3.8,3.8,0,0,1-1.15,1.56,2.38,2.38,0,0,1-2.07.46,2.41,2.41,0,0,1-1.55-1.45,3.45,3.45,0,0,1-.16-1.94,4.76,4.76,0,0,1,1.49-2.81,2.5,2.5,0,0,1,2.07-.56c.52.12.72.35.7.36s-.26-.12-.73-.16a2.4,2.4,0,0,0-1.8.64,4.56,4.56,0,0,0-1.26,2.61,3.15,3.15,0,0,0,.16,1.66,2,2,0,0,0,1.22,1.15,1.9,1.9,0,0,0,1.62-.37,3.45,3.45,0,0,0,1-1.34,5.85,5.85,0,0,0,.63-2.88,1.77,1.77,0,0,0-1.12-1.45A2.51,2.51,0,0,0,826.56,606.91Z" transform="translate(-493.12 -448.78)"/><path class="cls-7" d="M821.5,573c-.12.08-.88-.77-1.71-1.91a6.4,6.4,0,0,1-1.28-2.22c.12-.08.88.77,1.71,1.91A6.4,6.4,0,0,1,821.5,573Z" transform="translate(-493.12 -448.78)"/><path class="cls-7" d="M819.32,578.29a30.29,30.29,0,0,1,1.73-5.38,31.3,31.3,0,0,1,2.22-5.2,30.29,30.29,0,0,1-1.73,5.38A31.3,31.3,0,0,1,819.32,578.29Z" transform="translate(-493.12 -448.78)"/><path class="cls-7" d="M878.55,618.29a15.29,15.29,0,0,1-2.84-2.79,15.07,15.07,0,0,1-2.46-3.14,15,15,0,0,1,2.84,2.79A15.36,15.36,0,0,1,878.55,618.29Z" transform="translate(-493.12 -448.78)"/><path class="cls-7" d="M877.38,626.6a9.54,9.54,0,0,1,.47-2.32c.37-1.42.95-3.36,1.7-5.46s1.53-4,2.14-5.3a9.13,9.13,0,0,1,1.11-2.1,11.79,11.79,0,0,1-.77,2.24c-.52,1.36-1.24,3.24-2,5.33s-1.38,4-1.83,5.39A11.87,11.87,0,0,1,877.38,626.6Z" transform="translate(-493.12 -448.78)"/><path class="cls-7" d="M896.1,615.7a32.61,32.61,0,0,1-8.22,0,32.61,32.61,0,0,1,8.22,0Z" transform="translate(-493.12 -448.78)"/><path class="cls-7" d="M897,622.42a43.52,43.52,0,0,1-9.5,0,43.52,43.52,0,0,1,9.5,0Z" transform="translate(-493.12 -448.78)"/><path class="cls-7" d="M909.86,625.57a34.49,34.49,0,0,1-4.08-4.3,32.38,32.38,0,0,1-3.68-4.64,66.87,66.87,0,0,1,7.76,8.94Z" transform="translate(-493.12 -448.78)"/><path class="cls-7" d="M909.32,615.35a10.93,10.93,0,0,1-1.1,2.06c-.83,1.41-1.79,3-2.86,4.84s-2,3.43-2.84,4.84a11.75,11.75,0,0,1-1.27,2,9.6,9.6,0,0,1,1-2.14c.65-1.28,1.6-3,2.72-4.93s2.18-3.57,3-4.76A9.78,9.78,0,0,1,909.32,615.35Z" transform="translate(-493.12 -448.78)"/><path class="cls-7" d="M917.07,612.59c0,.12-2.45-.35-6.07-.19l-.44,0,.24-.37,2.91-4.59c.81-1.34,1.92-2.59,1.63-3.86a1.42,1.42,0,0,0-1.14-1.11,2.35,2.35,0,0,0-1.52.22,4.87,4.87,0,0,0-1.64,1.7c-.31.49-.48.77-.52.75a2.83,2.83,0,0,1,.34-.85,4.68,4.68,0,0,1,1.64-1.92,2.69,2.69,0,0,1,1.78-.33,1.86,1.86,0,0,1,1.52,1.44,3.14,3.14,0,0,1-.42,2.25c-.38.69-.81,1.31-1.24,2l-2.95,4.56L911,612a25.45,25.45,0,0,1,4.44.26A6.05,6.05,0,0,1,917.07,612.59Z" transform="translate(-493.12 -448.78)"/><path class="cls-7" d="M942.33,605s.33.23,1,.49a4.06,4.06,0,0,0,2.91,0,3.38,3.38,0,0,0,2.08-3.45,2.71,2.71,0,0,0-1.29-2,2.78,2.78,0,0,0-2.55-.28l-.19-.49.32-.1a6.55,6.55,0,0,0,2.53-1.31,2.45,2.45,0,0,0,.85-2.26,2.52,2.52,0,0,0-1.43-1.69,3.08,3.08,0,0,0-2-.13,4.64,4.64,0,0,0-2.46,1.73c-.44.59-.62,1-.66,1a2.75,2.75,0,0,1,.5-1.06,4.56,4.56,0,0,1,2.53-2,3.46,3.46,0,0,1,2.28.09,2.76,2.76,0,0,1,.77,4.72,6.92,6.92,0,0,1-2.72,1.43l-.32.11-.19-.49A3.36,3.36,0,0,1,948.8,602a3.76,3.76,0,0,1-2.43,3.83,4.14,4.14,0,0,1-3.12-.19,3.47,3.47,0,0,1-.72-.46C942.38,605.06,942.31,605,942.33,605Z" transform="translate(-493.12 -448.78)"/><path class="cls-7" d="M957.54,592.75a.68.68,0,0,1,.42-.16,1.4,1.4,0,0,1,1.13.62,1.66,1.66,0,0,1,.31.92,2.43,2.43,0,0,1-.3,1.1,8.45,8.45,0,0,1-1.8,2,24.14,24.14,0,0,1-2.56,2,3.27,3.27,0,0,0-1.82,2.74,3.12,3.12,0,0,0,2.18,2.8,4.34,4.34,0,0,0,3.92-.52,2.49,2.49,0,0,0,1.09-1.62,2.4,2.4,0,0,0-.51-1.82,6.46,6.46,0,0,0-3.31-2A7.53,7.53,0,0,1,953,597a3.3,3.3,0,0,1-.86-1.53,2.6,2.6,0,0,1,.16-1.62,3.74,3.74,0,0,1,1.94-1.89,6.27,6.27,0,0,1,2-.5c.55,0,1-.06,1.27-.06a1.25,1.25,0,0,1,.44,0s-.61.07-1.68.23a6.79,6.79,0,0,0-1.87.56,3.53,3.53,0,0,0-1.72,1.77,2.48,2.48,0,0,0,.67,2.72,7.28,7.28,0,0,0,3.12,1.65,6.86,6.86,0,0,1,3.57,2.12,3,3,0,0,1,.62,2.21,3.14,3.14,0,0,1-1.3,2,4.88,4.88,0,0,1-4.41.57,3.83,3.83,0,0,1-1.78-1.28,3.53,3.53,0,0,1-.7-2,2.89,2.89,0,0,1,.65-1.91,6.21,6.21,0,0,1,1.4-1.2,27.71,27.71,0,0,0,2.57-1.89,8.08,8.08,0,0,0,1.78-1.86,1.58,1.58,0,0,0,.08-1.75,1.3,1.3,0,0,0-1-.64A1.77,1.77,0,0,0,957.54,592.75Z" transform="translate(-493.12 -448.78)"/><path class="cls-7" d="M967.62,600.73a6.08,6.08,0,0,1-1.75.38l-1.92.26a9.65,9.65,0,0,1-1.17.1,1.36,1.36,0,0,1-.7-.2,1,1,0,0,1-.44-.69,2.56,2.56,0,0,1,.33-1.31c.16-.35.31-.7.46-1l.81-1.75a6.1,6.1,0,0,1,.87-1.56,6,6,0,0,1-.53,1.7c-.23.58-.46,1.18-.71,1.8l-.43,1.05a2.23,2.23,0,0,0-.28,1c0,.29.29.43.65.45a10.3,10.3,0,0,0,1.09-.07l1.93-.15A6.38,6.38,0,0,1,967.62,600.73Z" transform="translate(-493.12 -448.78)"/><path class="cls-7" d="M968.57,606.12a77.41,77.41,0,0,1-1-12.65,77.18,77.18,0,0,1,1,12.65Z" transform="translate(-493.12 -448.78)"/><path class="cls-7" d="M947.43,625a3.6,3.6,0,0,1,.16,1.11h-.28c-.17-1.72-.38-3.7-.61-6-.42-3.9-.88-7.06-.73-7.08a7.72,7.72,0,0,1,.51,2c.25,1.27.52,3,.74,5,.27,2.53.37,4.76.37,6l-.28,0A3.42,3.42,0,0,1,947.43,625Z" transform="translate(-493.12 -448.78)"/><path class="cls-7" d="M958.94,612a22.13,22.13,0,0,1-6.54,1.84,12,12,0,0,1,3.2-1.17A11.25,11.25,0,0,1,958.94,612Z" transform="translate(-493.12 -448.78)"/><path class="cls-7" d="M952.18,623.78a5.55,5.55,0,0,1,.8.16,4.49,4.49,0,0,0,2.15-.2,4.23,4.23,0,0,0,2.38-2,3.33,3.33,0,0,0,.4-1.77,2.28,2.28,0,0,0-.84-1.64,2.12,2.12,0,0,0-2.08-.21,8,8,0,0,0-1.85,1.08l-.34.25,0-.41a24.52,24.52,0,0,1-.06-4.23,5.56,5.56,0,0,1,.24-1.61c.12,0-.12,2.37.28,5.79l-.37-.16a7.61,7.61,0,0,1,2-1.18,2.6,2.6,0,0,1,2.57.27,2.78,2.78,0,0,1,1,2,3.7,3.7,0,0,1-.49,2,4.47,4.47,0,0,1-2.69,2.1,4.39,4.39,0,0,1-2.3,0A1.75,1.75,0,0,1,952.18,623.78Z" transform="translate(-493.12 -448.78)"/><path class="cls-7" d="M938,612.48c0,.15-.94.26-2.09.26s-2.09-.11-2.09-.26a8.53,8.53,0,0,1,4.18,0Z" transform="translate(-493.12 -448.78)"/><path class="cls-7" d="M708.73,617c-.14,0-.26-21.84-.26-48.79s.12-48.79.26-48.79.26,21.84.26,48.79S708.87,617,708.73,617Z" transform="translate(-493.12 -448.78)"/><path class="cls-7" d="M711.65,520.28a41.54,41.54,0,0,1-3.31-5.67l.46,0,0,.12a44.29,44.29,0,0,1-2.83,6.08,42,42,0,0,1,2.35-6.28l.05-.12.21-.5.26.47A42.09,42.09,0,0,1,711.65,520.28Z" transform="translate(-493.12 -448.78)"/><path class="cls-7" d="M708.19,507.91c-.09.11-.89-.42-1.53-1.39s-.8-1.92-.66-1.95.5.76,1.1,1.66S708.29,507.8,708.19,507.91Z" transform="translate(-493.12 -448.78)"/><path class="cls-7" d="M706.66,510.72a70.66,70.66,0,0,1,2.66-6.89,10.39,10.39,0,0,1-.93,3.6A10.22,10.22,0,0,1,706.66,510.72Z" transform="translate(-493.12 -448.78)"/><path class="cls-7" d="M701.74,532.28a28.5,28.5,0,0,0,.89-3,29.44,29.44,0,0,0,.07-3.12,5.57,5.57,0,0,1-1,6.12Z" transform="translate(-493.12 -448.78)"/><path class="cls-7" d="M702.7,528.2c.06,0-.12.43-.74.58a1.41,1.41,0,0,1-1.73-1.36,1.44,1.44,0,0,1,.54-1.24,1.51,1.51,0,0,1,1.05-.28c.63.09.85.47.79.5s-.32-.16-.81-.13a1.07,1.07,0,1,0,.11,2.14C702.39,528.39,702.64,528.15,702.7,528.2Z" transform="translate(-493.12 -448.78)"/><path class="cls-7" d="M784.69,610.08c0,.15-18.69.26-41.74.26s-41.74-.11-41.74-.26,18.68-.26,41.74-.26S784.69,609.94,784.69,610.08Z" transform="translate(-493.12 -448.78)"/><path class="cls-7" d="M785.55,610a24.58,24.58,0,0,1-6.68-2.67,13.14,13.14,0,0,1,3.44,1.09A13,13,0,0,1,785.55,610Z" transform="translate(-493.12 -448.78)"/><path class="cls-7" d="M786.46,610.29a9.12,9.12,0,0,1-2.76,1.24,9.35,9.35,0,0,1-2.93.76,8.73,8.73,0,0,1,2.76-1.25A8.85,8.85,0,0,1,786.46,610.29Z" transform="translate(-493.12 -448.78)"/><path class="cls-7" d="M704.81,612.73a2.56,2.56,0,0,1,1.08,1.74,3.76,3.76,0,0,1-.17,2.26,2.51,2.51,0,0,1-.84,1.13,1.42,1.42,0,0,1-1.58.06,3,3,0,0,1-1.2-2.53,2.64,2.64,0,0,1,.93-2.1,2.11,2.11,0,0,1,1.46-.47c.37,0,.54.17.53.19s-.2,0-.53,0a2.12,2.12,0,0,0-1.23.55,2.37,2.37,0,0,0-.68,1.81,2.59,2.59,0,0,0,1,2.1.9.9,0,0,0,1,0,2.06,2.06,0,0,0,.69-.9,3.6,3.6,0,0,0,.25-2A6.49,6.49,0,0,0,704.81,612.73Z" transform="translate(-493.12 -448.78)"/><path class="cls-7" d="M772.79,613.83s.3-.17.7.17a1,1,0,0,1,.35.83,1.7,1.7,0,0,1-.49,1.07c-.59.65-1.66.89-2.15,1.69a1.38,1.38,0,0,0,0,1.35,1.34,1.34,0,0,0,1.28.63,1.31,1.31,0,0,0,1.09-.9,1.37,1.37,0,0,0-.27-1.33,3.45,3.45,0,0,0-1.1-.88,1.74,1.74,0,0,1-1-1,1.41,1.41,0,0,1,.26-1.17,1.58,1.58,0,0,1,.71-.51,1.13,1.13,0,0,1,.71-.11c0,.05-.24.09-.62.29a1.54,1.54,0,0,0-.56.5,1.12,1.12,0,0,0-.15.9c.16.66,1.4.76,2.13,1.7a1.91,1.91,0,0,1,.38,1.8,1.81,1.81,0,0,1-3.3.35,1.85,1.85,0,0,1,0-1.85,3.19,3.19,0,0,1,1.25-1,5.4,5.4,0,0,0,1.06-.68,1.4,1.4,0,0,0,.46-.83.85.85,0,0,0-.2-.67C773.08,613.82,772.79,613.88,772.79,613.83Z" transform="translate(-493.12 -448.78)"/><path class="cls-7" d="M772.55,611.88a10.39,10.39,0,0,1,0-4.62,10.39,10.39,0,0,1,0,4.62Z" transform="translate(-493.12 -448.78)"/><path class="cls-7" d="M794.88,610.18a4.05,4.05,0,0,1-1.43.22l-1.56.09a.6.6,0,0,1-.36-.07.44.44,0,0,1-.18-.46.91.91,0,0,1,.32-.49l.69-.71a2.28,2.28,0,0,0,.84-1.47.93.93,0,0,0-.64-1,1.54,1.54,0,0,0-.92.17c-.22.1-.36.15-.38.12s.08-.14.28-.29a1.54,1.54,0,0,1,1.08-.37,1.31,1.31,0,0,1,1.06,1.34,2.57,2.57,0,0,1-.93,1.81l-.7.7a1.1,1.1,0,0,0-.22.26s-.08,0-.08,0a0,0,0,0,0,0,0l0-.06h.09l1.56,0A4.23,4.23,0,0,1,794.88,610.18Z" transform="translate(-493.12 -448.78)"/><path class="cls-7" d="M719.85,610.08s0-.53-.07-1.43,0-2.27-.07-3.84c-.05-3.24-.1-7.73-.11-12.86l.25.25H715l.26-.26h0v2.71c0,.9,0,1.78,0,2.65,0,1.72,0,3.36,0,4.91,0,3.06-.05,5.73-.07,7.84l-.16-.16,3.53.09c.83,0,1.3,0,1.32.07a9.69,9.69,0,0,1-1.23.07l-3.62.09h-.16v-.16c0-2.11-.05-4.78-.07-7.84,0-1.55,0-3.19,0-4.91V592h0l.26-.26h5.11V592c0,5.24-.06,9.81-.11,13,0,1.54-.06,2.81-.07,3.78A11.35,11.35,0,0,1,719.85,610.08Z" transform="translate(-493.12 -448.78)"/><path class="cls-7" d="M766,610.09s0-.21,0-.56,0-.91,0-1.53c0-1.38,0-3.27-.07-5.6-.06-4.74-.11-11.31-.12-18.75l.26.25h-4.85l.26-.26h0v4.1c0,1.35,0,2.67,0,4,0,2.57,0,5,0,7.28,0,4.49-.06,8.29-.08,11.09l-.14-.14,3.54.08,1,0,.35,0s-.4,0-1.22.06l-3.63.07H761v-.14c0-2.8,0-6.6-.09-11.09,0-2.26,0-4.71,0-7.28,0-1.29,0-2.61,0-4v-4.1h0l.26-.26h5.11v.26c0,7.55-.07,14.2-.12,18.93,0,2.31,0,4.18-.07,5.55,0,.59,0,1.08,0,1.47A2.83,2.83,0,0,1,766,610.09Z" transform="translate(-493.12 -448.78)"/><path class="cls-7" d="M731.52,610.08a6.56,6.56,0,0,1,0-.68c0-.49,0-1.12,0-1.91,0-1.7,0-4.07-.07-7,0-5.94-.07-14.12-.12-23.36l.26.26h-4.85c.52-.52.15-.14.26-.25h0v5.23c0,1.71,0,3.39,0,5,0,3.26,0,6.35,0,9.18,0,5.63-.07,10.28-.09,13.49l-.13-.12,3.57.07.94,0,.34,0a.94.94,0,0,1-.29,0l-.92,0-3.64.07h-.12v-.13c0-3.21,0-7.86-.09-13.49,0-2.83,0-5.92,0-9.18,0-1.63,0-3.31,0-5v-5.23h0c.12-.12-.26.25.26-.27h5.11v.26c0,9.31-.08,17.56-.11,23.54,0,2.9-.06,5.25-.08,6.93,0,.77,0,1.38,0,1.85A3.41,3.41,0,0,1,731.52,610.08Z" transform="translate(-493.12 -448.78)"/><path class="cls-7" d="M743,610s0-.1,0-.28,0-.45,0-.77c0-.72,0-1.7,0-3,0-2.6,0-6.29-.08-10.87,0-9.19-.06-21.9-.11-36.16l.26.26H738.1c.52-.52.14-.13.26-.25v8.38q0,4.09,0,8c0,5.17,0,10,0,14.45-.05,8.79-.09,15.83-.12,20.2l-.1-.1,3.57.06,1,0,.33,0a1.45,1.45,0,0,1-.3,0l-.91,0-3.64.06H738V610c0-4.37-.06-11.41-.11-20.2,0-4.42,0-9.28,0-14.45,0-2.6,0-5.27,0-8V559c.12-.12-.26.25.26-.27h5.11v.26c0,14.34-.08,27.11-.11,36.35,0,4.55-.06,8.23-.08,10.81,0,1.23,0,2.2,0,2.9,0,.3,0,.55,0,.74S743,610,743,610Z" transform="translate(-493.12 -448.78)"/><path class="cls-7" d="M754.66,610a4.13,4.13,0,0,1,0-.46c0-.31,0-.75,0-1.31,0-1.16,0-2.84,0-5,0-4.35,0-10.62-.08-18.38,0-15.53-.06-37-.1-61l.26.26h-4.85c.51-.52.14-.13.25-.24v14.82c0,4.82,0,9.52,0,14.06,0,9.08,0,17.51,0,25-.06,15-.1,26.41-.12,32.22l-.09-.08,3.64.05.91,0h.31l-.28,0-.89,0-3.69,0h-.08V610c0-5.81-.07-17.21-.13-32.22,0-7.53,0-16,0-25,0-4.54,0-9.24,0-14.06v-7.34c0-1.24,0-2.48,0-3.73v-3.75c.12-.12-.26.24.27-.28h5.11v.26c0,24.06-.08,45.62-.11,61.2,0,7.73-.06,14-.08,18.32,0,2.13,0,3.79,0,4.95l0,1.27C754.67,609.84,754.66,610,754.66,610Z" transform="translate(-493.12 -448.78)"/><path class="cls-7" d="M835.91,483.87l.53.16c.35.13.88.28,1.55.55a30.08,30.08,0,0,1,5.58,2.91,30.65,30.65,0,0,1,7.32,6.73,27.24,27.24,0,0,1,5.48,11.94,26.69,26.69,0,0,1-2,15.72,24.58,24.58,0,0,1-5.11,7.33,22.81,22.81,0,0,1-3.65,2.94c-.69.4-1.37.83-2.09,1.19s-1.44.72-2.21,1c-6.1,2.42-13.13,2.52-20.1,1.86-3.51-.34-7-.85-10.65-1.41a64.88,64.88,0,0,1-10.78-2.5,27.3,27.3,0,0,1-9.64-5.42,21.22,21.22,0,0,1-3.53-4.17,22.82,22.82,0,0,1-2.25-4.87,25.69,25.69,0,0,1-1-10.33,27.66,27.66,0,0,1,2.84-9.54,31.75,31.75,0,0,1,13-12.78,43.19,43.19,0,0,1,15.2-4.85,59,59,0,0,1,13.2-.08,86.12,86.12,0,0,1,9.83,1.61c2.67.59,4.72,1.15,6.1,1.53l1.57.46.53.17s-.18,0-.54-.12l-1.58-.41c-1.4-.35-3.45-.87-6.12-1.43a89.17,89.17,0,0,0-9.82-1.52,58.67,58.67,0,0,0-13.12.16,42.88,42.88,0,0,0-15,4.86,31.42,31.42,0,0,0-12.77,12.62,27.14,27.14,0,0,0-2.76,9.37,25,25,0,0,0,1,10.12,22,22,0,0,0,2.2,4.75,20.75,20.75,0,0,0,3.43,4.06,27,27,0,0,0,9.47,5.32,65,65,0,0,0,10.7,2.48c3.58.56,7.12,1.07,10.6,1.41,6.94.67,13.89.57,19.88-1.8A23.32,23.32,0,0,0,854,521.7,26.32,26.32,0,0,0,856,506.22a27.12,27.12,0,0,0-5.35-11.82,30.88,30.88,0,0,0-7.2-6.74,33.16,33.16,0,0,0-5.51-3c-.66-.28-1.18-.45-1.52-.59S835.91,483.87,835.91,483.87Z" transform="translate(-493.12 -448.78)"/><path class="cls-7" d="M801,517.69a4.1,4.1,0,0,1-1.07.13c-.69,0-1.68.1-2.91.15l-1,0a3.57,3.57,0,0,1-1.11,0,.9.9,0,0,1-.55-.43,1.72,1.72,0,0,1-.18-.63l-.08-1.2c-.09-1.64-.19-3.42-.3-5.29s-.23-3.65-.24-5.31a4.89,4.89,0,0,1,.55-2.33,3.29,3.29,0,0,1,1.61-1.37,6.43,6.43,0,0,1,2.94-.32,2.89,2.89,0,0,1,1.06.19,6.31,6.31,0,0,1-1.07,0,6.87,6.87,0,0,0-2.79.46,2.91,2.91,0,0,0-1.37,1.24,4.52,4.52,0,0,0-.45,2.13c0,1.59.19,3.4.28,5.27s.18,3.65.26,5.29c.08.78-.09,1.75.46,1.88a3.78,3.78,0,0,0,1,.06h1c1.23,0,2.23,0,2.92,0A4.55,4.55,0,0,1,801,517.69Z" transform="translate(-493.12 -448.78)"/><path class="cls-7" d="M799.49,509.12a7.46,7.46,0,0,1-2.72.31,7.33,7.33,0,0,1-2.73-.2,7.69,7.69,0,0,1,2.72-.32A7.13,7.13,0,0,1,799.49,509.12Z" transform="translate(-493.12 -448.78)"/><path class="cls-7" d="M813.12,506.69a24.51,24.51,0,0,1-4.14.21,26.21,26.21,0,0,1-4.15.05,12.49,12.49,0,0,1,4.13-.57A12.7,12.7,0,0,1,813.12,506.69Z" transform="translate(-493.12 -448.78)"/><path class="cls-7" d="M813.91,513a22.16,22.16,0,0,1-8.17-.2,59.67,59.67,0,0,1,8.17.2Z" transform="translate(-493.12 -448.78)"/><path class="cls-7" d="M835.92,516.71s0-.57,0-1.6a16.31,16.31,0,0,0-.79-4.31,4.49,4.49,0,0,0-1.51-2.47,1.33,1.33,0,0,0-1.44.1,3.48,3.48,0,0,0-1.08,1.35c-1.16,2.24-1.31,5.12-1.33,8.13l-.51,0a33.78,33.78,0,0,0-.07-6,23.1,23.1,0,0,0-.35-2.42,3.08,3.08,0,0,0-1.1-1.89,1.64,1.64,0,0,0-1.91-.05,2.87,2.87,0,0,0-1.19,1.65,10.44,10.44,0,0,0-.38,2.08c-.08.69-.13,1.37-.17,2a35.66,35.66,0,0,0,0,3.73l-.39,0c-.12-2.94-.21-5.35-.28-7.11,0-.79,0-1.43,0-1.94a2.71,2.71,0,0,1,0-.68,3,3,0,0,1,.09.67c0,.51.09,1.15.15,1.94.11,1.76.27,4.17.45,7.1l-.39,0a31.16,31.16,0,0,1-.06-3.78c0-.67.08-1.36.15-2.06a11.61,11.61,0,0,1,.38-2.18,3.39,3.39,0,0,1,1.4-1.93,2.34,2.34,0,0,1,1.23-.37,2.25,2.25,0,0,1,1.25.44,3.64,3.64,0,0,1,1.3,2.18,23.33,23.33,0,0,1,.36,2.49,33.84,33.84,0,0,1,.06,6.11l-.51,0c0-3,.21-6,1.45-8.32a3.93,3.93,0,0,1,1.24-1.5,1.74,1.74,0,0,1,1.86-.09,4.7,4.7,0,0,1,1.63,2.71,14.86,14.86,0,0,1,.65,4.41c0,.52,0,.92-.06,1.19A1.4,1.4,0,0,1,835.92,516.71Z" transform="translate(-493.12 -448.78)"/><path class="cls-7" d="M847.39,515.88s-.18.21-.62.44a5,5,0,0,1-2,.5,5.39,5.39,0,0,1-3-.82,5.31,5.31,0,0,1-1.67-6.93,5.29,5.29,0,0,1,2.3-2.1,4.89,4.89,0,0,1,2-.49c.5,0,.77.08.76.11a7.45,7.45,0,0,0-2.63.7,5.26,5.26,0,0,0-2,2A4.94,4.94,0,0,0,842,515.6a5.14,5.14,0,0,0,2.74.85A7.36,7.36,0,0,0,847.39,515.88Z" transform="translate(-493.12 -448.78)"/><path class="cls-7" d="M850.48,501a27.85,27.85,0,0,0-5.83,1l-.88.29.66-.67a17.93,17.93,0,0,0,3.25-4,5.9,5.9,0,0,0,.68-4c-.14-.6-.51-1.09-1-1.11a3.12,3.12,0,0,0-1.47.41,5.32,5.32,0,0,0-1.8,1.45c-.36.43-.5.71-.54.69a1.82,1.82,0,0,1,.37-.81,5.17,5.17,0,0,1,1.8-1.66,3.58,3.58,0,0,1,1.67-.51,1.35,1.35,0,0,1,1,.46,2.31,2.31,0,0,1,.49,1,6.21,6.21,0,0,1-.68,4.39,17.1,17.1,0,0,1-3.39,4.05l-.23-.39a17,17,0,0,1,4.3-.69A5.7,5.7,0,0,1,850.48,501Z" transform="translate(-493.12 -448.78)"/><path class="cls-7" d="M964.52,622.9a4.09,4.09,0,0,1,.87-.25,7.05,7.05,0,0,0,2.17-1,4.25,4.25,0,0,0,1.8-2.85,3.14,3.14,0,0,0-.39-1.92,2.4,2.4,0,0,0-1.63-1.2,2.22,2.22,0,0,0-2,.58l-.37-.35a10.09,10.09,0,0,1,1.56-1.11,2.53,2.53,0,0,0,1-1.15,1,1,0,0,0-.24-1.17,1.58,1.58,0,0,0-1.1-.37,3.3,3.3,0,0,0-1.63.69c-.36.25-.56.4-.58.37s.14-.21.46-.51a3.17,3.17,0,0,1,1.73-.88,1.92,1.92,0,0,1,1.37.4,1.43,1.43,0,0,1,.4,1.62,2.91,2.91,0,0,1-1.17,1.4,9.52,9.52,0,0,0-1.47,1.06l-.37-.35a2.7,2.7,0,0,1,2.51-.74,2.87,2.87,0,0,1,2,1.46,3.57,3.57,0,0,1,.43,2.23,4.51,4.51,0,0,1-2.07,3.09,6.13,6.13,0,0,1-2.34.89A2.44,2.44,0,0,1,964.52,622.9Z" transform="translate(-493.12 -448.78)"/><path class="cls-7" d="M977.38,627.8c0,.14-7.83,1.37-17.52,2.75s-17.58,2.37-17.6,2.23,7.82-1.38,17.52-2.75S977.36,627.66,977.38,627.8Z" transform="translate(-493.12 -448.78)"/><path class="cls-7" d="M914.67,633c0,.14-7.76,1-17.36,2s-17.4,1.66-17.41,1.52,7.75-1.06,17.36-2S914.65,632.85,914.67,633Z" transform="translate(-493.12 -448.78)"/><path class="cls-7" d="M916.59,637.32c0,.14-7.26,1.09-16.26,2.11S884,641.16,884,641s7.27-1.09,16.26-2.11S916.57,637.18,916.59,637.32Z" transform="translate(-493.12 -448.78)"/><rect class="cls-8" x="294.76" y="233.5" width="34.41" height="3.75"/><path class="cls-9" d="M835.79,642.46V686H910.6ZM847.26,660l31.1,18.42h-31.1Z" transform="translate(-493.12 -448.78)"/><path class="cls-5" d="M843,646.64a16.95,16.95,0,0,1-3.13,5.05,16.95,16.95,0,0,1,3.13-5.05Z" transform="translate(-493.12 -448.78)"/><path class="cls-5" d="M854.07,653a8.43,8.43,0,0,1-1.33,2.59,8.56,8.56,0,0,1-1.77,2.32,8.17,8.17,0,0,1,1.33-2.59A8.33,8.33,0,0,1,854.07,653Z" transform="translate(-493.12 -448.78)"/><path class="cls-5" d="M865.17,659.41a16.36,16.36,0,0,1-3.6,4.55,16.36,16.36,0,0,1,3.6-4.55Z" transform="translate(-493.12 -448.78)"/><path class="cls-5" d="M876.07,666a8.41,8.41,0,0,1-1.59,2.44c-1,1.26-1.89,2.2-2,2.11a8.22,8.22,0,0,1,1.6-2.43A8.32,8.32,0,0,1,876.07,666Z" transform="translate(-493.12 -448.78)"/><path class="cls-5" d="M887.46,672.57a16.93,16.93,0,0,1-3.36,4.91,8.66,8.66,0,0,1,1.47-2.6A9,9,0,0,1,887.46,672.57Z" transform="translate(-493.12 -448.78)"/><path class="cls-5" d="M899.3,679.44a7.69,7.69,0,0,1-1.31,2.47,7.88,7.88,0,0,1-1.75,2.2,14.92,14.92,0,0,1,3.06-4.67Z" transform="translate(-493.12 -448.78)"/><path class="cls-5" d="M846.43,648.65c.12.08-.13.7-.56,1.4s-.88,1.19-1,1.12.13-.7.56-1.4S846.31,648.58,846.43,648.65Z" transform="translate(-493.12 -448.78)"/><path class="cls-5" d="M850.07,650.68c.12.08-.13.7-.56,1.4s-.88,1.19-1,1.11.13-.7.56-1.39S850,650.6,850.07,650.68Z" transform="translate(-493.12 -448.78)"/><path class="cls-5" d="M858.16,655.44c.13.07-.12.7-.56,1.39s-.87,1.2-1,1.12.13-.7.56-1.39S858,655.36,858.16,655.44Z" transform="translate(-493.12 -448.78)"/><path class="cls-5" d="M861.8,657.47c.12.07-.13.7-.56,1.39s-.88,1.2-1,1.12.13-.7.56-1.39S861.68,657.39,861.8,657.47Z" transform="translate(-493.12 -448.78)"/><path class="cls-5" d="M869.12,662c.12.08-.13.7-.56,1.39s-.88,1.2-1,1.12.12-.7.55-1.39S869,661.92,869.12,662Z" transform="translate(-493.12 -448.78)"/><path class="cls-5" d="M872.59,664c.12.08-.13.7-.56,1.39s-.88,1.2-1,1.12.13-.7.56-1.39S872.47,664,872.59,664Z" transform="translate(-493.12 -448.78)"/><path class="cls-5" d="M880.08,668.35c.12.08-.13.7-.56,1.4s-.88,1.19-1,1.12.13-.7.56-1.4S880,668.28,880.08,668.35Z" transform="translate(-493.12 -448.78)"/><path class="cls-5" d="M884.1,670.73c.12.07-.13.7-.56,1.39s-.88,1.2-1,1.12.13-.7.56-1.39S884,670.65,884.1,670.73Z" transform="translate(-493.12 -448.78)"/><path class="cls-5" d="M891.34,675c.12.08-.13.7-.56,1.4s-.88,1.19-1,1.12.12-.7.55-1.4S891.21,674.89,891.34,675Z" transform="translate(-493.12 -448.78)"/><path class="cls-5" d="M895.51,677.36c.13.07-.13.7-.56,1.39s-.87,1.2-1,1.12.13-.7.56-1.4S895.39,677.28,895.51,677.36Z" transform="translate(-493.12 -448.78)"/><path class="cls-10" d="M787.91,601.09l19.51,6.3S821,599.06,821.74,596s-.65-3.53-1.17-3.47c0,0,4.83-4.22,2.27-8.08,0,0,4.3-4.54,1.41-7.26l-1.57-1.28s2.09-4.19.42-7.36a2.36,2.36,0,0,0-2.94-1.06l-16,5.94L794,580.28Z" transform="translate(-493.12 -448.78)"/><polygon class="cls-8" points="318.64 124.99 324.09 105.2 328.6 104.77 324.34 120.49 318.64 124.99"/><path class="cls-10" d="M789.59,594.93,794.38,579l17.28-12.93a5.82,5.82,0,0,1,0,5.93c-1.83,3.26-4.46,5.91-5,6.82s-3.06,5.62-3.06,5.62a20.38,20.38,0,0,1,.55,13.17" transform="translate(-493.12 -448.78)"/><path class="cls-11" d="M804.09,597.6a6.27,6.27,0,0,1,.16-.92c.07-.3.14-.68.2-1.12s.15-.95.2-1.52a21.76,21.76,0,0,0,0-4.2,18,18,0,0,0-1.29-5.32l0-.1.05-.08,2.18-4.06.59-1.08c.1-.19.19-.37.3-.56s.26-.35.4-.52c.54-.66,1.09-1.33,1.66-2a28.83,28.83,0,0,0,3.08-4.53,5.6,5.6,0,0,0-.12-5.37l.37.06-1.48,1.11-15.83,11.78.08-.11c-1.47,4.75-2.69,8.72-3.57,11.55-.43,1.35-.77,2.42-1,3.21l-.28.84c-.07.19-.11.29-.12.28a.87.87,0,0,1,0-.3l.23-.85c.22-.81.53-1.89.91-3.25.83-2.85,2-6.83,3.39-11.61l0-.07.06,0L810,567l1.48-1.11.23-.17.14.23a6.08,6.08,0,0,1,.14,5.9,28.86,28.86,0,0,1-3.15,4.6l-1.68,2c-.13.17-.26.33-.37.49s-.21.36-.31.54c-.2.37-.39.73-.59,1.08-.78,1.41-1.51,2.75-2.21,4v-.18a18.21,18.21,0,0,1,1.24,5.47,20.55,20.55,0,0,1-.09,4.24,12.87,12.87,0,0,1-.25,1.53,9.52,9.52,0,0,1-.25,1.11A5.87,5.87,0,0,1,804.09,597.6Z" transform="translate(-493.12 -448.78)"/><path class="cls-11" d="M822.67,576a7.84,7.84,0,0,1-1.16.78l-3.23,2-4.84,2.83a5.38,5.38,0,0,1-3.27,1,2.55,2.55,0,0,1-1.68-.88,2.79,2.79,0,0,1-.58-1.86,5.79,5.79,0,0,1,1.52-3.32,28.81,28.81,0,0,1,2.2-2.51,29.64,29.64,0,0,1,4.3-3.63,27.65,27.65,0,0,1,3.26-1.95,5.36,5.36,0,0,1,1.28-.54,8.56,8.56,0,0,1-1.19.72c-.76.45-1.86,1.13-3.14,2.07a32.4,32.4,0,0,0-4.17,3.67,29.64,29.64,0,0,0-2.14,2.48,5.34,5.34,0,0,0-1.4,3,2.33,2.33,0,0,0,.46,1.52,2,2,0,0,0,1.35.7,4.87,4.87,0,0,0,3-.87l4.89-2.73,3.32-1.81A6.68,6.68,0,0,1,822.67,576Z" transform="translate(-493.12 -448.78)"/><path class="cls-11" d="M822.84,584.46a5.53,5.53,0,0,1-1,.82c-.68.5-1.67,1.19-2.93,2a49.15,49.15,0,0,1-4.54,2.7,4.57,4.57,0,0,1-1.49.56,2.27,2.27,0,0,1-1.68-.44,3.36,3.36,0,0,1-1.15-3.25,6.42,6.42,0,0,1,1.67-3,27.06,27.06,0,0,1,2.27-2.18,41.28,41.28,0,0,1,4.26-3.13c1.26-.82,2.31-1.44,3-1.85a6,6,0,0,1,1.16-.6,6.12,6.12,0,0,1-1,.77l-2.94,2a49.66,49.66,0,0,0-4.15,3.2,27.65,27.65,0,0,0-2.2,2.15,6,6,0,0,0-1.54,2.75,2.92,2.92,0,0,0,.94,2.76,1.85,1.85,0,0,0,1.31.35,4,4,0,0,0,1.34-.5c1.77-.88,3.29-1.8,4.57-2.58l3-1.88A6.91,6.91,0,0,1,822.84,584.46Z" transform="translate(-493.12 -448.78)"/><path class="cls-11" d="M820.57,592.54a3.9,3.9,0,0,1-.82.61c-.55.36-1.34.87-2.35,1.47a26.23,26.23,0,0,1-3.69,1.87,10.88,10.88,0,0,1-2.38.73,2.33,2.33,0,0,1-1.4-.2,1.6,1.6,0,0,1-.79-1.27,3.55,3.55,0,0,1,.11-1.42,2.89,2.89,0,0,1,.7-1.19,13.41,13.41,0,0,1,1.81-1.68,31.6,31.6,0,0,1,3.39-2.35c1-.62,1.83-1.07,2.42-1.37a3.69,3.69,0,0,1,.93-.41,4.11,4.11,0,0,1-.83.58l-2.32,1.51a38.86,38.86,0,0,0-3.29,2.41c-1.1,1-2.69,2.1-2.41,3.84a1.12,1.12,0,0,0,.53.9,1.88,1.88,0,0,0,1.09.14,11.62,11.62,0,0,0,2.27-.66,31.26,31.26,0,0,0,3.68-1.75A28.47,28.47,0,0,1,820.57,592.54Z" transform="translate(-493.12 -448.78)"/><path class="cls-11" d="M821.56,596.23a2.59,2.59,0,0,1-.45.81,15.23,15.23,0,0,1-1.58,2,22.58,22.58,0,0,1-2.8,2.52c-.56.43-1.17.86-1.81,1.28a6.63,6.63,0,0,1-2.19,1.1,1.9,1.9,0,0,1-1.34-.15,1.85,1.85,0,0,1-.84-1,3.13,3.13,0,0,1,.24-2.33,12.22,12.22,0,0,1,2.09-3.15,8.57,8.57,0,0,1,2-1.6,2.22,2.22,0,0,1,.86-.35,11.54,11.54,0,0,0-4.5,5.3,2.66,2.66,0,0,0-.2,2,1.3,1.3,0,0,0,1.6.85,6.58,6.58,0,0,0,2-1c.64-.42,1.24-.83,1.8-1.25a25.49,25.49,0,0,0,2.82-2.38C820.76,597.29,821.49,596.18,821.56,596.23Z" transform="translate(-493.12 -448.78)"/><path class="cls-12" d="M786.33,600.55l-24,51.34-21-27.42c-13.14-16.75-23.94-20.75-23.94-20.75l-19-5.1-39.1-2.07-3.36,2-23.51,9.91s2.23,25.4,6.67,45.58,8.11,42.25,8.11,42.25c1.62,14.53-9.15,70.26-9.15,70.26H745.68l-23-69.24a250,250,0,0,0,6.55-25.66h0l20,13.65s30,16.86,40.92-11.48l18.9-66Z" transform="translate(-493.12 -448.78)"/><path class="cls-5" d="M728,672.66a7.86,7.86,0,0,1,0-1.5c0-.48,0-1.07,0-1.76s0-1.46,0-2.32a55.87,55.87,0,0,0-.49-6,59.22,59.22,0,0,0-1.51-7.23,57.32,57.32,0,0,0-2.49-7,55.87,55.87,0,0,0-2.72-5.39c-.41-.75-.84-1.4-1.2-2s-.68-1.08-1-1.48a8,8,0,0,1-.79-1.27,7.53,7.53,0,0,1,1,1.15c.3.39.65.86,1,1.44s.84,1.2,1.27,2a46.75,46.75,0,0,1,2.84,5.38,52.3,52.3,0,0,1,2.55,7A53.42,53.42,0,0,1,728,661a48.37,48.37,0,0,1,.39,6.08c0,.86,0,1.65-.07,2.33s-.07,1.28-.13,1.76A9,9,0,0,1,728,672.66Z" transform="translate(-493.12 -448.78)"/><path class="cls-5" d="M724.09,630.09c.18.06-.66,2.3-1.87,4.95a25.9,25.9,0,0,1-2.43,4.71,28.48,28.48,0,0,1,2-4.92c.6-1.33,1.16-2.53,1.59-3.38A6.32,6.32,0,0,1,724.09,630.09Z" transform="translate(-493.12 -448.78)"/><path class="cls-5" d="M764,666.64a7.5,7.5,0,0,1-1.11-2.06,20.81,20.81,0,0,1-1.41-5.48,20.43,20.43,0,0,1,.16-5.67,6.92,6.92,0,0,1,.63-2.25A35.25,35.25,0,0,0,762,659,36.52,36.52,0,0,0,764,666.64Z" transform="translate(-493.12 -448.78)"/><path class="cls-8" d="M741.31,645.1c.08,0,.23,1.21.59,3.15a55.7,55.7,0,0,0,4.77,14.59,30.1,30.1,0,0,1,1.38,2.89s-.21-.23-.51-.69-.72-1.16-1.2-2a44,44,0,0,1-3.06-7.14,44.7,44.7,0,0,1-1.75-7.56c-.13-1-.2-1.79-.23-2.34A2.56,2.56,0,0,1,741.31,645.1Z" transform="translate(-493.12 -448.78)"/><path class="cls-8" d="M745.05,658a28.88,28.88,0,0,0,1.55-2.79,12.27,12.27,0,0,0,.72-7.47l-.06-.25.47.09a14.65,14.65,0,0,0-2.61,6.92c-.2,1.91,0,3.1-.09,3.11a2.63,2.63,0,0,1-.19-.83,12.05,12.05,0,0,1-.08-2.31,14,14,0,0,1,2.55-7.2l.34-.47.12.56.06.26a11.94,11.94,0,0,1-.89,7.74,10.73,10.73,0,0,1-1.27,2C745.31,657.76,745.08,658,745.05,658Z" transform="translate(-493.12 -448.78)"/><path class="cls-8" d="M742,654.05a2.89,2.89,0,0,1-.87-.31,14.93,14.93,0,0,1-2.22-1.23,17.93,17.93,0,0,1-2.9-2.42,17.61,17.61,0,0,1-1.44-1.7,8.33,8.33,0,0,1-.68-1,1.65,1.65,0,0,1-.18-1.38,1,1,0,0,1,.65-.51,1.33,1.33,0,0,1,.73.1,5.46,5.46,0,0,1,1,.66,17.19,17.19,0,0,1,4.1,4.36,14.09,14.09,0,0,1,1.21,2.23,2.74,2.74,0,0,1,.3.88c-.09,0-.59-1.18-1.81-2.9a17.69,17.69,0,0,0-2.43-2.77,16.63,16.63,0,0,0-1.67-1.39,5.12,5.12,0,0,0-.93-.59c-.32-.14-.61-.08-.71.15a1.15,1.15,0,0,0,.16.92,8.47,8.47,0,0,0,.63.93,18.19,18.19,0,0,0,1.38,1.68,20,20,0,0,0,2.76,2.44C740.85,653.45,742.07,654,742,654.05Z" transform="translate(-493.12 -448.78)"/><path class="cls-8" d="M743.37,662.44a2,2,0,0,1-.73.24,8.1,8.1,0,0,1-2.08.19,9.64,9.64,0,0,1-6.36-2.73l-.32-.31.43-.12.68-.19a9.83,9.83,0,0,1,7.26,1.23,8.42,8.42,0,0,1,1.75,1.42,2.35,2.35,0,0,1,.5.67,20.9,20.9,0,0,0-2.44-1.78,10,10,0,0,0-6.95-1l-.65.18.11-.43a9.84,9.84,0,0,0,6,2.73A24.9,24.9,0,0,0,743.37,662.44Z" transform="translate(-493.12 -448.78)"/><path class="cls-8" d="M658,666.49a2.62,2.62,0,0,1,0,.87c0,.56-.1,1.36-.23,2.34a43.83,43.83,0,0,1-1.75,7.57,44.42,44.42,0,0,1-3.06,7.14c-.47.87-.89,1.56-1.19,2a3.21,3.21,0,0,1-.52.7,27.6,27.6,0,0,1,1.38-2.89,55.93,55.93,0,0,0,4.77-14.6C657.74,667.7,657.89,666.49,658,666.49Z" transform="translate(-493.12 -448.78)"/><path class="cls-8" d="M654.23,679.34s-.26-.19-.62-.62a10.45,10.45,0,0,1-1.26-2,11.84,11.84,0,0,1-.9-7.73l.06-.27.13-.56.34.48a14,14,0,0,1,2.54,7.19,11.38,11.38,0,0,1-.08,2.32,2.41,2.41,0,0,1-.19.82c-.09,0,.11-1.2-.09-3.11a14.62,14.62,0,0,0-2.61-6.92l.47-.09-.06.25a12.27,12.27,0,0,0,.72,7.47A27.39,27.39,0,0,0,654.23,679.34Z" transform="translate(-493.12 -448.78)"/><path class="cls-8" d="M657.26,675.44c0-.08,1.18-.6,2.88-1.84a19.46,19.46,0,0,0,2.76-2.45,18.09,18.09,0,0,0,1.39-1.67,10.13,10.13,0,0,0,.62-.94,1.2,1.2,0,0,0,.17-.92c-.11-.23-.39-.28-.72-.14a5.64,5.64,0,0,0-.93.58,21.58,21.58,0,0,0-1.67,1.39,19.23,19.23,0,0,0-2.43,2.77c-1.22,1.72-1.72,2.95-1.81,2.91a2.74,2.74,0,0,1,.3-.88A15,15,0,0,1,659,672a17.16,17.16,0,0,1,2.4-2.91,19.22,19.22,0,0,1,1.7-1.45,5.27,5.27,0,0,1,1-.65,1.26,1.26,0,0,1,.73-.1.92.92,0,0,1,.65.5,1.65,1.65,0,0,1-.18,1.38,8.69,8.69,0,0,1-.67,1,17.67,17.67,0,0,1-1.45,1.7,16.94,16.94,0,0,1-2.9,2.42,14.5,14.5,0,0,1-2.21,1.23A2.65,2.65,0,0,1,657.26,675.44Z" transform="translate(-493.12 -448.78)"/><path class="cls-8" d="M655.91,683.83a20.06,20.06,0,0,0,2.79.07,9.72,9.72,0,0,0,6-2.73l.11.43-.65-.17a9.89,9.89,0,0,0-6.95,1,19.83,19.83,0,0,0-2.43,1.77s.14-.26.49-.66a8.41,8.41,0,0,1,1.75-1.43,9.84,9.84,0,0,1,7.26-1.22l.68.19.43.11-.32.32a9.62,9.62,0,0,1-6.35,2.72,8.21,8.21,0,0,1-2.09-.18A1.87,1.87,0,0,1,655.91,683.83Z" transform="translate(-493.12 -448.78)"/><path class="cls-8" d="M695.11,631.22s.24.2.61.62.87,1,1.46,1.84A43.92,43.92,0,0,1,704,647.57c.27,1,.46,1.74.56,2.28a3.25,3.25,0,0,1,.11.86,29.46,29.46,0,0,1-1-3,57.66,57.66,0,0,0-2.9-7.13,58.86,58.86,0,0,0-3.86-6.66A27.88,27.88,0,0,1,695.11,631.22Z" transform="translate(-493.12 -448.78)"/><path class="cls-8" d="M701.38,643a2.53,2.53,0,0,1-.87,0,9.81,9.81,0,0,1-2.32-.56,11.88,11.88,0,0,1-6-4.92l-.14-.23-.31-.49.58.1a13.9,13.9,0,0,1,6.84,3.39,11.92,11.92,0,0,1,1.56,1.71,2.78,2.78,0,0,1,.44.72c-.08.06-.77-.93-2.24-2.16a14.6,14.6,0,0,0-6.69-3.15l.27-.38.14.22a12.22,12.22,0,0,0,5.72,4.85A29.39,29.39,0,0,0,701.38,643Z" transform="translate(-493.12 -448.78)"/><path class="cls-8" d="M700.84,638.14c-.09,0,.42-1.26.78-3.34a20.11,20.11,0,0,0,.27-3.68,16.41,16.41,0,0,0-.18-2.16,7.54,7.54,0,0,0-.2-1.11,1.22,1.22,0,0,0-.53-.78c-.23-.08-.47.07-.61.4a4.67,4.67,0,0,0-.25,1.07,16.72,16.72,0,0,0-.23,2.16,18.27,18.27,0,0,0,.19,3.68c.32,2.08.81,3.31.73,3.34a2.86,2.86,0,0,1-.41-.84,15.15,15.15,0,0,1-.69-2.44,16.94,16.94,0,0,1-.3-3.76,17.74,17.74,0,0,1,.2-2.23,5.87,5.87,0,0,1,.29-1.19,1.21,1.21,0,0,1,.46-.58.92.92,0,0,1,.81-.09,1.63,1.63,0,0,1,.84,1.11,9,9,0,0,1,.21,1.19,17.28,17.28,0,0,1,.15,2.23,18.39,18.39,0,0,1-.39,3.75,15.68,15.68,0,0,1-.73,2.43A2.86,2.86,0,0,1,700.84,638.14Z" transform="translate(-493.12 -448.78)"/><path class="cls-8" d="M705.72,645.09a22.32,22.32,0,0,0,2-1.9,9.78,9.78,0,0,0,2.4-6.15l.38.24-.59.32a9.94,9.94,0,0,0-4.26,5.59,19.63,19.63,0,0,0-.51,3,2.52,2.52,0,0,1-.11-.82,8.7,8.7,0,0,1,.26-2.25,9.89,9.89,0,0,1,4.35-5.94c.22-.11.43-.23.62-.34l.39-.21v.45a9.6,9.6,0,0,1-2.66,6.38,8.64,8.64,0,0,1-1.62,1.33A2.17,2.17,0,0,1,705.72,645.09Z" transform="translate(-493.12 -448.78)"/><path class="cls-8" d="M663,743.7s.24.2.61.62.87,1,1.47,1.84a43.61,43.61,0,0,1,6.8,13.89c.27,1,.46,1.74.56,2.28a2.77,2.77,0,0,1,.11.86,29.46,29.46,0,0,1-1-3,55.43,55.43,0,0,0-6.76-13.79A30.55,30.55,0,0,1,663,743.7Z" transform="translate(-493.12 -448.78)"/><path class="cls-8" d="M669.23,755.52a2.62,2.62,0,0,1-.88,0,10.28,10.28,0,0,1-2.31-.56,11.9,11.9,0,0,1-6-4.92l-.14-.23-.3-.49.57.1a13.9,13.9,0,0,1,6.84,3.38,11.83,11.83,0,0,1,1.56,1.72,2.45,2.45,0,0,1,.44.72c-.07.06-.76-.93-2.24-2.16a14.6,14.6,0,0,0-6.69-3.15l.27-.38.14.22a12.22,12.22,0,0,0,5.72,4.85A28.25,28.25,0,0,0,669.23,755.52Z" transform="translate(-493.12 -448.78)"/><path class="cls-8" d="M668.68,750.61c-.09,0,.42-1.25.78-3.33a19.26,19.26,0,0,0,.27-3.68,18.58,18.58,0,0,0-.17-2.17,9.31,9.31,0,0,0-.21-1.1,1.18,1.18,0,0,0-.52-.78c-.24-.08-.48.07-.61.4A4.66,4.66,0,0,0,668,741a16.53,16.53,0,0,0-.23,2.16,18.27,18.27,0,0,0,.19,3.68c.32,2.08.82,3.31.73,3.34a2.72,2.72,0,0,1-.4-.84,13.56,13.56,0,0,1-.69-2.44,16.94,16.94,0,0,1-.31-3.76,16.11,16.11,0,0,1,.21-2.23,5.22,5.22,0,0,1,.28-1.19,1.34,1.34,0,0,1,.46-.58.92.92,0,0,1,.81-.09,1.6,1.6,0,0,1,.84,1.11,9,9,0,0,1,.21,1.19,17.28,17.28,0,0,1,.15,2.23,17.71,17.71,0,0,1-.39,3.75,15,15,0,0,1-.73,2.43A2.54,2.54,0,0,1,668.68,750.61Z" transform="translate(-493.12 -448.78)"/><path class="cls-8" d="M673.56,757.57a22.32,22.32,0,0,0,2.05-1.9,9.72,9.72,0,0,0,2.4-6.15l.38.24-.58.32a10,10,0,0,0-4.27,5.59,18.69,18.69,0,0,0-.5,3,2.08,2.08,0,0,1-.12-.82,8.79,8.79,0,0,1,.27-2.25,9.81,9.81,0,0,1,4.35-5.94l.62-.34.38-.21v.45a9.59,9.59,0,0,1-2.65,6.38,8.34,8.34,0,0,1-1.63,1.33A2.17,2.17,0,0,1,673.56,757.57Z" transform="translate(-493.12 -448.78)"/><path class="cls-8" d="M789.56,630.29a2.68,2.68,0,0,1-.17.85c-.14.54-.39,1.3-.73,2.24a43.38,43.38,0,0,1-7.82,13.34c-.65.76-1.2,1.35-1.6,1.73s-.62.59-.65.57a28.65,28.65,0,0,1,2-2.53,55.26,55.26,0,0,0,7.76-13.25A31.3,31.3,0,0,1,789.56,630.29Z" transform="translate(-493.12 -448.78)"/><path class="cls-8" d="M783.17,642.05a2.74,2.74,0,0,1-.46-.74,10.22,10.22,0,0,1-.81-2.24,11.82,11.82,0,0,1,.77-7.75l.11-.24.24-.53.23.54a13.92,13.92,0,0,1,1,7.57,10.94,10.94,0,0,1-.57,2.25c-.19.51-.33.78-.36.76s.36-1.15.57-3.06a14.65,14.65,0,0,0-1.07-7.31h.47l-.11.24a12.21,12.21,0,0,0-.88,7.44A29.45,29.45,0,0,0,783.17,642.05Z" transform="translate(-493.12 -448.78)"/><path class="cls-8" d="M787,638.89c0-.1,1.28-.35,3.21-1.2a18.86,18.86,0,0,0,3.22-1.8,20,20,0,0,0,1.71-1.34,10.07,10.07,0,0,0,.81-.78,1.23,1.23,0,0,0,.36-.87c-.06-.24-.33-.36-.67-.29a5.13,5.13,0,0,0-1,.37,17.45,17.45,0,0,0-1.93,1,17.91,17.91,0,0,0-3,2.19c-1.56,1.42-2.32,2.51-2.39,2.45a2.83,2.83,0,0,1,.48-.8,14.71,14.71,0,0,1,1.65-1.92,17,17,0,0,1,3-2.33,15.9,15.9,0,0,1,2-1.06,5,5,0,0,1,1.15-.42,1.27,1.27,0,0,1,.74.06.88.88,0,0,1,.52.63,1.59,1.59,0,0,1-.46,1.31c-.3.33-.58.56-.87.83a17.41,17.41,0,0,1-1.78,1.35,17.2,17.2,0,0,1-3.34,1.75,14.51,14.51,0,0,1-2.43.74A3.07,3.07,0,0,1,787,638.89Z" transform="translate(-493.12 -448.78)"/><path class="cls-8" d="M783.87,646.8a23.65,23.65,0,0,0,2.71.66,9.74,9.74,0,0,0,6.45-1.4v.45l-.59-.31a10,10,0,0,0-7-.47,18.83,18.83,0,0,0-2.76,1.22s.19-.23.63-.55a8.55,8.55,0,0,1,2-1,9.79,9.79,0,0,1,7.35.35l.63.33.39.2-.38.24a9.57,9.57,0,0,1-6.78,1.31,8.32,8.32,0,0,1-2-.62A2,2,0,0,1,783.87,646.8Z" transform="translate(-493.12 -448.78)"/><path class="cls-8" d="M658.23,658.67a13.2,13.2,0,0,0,1-2.66,7.88,7.88,0,0,0-1.41-6.42l.4,0-.08.09a6.23,6.23,0,0,0-1.2,6.38,15.35,15.35,0,0,0,1.28,2.59,5.52,5.52,0,0,1-1.63-2.47,6.41,6.41,0,0,1-.48-3.21,6.71,6.71,0,0,1,1.64-3.64l.08-.1.21-.23.19.25a7.92,7.92,0,0,1,1.35,6.83,6.61,6.61,0,0,1-.86,2C658.45,658.49,658.25,658.69,658.23,658.67Z" transform="translate(-493.12 -448.78)"/><path class="cls-8" d="M709.05,622.3a13.8,13.8,0,0,0,2.36-1.58,7.82,7.82,0,0,0,2.6-6l.31.24-.11,0a6.42,6.42,0,0,0-3.21,1.82,6.29,6.29,0,0,0-1.48,2.67,14.16,14.16,0,0,0-.47,2.85,5.38,5.38,0,0,1,.11-2.95,6.4,6.4,0,0,1,1.49-2.9,6.66,6.66,0,0,1,3.44-2l.13,0,.3-.07v.31a7.63,7.63,0,0,1-.87,3.85,7.72,7.72,0,0,1-2,2.49,6.6,6.6,0,0,1-1.84,1.1A1.91,1.91,0,0,1,709.05,622.3Z" transform="translate(-493.12 -448.78)"/><path class="cls-8" d="M790.7,618.71A14.42,14.42,0,0,0,792,616.2a7.91,7.91,0,0,0-.58-6.55l.39.07-.09.08a6.45,6.45,0,0,0-2,3.12,6.31,6.31,0,0,0,0,3.05,14.65,14.65,0,0,0,.94,2.74,5.48,5.48,0,0,1-1.3-2.66,6.5,6.5,0,0,1-.07-3.25,6.75,6.75,0,0,1,2.09-3.4l.1-.08.23-.2.16.26a7.61,7.61,0,0,1,1.05,3.8,7.94,7.94,0,0,1-.58,3.15,6.63,6.63,0,0,1-1.11,1.84C790.94,618.56,790.72,618.73,790.7,618.71Z" transform="translate(-493.12 -448.78)"/><path class="cls-8" d="M755.44,679.51a14.42,14.42,0,0,0,1.34-2.51,7.91,7.91,0,0,0-.58-6.55l.39.07-.09.07a6.44,6.44,0,0,0-2,3.13,6.31,6.31,0,0,0,0,3,15.39,15.39,0,0,0,.94,2.74,5.54,5.54,0,0,1-1.3-2.66,6.4,6.4,0,0,1-.06-3.25,6.73,6.73,0,0,1,2.08-3.4l.1-.08.23-.21.16.27a7.73,7.73,0,0,1,1.06,3.8,8.15,8.15,0,0,1-.59,3.15A6.63,6.63,0,0,1,756,679C755.68,679.35,755.46,679.53,755.44,679.51Z" transform="translate(-493.12 -448.78)"/><path class="cls-8" d="M650.67,760.24a13.26,13.26,0,0,0-1.21-2.57,7.89,7.89,0,0,0-5.6-3.44l.28-.27v.11a6.46,6.46,0,0,0,1.34,3.45,6.38,6.38,0,0,0,2.43,1.84,14.62,14.62,0,0,0,2.75.88,5.4,5.4,0,0,1-2.9-.54,6.39,6.39,0,0,1-2.65-1.88,6.61,6.61,0,0,1-1.48-3.71l0-.13,0-.3.31,0a7.67,7.67,0,0,1,3.68,1.42,8,8,0,0,1,2.18,2.34,7,7,0,0,1,.82,2A1.79,1.79,0,0,1,650.67,760.24Z" transform="translate(-493.12 -448.78)"/><path class="cls-8" d="M774,674.38c-.05-.09,1.55-.82,3.9-2.3a13.65,13.65,0,0,0,3.57-3.25,7.62,7.62,0,0,0,1.59-5.46l.29.22h-.19l-.2,0-.38.06c-.25,0-.5.11-.74.18a9.13,9.13,0,0,0-1.42.49,10.27,10.27,0,0,0-5.32,5.27,13.9,13.9,0,0,0-1,4.36,3.71,3.71,0,0,1-.07-1.23,10,10,0,0,1,.74-3.27,10.21,10.21,0,0,1,2.93-4,10.48,10.48,0,0,1,2.52-1.56,9.41,9.41,0,0,1,1.49-.53c.26-.07.52-.14.79-.19l.4-.07.2,0h.2c-.06-.05.54.42.29.22a8,8,0,0,1-1.72,5.83,13.35,13.35,0,0,1-3.76,3.27,29.34,29.34,0,0,1-3,1.54A5.66,5.66,0,0,1,774,674.38Z" transform="translate(-493.12 -448.78)"/><path class="cls-8" d="M725,759.5c-.05-.09,1.55-.82,3.9-2.31a13.42,13.42,0,0,0,3.57-3.24,7.63,7.63,0,0,0,1.59-5.47l.29.22h-.1l-.09,0-.19,0-.39.07c-.25,0-.5.11-.74.17a9.16,9.16,0,0,0-1.42.5A9.89,9.89,0,0,0,729,751a10.06,10.06,0,0,0-2.9,3.8,13.82,13.82,0,0,0-1,4.35,3.62,3.62,0,0,1-.07-1.22,10.3,10.3,0,0,1,3.67-7.3,10.84,10.84,0,0,1,2.52-1.57,10.52,10.52,0,0,1,1.49-.53c.26-.07.52-.13.79-.18s.26-.06.4-.07l.2,0h.2l.29.23a8.06,8.06,0,0,1-1.72,5.83,13.32,13.32,0,0,1-3.76,3.26,27.8,27.8,0,0,1-3,1.55A5.66,5.66,0,0,1,725,759.5Z" transform="translate(-493.12 -448.78)"/><path class="cls-8" d="M673.38,655.29c0-.09,1.54-.82,3.9-2.3a13.65,13.65,0,0,0,3.57-3.25,7.62,7.62,0,0,0,1.59-5.46c-.26-.2.35.26.28.22h-.18l-.2,0c-.13,0-.25,0-.38.06l-.75.18a9.39,9.39,0,0,0-1.41.49,10.48,10.48,0,0,0-2.43,1.47,10.35,10.35,0,0,0-2.9,3.8,14,14,0,0,0-1,4.36,3.71,3.71,0,0,1-.07-1.23,10,10,0,0,1,.74-3.27,10.21,10.21,0,0,1,2.93-4,10.48,10.48,0,0,1,2.52-1.56,9.07,9.07,0,0,1,1.49-.53c.25-.07.52-.14.78-.19l.4-.07.21,0h.2l.28.22a8,8,0,0,1-1.72,5.83,13.18,13.18,0,0,1-3.75,3.27,30.45,30.45,0,0,1-3,1.54A5.94,5.94,0,0,1,673.38,655.29Z" transform="translate(-493.12 -448.78)"/><path class="cls-10" d="M711.19,526.86c-1.43-11-11.64-23-33.16-18l-21.12,6.87a6.48,6.48,0,0,0-5.34,6.94l7.86,83.16A19.62,19.62,0,0,0,679,623.59h0a19.63,19.63,0,0,0,19.61-20.52c-.46-10-.8-18-.79-18s13.93-3.28,15.62-21.85C714.25,554,712.78,539.05,711.19,526.86Z" transform="translate(-493.12 -448.78)"/><path class="cls-5" d="M705.72,539.52a2.35,2.35,0,0,1-2.11,2.53,2.26,2.26,0,0,1-2.58-2,2.37,2.37,0,0,1,2.11-2.53A2.26,2.26,0,0,1,705.72,539.52Z" transform="translate(-493.12 -448.78)"/><path class="cls-5" d="M708.88,536.33c-.28.32-2.15-.88-4.69-.7s-4.3,1.57-4.6,1.28c-.15-.13.12-.71.89-1.35a6.47,6.47,0,0,1,3.66-1.4,6.15,6.15,0,0,1,3.75.94C708.71,535.64,709,536.18,708.88,536.33Z" transform="translate(-493.12 -448.78)"/><path class="cls-5" d="M681.45,540.78a2.36,2.36,0,0,1-2.11,2.53,2.25,2.25,0,0,1-2.57-2,2.35,2.35,0,0,1,2.11-2.53A2.26,2.26,0,0,1,681.45,540.78Z" transform="translate(-493.12 -448.78)"/><path class="cls-5" d="M683.76,537.69c-.28.33-2.15-.87-4.69-.7s-4.31,1.57-4.6,1.28c-.15-.13.11-.7.89-1.35a6.47,6.47,0,0,1,3.66-1.4,6.24,6.24,0,0,1,3.75.94C683.59,537,683.89,537.54,683.76,537.69Z" transform="translate(-493.12 -448.78)"/><path class="cls-5" d="M694,555.21c0-.15,1.54-.52,4.07-1,.64-.11,1.25-.28,1.33-.73a3.28,3.28,0,0,0-.57-1.89l-2.24-4.81c-3.13-6.84-5.44-12.48-5.17-12.61s3,5.33,6.17,12.17l2.17,4.84a3.75,3.75,0,0,1,.5,2.52,1.59,1.59,0,0,1-1,1,4.1,4.1,0,0,1-1.09.23C695.64,555.23,694.05,555.35,694,555.21Z" transform="translate(-493.12 -448.78)"/><path class="cls-11" d="M697.79,585.1a46.83,46.83,0,0,1-25-4.91s7.08,12.55,25.36,9.6Z" transform="translate(-493.12 -448.78)"/><path class="cls-11" d="M693.37,561.39a4.59,4.59,0,0,0-4.21-1.42,4.17,4.17,0,0,0-2.78,1.74,2.63,2.63,0,0,0,0,3,3.06,3.06,0,0,0,3.38.62,9.44,9.44,0,0,0,3.11-2.15,2.87,2.87,0,0,0,.68-.8.84.84,0,0,0-.07-.94" transform="translate(-493.12 -448.78)"/><path class="cls-5" d="M686.68,557.46c.41-.05.6,2.7,3.09,4.5s5.4,1.3,5.44,1.68c0,.17-.61.58-1.85.69a6.8,6.8,0,0,1-4.53-1.24,6,6,0,0,1-2.42-3.79C686.23,558.16,686.49,557.46,686.68,557.46Z" transform="translate(-493.12 -448.78)"/><path class="cls-5" d="M707.68,530.4c-.4.6-2.19.12-4.29.23s-3.86.65-4.31.08c-.2-.28,0-.88.79-1.48a6.22,6.22,0,0,1,6.93-.25C707.58,529.52,707.86,530.1,707.68,530.4Z" transform="translate(-493.12 -448.78)"/><path class="cls-5" d="M683.78,530.64c-.21.7-2.76.55-5.71,1.11s-5.31,1.53-5.74.93c-.2-.28.18-1,1.1-1.69a10.09,10.09,0,0,1,8.73-1.56C683.28,529.8,683.86,530.3,683.78,530.64Z" transform="translate(-493.12 -448.78)"/><path class="cls-5" d="M626.48,566.7c4.4-.19,8-3.52,11-6.75L634,553.57a8.94,8.94,0,1,0-7.5,13.13Z" transform="translate(-493.12 -448.78)"/><path class="cls-5" d="M732.47,605.52c2.89-11.09-2.89-15.18-2.89-15.18-9.79-10.15-.72-21.11-.72-21.11,5.87-10,7.37-27.39-2.6-36.59-4.87-4.5-3.81-14.64-5-21.16-1.55-8.22-8.21-15-16.14-17.68s-16.86-1.49-24.35,2.24a42.42,42.42,0,0,0-9.53,6.56c-3.32-1.21-6.62-.84-10.34-.68a14.21,14.21,0,0,0-10.65,6.25c-3.15,4.68-2.34,10.21-4.18,15.55-2.09,6.07-7.69,10.87-9.63,16.73a11.52,11.52,0,0,0-.7,5c.23,3.09,1.38,6,2.17,9s1.22,6.26,0,9.13c-2,4.9-7.7,6.9-12,9.95a24.13,24.13,0,0,0-9.9,21.29c.2,2.4.75,4.9-.12,7.14-1,2.56-3.62,4.09-5.2,6.33-2.48,3.51-2.12,8.43-.21,12.28s5.12,6.88,8.26,9.82q5.92-5.14,12.22-9.84a17.35,17.35,0,0,1-.72,2.46c-1.55,4.09-4.38,7.54-7.17,10.92a121.18,121.18,0,0,0,22.78,3.61c2.51.16,5.12.22,7.42-.79a6.58,6.58,0,0,0,3.7-4l-.33,4.7a68.16,68.16,0,0,1,17,2.13c3.56-4.79,7-9.82,8.79-15.5s1.9-12.17-1-17.37c-2.65-4.72-7.35-7.84-11.37-11.47s-7.64-8.6-6.93-14c.89-6.67,8.21-11.66,7.57-18.35-.63-6.51-8.61-10.66-8.74-17.19-.11-5.91,6-9.64,9.92-14a22.55,22.55,0,0,0,5-18.31c4.43,2.06,10.9,1.7,15.74,2,1.56.12,3.13.06,4.67.29a6.94,6.94,0,0,1,4.15,2c1.37,1.51,1.63,3.69,2.42,5.56a10.32,10.32,0,0,0,7.62,6c1.46,11.7,2.7,25.35,1.91,34-1.69,18.57-15.62,21.85-15.62,21.85,0,.18.34,8.12.79,18a19.51,19.51,0,0,1-3.67,12.3l1,10,39.85,4.39C747.67,632.45,728,622.83,732.47,605.52Z" transform="translate(-493.12 -448.78)"/><path class="cls-12" d="M637.5,551.92a1.82,1.82,0,0,0-2.15-1.44,2.72,2.72,0,0,0-1.94,2,5.5,5.5,0,0,0,.12,2.87,11.61,11.61,0,0,0,2,4c.62.82,1.62,1.63,2.59,1.26s1.17-1.75,1.06-2.83a19.24,19.24,0,0,0-2.07-7" transform="translate(-493.12 -448.78)"/><path class="cls-6" d="M620.71,561.79a9.1,9.1,0,0,1,4.21-4.15,16,16,0,0,1,5.88-1.42,21.32,21.32,0,0,0,2.55-.18,8.38,8.38,0,0,0-2.57-.19,14.46,14.46,0,0,0-6.09,1.32,8.77,8.77,0,0,0-4.31,4.48,5.85,5.85,0,0,0-.44,1.86,1.51,1.51,0,0,0,0,.69A14,14,0,0,1,620.71,561.79Z" transform="translate(-493.12 -448.78)"/><path class="cls-6" d="M675.7,514.93a22.74,22.74,0,0,1-2.28,6,23.68,23.68,0,0,1-6.08,7.26,21.5,21.5,0,0,1-4.78,2.92A38.07,38.07,0,0,1,656.8,533a21,21,0,0,0-5.74,2.21,9.46,9.46,0,0,0-3.76,4.34c-1.46,3.4-1.62,6.74-2.69,9.24a12.59,12.59,0,0,1-1.81,3.14,7.57,7.57,0,0,1-2.08,1.78,6.79,6.79,0,0,1-2.22.71,2.24,2.24,0,0,0,.62,0,5.2,5.2,0,0,0,1.7-.52,7.46,7.46,0,0,0,2.2-1.77,12.62,12.62,0,0,0,1.93-3.19,21,21,0,0,0,1.1-3.59l.05.3c0,.3.11.67.17,1.08l.17,1.5a29.61,29.61,0,0,1,.08,4.11,23.81,23.81,0,0,1-1,5.33c-1.18,3.87-3.93,8-7.68,11.76a59.24,59.24,0,0,1-6.27,5.57,72.6,72.6,0,0,0-6.88,5.9,17.9,17.9,0,0,0-4.76,7.72,22.94,22.94,0,0,0-.34,8.46,58.82,58.82,0,0,1,.57,7.56,12.86,12.86,0,0,1-1.63,6.26c-1,1.73-2.26,3.11-3.14,4.47a9.86,9.86,0,0,0-1.62,3.83,5.56,5.56,0,0,0,.15,2.63,3.25,3.25,0,0,0,.39.82s-.13-.28-.29-.85a5.69,5.69,0,0,1,0-2.56,9.79,9.79,0,0,1,1.66-3.7c.89-1.34,2.14-2.69,3.22-4.45a13.14,13.14,0,0,0,1.74-6.43,58.59,58.59,0,0,0-.52-7.63,22.49,22.49,0,0,1,.35-8.27,17.59,17.59,0,0,1,4.64-7.5,77,77,0,0,1,6.83-5.87,58.8,58.8,0,0,0,6.3-5.63c3.76-3.85,6.52-8,7.68-12a23.27,23.27,0,0,0,.95-5.42,27.23,27.23,0,0,0-.17-4.15q-.12-.84-.21-1.5c-.09-.42-.16-.78-.23-1.08l-.1-.46a30.15,30.15,0,0,1,1.64-5.41,9.05,9.05,0,0,1,3.59-4.11,21.21,21.21,0,0,1,5.6-2.14l.59-.16a7.52,7.52,0,0,0-2.17,2.22,15.73,15.73,0,0,0-2,5.21,22.76,22.76,0,0,0-.36,7.41c.28,2.74,1,5.67,1.49,8.84a20.09,20.09,0,0,1-.59,10,10.66,10.66,0,0,1-3.13,4.37,26.78,26.78,0,0,1-4.87,3,33.07,33.07,0,0,0-5.19,3.12,20.39,20.39,0,0,0-4.24,4.59,21.26,21.26,0,0,0-3.61,11.63,19.19,19.19,0,0,0,.87,5.79,26.64,26.64,0,0,0,2.31,5.11c1.82,3.16,3.92,5.9,5.59,8.64a26.47,26.47,0,0,1,3.5,8.13,14.49,14.49,0,0,1,.29,3.83,10.9,10.9,0,0,1-.77,3.34A10.42,10.42,0,0,1,641.4,633a7.5,7.5,0,0,1-3.11,1.5c-.78.18-1.21.17-1.21.21a5.18,5.18,0,0,0,1.23-.1,7.38,7.38,0,0,0,3.22-1.45,10.62,10.62,0,0,0,3.35-4.46,11.36,11.36,0,0,0,.83-3.42,14.42,14.42,0,0,0-.26-3.94,26.34,26.34,0,0,0-3.49-8.27c-1.67-2.78-3.75-5.53-5.54-8.66a25.89,25.89,0,0,1-2.26-5,19.2,19.2,0,0,1-.83-5.64,20.86,20.86,0,0,1,3.53-11.34A19.79,19.79,0,0,1,641,578a31.67,31.67,0,0,1,5.1-3.07,27,27,0,0,0,5-3.1,11,11,0,0,0,3.26-4.58,20.51,20.51,0,0,0,.57-10.28c-.52-3.19-1.25-6.1-1.55-8.81a22.6,22.6,0,0,1,.28-7.31,15.57,15.57,0,0,1,1.91-5.16,7.33,7.33,0,0,1,2.36-2.42,32.27,32.27,0,0,0,4.89-1.64,21.62,21.62,0,0,0,4.87-3,23.67,23.67,0,0,0,6.11-7.46A21.54,21.54,0,0,0,675.9,515a13.83,13.83,0,0,0,.23-1.75,2.44,2.44,0,0,0,0-.62C676.1,512.6,676,513.45,675.7,514.93Z" transform="translate(-493.12 -448.78)"/><path class="cls-6" d="M718.82,530.26c.79-.06,1.5-.15,2.15-.17a4.58,4.58,0,0,1,2.89.73,4.86,4.86,0,0,1,.79.8s0-.11-.11-.29a2.44,2.44,0,0,0-.56-.67,4.54,4.54,0,0,0-3-.94c-.67,0-1.4.07-2.17.11a18.47,18.47,0,0,1-2.44-.06,17.54,17.54,0,0,1-5.4-1.4,17.28,17.28,0,0,1-7.58-6.59,35.48,35.48,0,0,1-1.9-3.8,4.6,4.6,0,0,0,.28,1.12,15.65,15.65,0,0,0,1.31,2.87,16.79,16.79,0,0,0,7.68,6.87,17.18,17.18,0,0,0,5.57,1.41A17.57,17.57,0,0,0,718.82,530.26Z" transform="translate(-493.12 -448.78)"/><path class="cls-6" d="M709.36,506.81c.72,1.53,1.31,3.05,2,4.41a12.42,12.42,0,0,0,2.55,3.41,11.87,11.87,0,0,0,5.38,2.89,10.46,10.46,0,0,0,1.65.26,2.14,2.14,0,0,0,.58,0c0-.06-.8-.06-2.18-.45a12,12,0,0,1-7.6-6.31c-.69-1.34-1.26-2.85-2-4.41a13,13,0,0,0-3.08-4.45,12.4,12.4,0,0,0-5.15-2.68,19.21,19.21,0,0,0-11,.77,64,64,0,0,0-8.29,3.69c-2.3,1.16-4.18,2.05-5.51,2.61l-1.54.62a2.5,2.5,0,0,0-.53.24,2.18,2.18,0,0,0,.57-.14c.36-.11.89-.28,1.57-.53,1.36-.5,3.28-1.35,5.6-2.47a71.84,71.84,0,0,1,8.28-3.57,19.1,19.1,0,0,1,10.77-.72,12,12,0,0,1,4.94,2.57A12.65,12.65,0,0,1,709.36,506.81Z" transform="translate(-493.12 -448.78)"/><path class="cls-6" d="M652.3,510.49a13.33,13.33,0,0,1,17.33-4.37,21.68,21.68,0,0,1,3.37,2.29,3.68,3.68,0,0,0-.74-.84,12,12,0,0,0-2.46-1.78A13.28,13.28,0,0,0,652,510.28a11.92,11.92,0,0,0-1.32,2.74,3.77,3.77,0,0,0-.26,1.08A23,23,0,0,1,652.3,510.49Z" transform="translate(-493.12 -448.78)"/><path class="cls-6" d="M727.09,552.62a26.64,26.64,0,0,0-3.9-5.74c-1.39-1.67-2.75-3.15-3.8-4.64A20.54,20.54,0,0,1,717,538a11.42,11.42,0,0,1-.79-3.6,10.09,10.09,0,0,1,.41-3.13,4.36,4.36,0,0,0-.3.77,7.9,7.9,0,0,0-.31,2.36,11.43,11.43,0,0,0,.72,3.7,20.22,20.22,0,0,0,2.35,4.4c1,1.53,2.4,3,3.77,4.7a26.7,26.7,0,0,1,3.79,5.67,11,11,0,0,1,.79,7.28,21.75,21.75,0,0,1-3.54,7.22c-1.59,2.3-3.3,4.44-4.78,6.65a22.25,22.25,0,0,0-3.35,6.9c-.1.61-.26,1.2-.31,1.8l-.06,1.79a14.24,14.24,0,0,0,.63,3.33c.64,2.09,1.5,3.92,2.14,5.63a12.45,12.45,0,0,1,.68,8.41,7.3,7.3,0,0,1-1.69,2.64l.17-.13a3.09,3.09,0,0,0,.45-.42,5.81,5.81,0,0,0,1.26-2,12.44,12.44,0,0,0-.53-8.6c-.62-1.74-1.46-3.58-2.07-5.63a14.27,14.27,0,0,1-.58-3.24l.06-1.71c.06-.58.22-1.15.32-1.74a21.79,21.79,0,0,1,3.3-6.73c1.47-2.18,3.19-4.32,4.79-6.64a22.13,22.13,0,0,0,3.61-7.4A11.58,11.58,0,0,0,727.09,552.62Z" transform="translate(-493.12 -448.78)"/><path class="cls-6" d="M666.51,615a81.55,81.55,0,0,0-6.49-7.49,30.58,30.58,0,0,1-6.1-8.89,14.19,14.19,0,0,1-1.13-5.52,11.67,11.67,0,0,1,1.52-5.56c2-3.47,4.92-6.15,7-9.37a14.56,14.56,0,0,0,2.2-5.19,16.39,16.39,0,0,0,.05-5.41,34.71,34.71,0,0,0-3.13-9.41,84.1,84.1,0,0,1-3.39-7.9c-1.79-4.95-1.35-9.43-.19-12.1a10,10,0,0,1,1.75-2.85c.51-.58.82-.85.8-.87a5.82,5.82,0,0,0-.87.8,9.4,9.4,0,0,0-1.86,2.84c-1.24,2.68-1.75,7.27,0,12.3a83.25,83.25,0,0,0,3.35,8,34.79,34.79,0,0,1,3.05,9.3,15.91,15.91,0,0,1-.07,5.24,13.93,13.93,0,0,1-2.14,5c-2,3.15-5,5.83-7,9.4a12.09,12.09,0,0,0-1.59,5.8,14.67,14.67,0,0,0,1.18,5.72,30.74,30.74,0,0,0,6.22,9,83.14,83.14,0,0,1,6.49,7.42,19.49,19.49,0,0,1,2.05,19.8,23.15,23.15,0,0,1-2.35,3.9s.08-.07.2-.22l.56-.69a16.76,16.76,0,0,0,1.77-2.9A19.69,19.69,0,0,0,670,622.9,19.75,19.75,0,0,0,666.51,615Z" transform="translate(-493.12 -448.78)"/><polygon class="cls-13" points="170.04 250.66 187.19 209.38 244.69 235.73 212.59 310.21 154.16 288.96 170.04 250.66"/><polygon class="cls-9" points="170.04 250.66 187.19 209.38 244.69 235.73 212.59 310.21 154.16 288.96 170.04 250.66"/><polygon class="cls-9" points="244.69 235.73 212.59 310.21 224.13 314.31 255.79 241.05 244.69 235.73"/><g class="cls-14"><polygon points="244.69 235.73 212.59 310.21 224.13 314.31 255.79 241.05 244.69 235.73"/></g><polygon class="cls-15" points="195.49 212.47 199.42 204.57 253.12 230.63 250.38 237.66 195.49 212.47"/><polygon class="cls-8" points="189.46 210.43 191.01 206.87 252.29 235.73 251.18 238.84 189.46 210.43"/><path class="cls-7" d="M739.18,699.29c.14.06-4.5,11.4-10.35,25.34S718.14,749.82,718,749.76s4.5-11.4,10.35-25.34S739.05,699.24,739.18,699.29Z" transform="translate(-493.12 -448.78)"/><path class="cls-7" d="M686.23,675l.18.07.54.23,2.11.93,8,3.56,28.08,12.64.22.1-.1.22c-3.38,7.73-7.1,16.26-11,25.22l-.1.23-.24-.1-.07,0-38.3-16.31-.19-.08.08-.19,7.86-19.37c.94-2.27,1.67-4.05,2.18-5.3l.57-1.37a4.6,4.6,0,0,1,.21-.45l-.18.51-.54,1.42c-.5,1.27-1.2,3.08-2.1,5.39L675.8,701.6l-.12-.27L714,717.55l.08,0-.34.14,11-25.21.12.32L697.1,680l-8-3.71-2.13-1-.56-.27Z" transform="translate(-493.12 -448.78)"/><path class="cls-7" d="M715.17,708.57a4.57,4.57,0,0,1-.35-.8l-.89-2.31c-.76-2.08-1.81-4.93-3-8.33l.27.14-10.75,3.52-.2.06-.1-.17-.92-1.49-3.35-5.44.31.11-12.63,4.87-3.69,1.37a8.5,8.5,0,0,1-1.36.44,8.78,8.78,0,0,1,1.29-.6l3.65-1.51,12.55-5,.2-.08.11.18c1.06,1.71,2.2,3.54,3.36,5.43l.92,1.48-.3-.11L711,696.84l.2-.06.07.2,2.88,8.39c.32,1,.57,1.75.77,2.36A4.73,4.73,0,0,1,715.17,708.57Z" transform="translate(-493.12 -448.78)"/><path class="cls-7" d="M704.67,692.18s-.06-.2-.17-.51a2.13,2.13,0,0,0-.8-1.08,2,2,0,0,0-1.87-.23,1.95,1.95,0,0,0,0,3.64,2,2,0,0,0,1.87-.24,2.13,2.13,0,0,0,.8-1.08c.11-.31.13-.5.17-.5s.08.19,0,.55a2.1,2.1,0,0,1-.78,1.32,2.33,2.33,0,0,1-2.25.4,2.41,2.41,0,0,1,0-4.54,2.33,2.33,0,0,1,2.25.39,2.13,2.13,0,0,1,.78,1.32C704.75,692,704.7,692.18,704.67,692.18Z" transform="translate(-493.12 -448.78)"/><path class="cls-12" d="M733,682.39s-3.91-7.62-11-5c-2.77,1-9,19.79-9,19.79l4-1.27,2.51,4.17s8-19.7,9.23-19.53Z" transform="translate(-493.12 -448.78)"/><path class="cls-7" d="M713.56,723.8a12.49,12.49,0,0,1-1.69-.56l-4.54-1.7c-3.82-1.45-9.08-3.5-14.89-5.79s-11.05-4.38-14.83-5.93L673.14,708a10.8,10.8,0,0,1-1.61-.74,12.49,12.49,0,0,1,1.69.56l4.54,1.7c3.82,1.46,9.09,3.5,14.89,5.79s11,4.38,14.82,5.92l4.47,1.85A10.57,10.57,0,0,1,713.56,723.8Z" transform="translate(-493.12 -448.78)"/><path class="cls-7" d="M711.21,727a10.37,10.37,0,0,1-1.69-.55l-4.53-1.7c-3.83-1.46-9.09-3.5-14.9-5.79S679,714.57,675.26,713l-4.47-1.85a12.28,12.28,0,0,1-1.61-.74,10.5,10.5,0,0,1,1.69.56l4.54,1.7c3.82,1.45,9.09,3.49,14.89,5.78s11,4.38,14.82,5.93l4.48,1.85A13.18,13.18,0,0,1,711.21,727Z" transform="translate(-493.12 -448.78)"/><path class="cls-7" d="M709.93,731.3a10,10,0,0,1-1.69-.55l-4.54-1.7c-3.82-1.46-9.08-3.5-14.89-5.79s-11-4.39-14.83-5.93l-4.47-1.85a12.28,12.28,0,0,1-1.61-.74,9.65,9.65,0,0,1,1.69.56l4.54,1.7c3.82,1.45,9.09,3.49,14.89,5.78s11,4.38,14.82,5.93l4.47,1.85A13,13,0,0,1,709.93,731.3Z" transform="translate(-493.12 -448.78)"/><path class="cls-10" d="M683.15,719.55l8.64,4.35s6.89-3.36,10.32-3.86,18.2,1.4,18.2,1.4a3.72,3.72,0,0,1-2.57,4c-1.31.4-8.59,0-8.59,0h0a3.66,3.66,0,0,0,1,6.15c3.69,1.53,8,3.34,8.49,3.67s5.88-.62,9.83-1.41c2.37-.48,4.08,2.55,2.25,4.12a1.17,1.17,0,0,1-.61.3s3.56,2.13-2.58,4.8c0,0-2.08,4.78-5.9,5.11,0,0-4.48,4.5-7.29,5.24s-21-6.21-21-6.21l-17.7-9.18Z" transform="translate(-493.12 -448.78)"/><path class="cls-11" d="M713.82,753.41c-4,0-20.32-6.2-20.49-6.27L675.61,738v0l7.52-18.41h0l8.63,4.34c.32-.15,7-3.37,10.32-3.86a11.8,11.8,0,0,1,1.62-.08c5,0,16.45,1.47,16.58,1.48h0v0a3.75,3.75,0,0,1-2.58,4c-1.28.4-8.28,0-8.59,0a3.65,3.65,0,0,0-1.2,3.33,3.58,3.58,0,0,0,2.2,2.77c3.59,1.5,8,3.35,8.49,3.68s3.92-.23,9.82-1.42a2.94,2.94,0,0,1,.51-.05,2.58,2.58,0,0,1,2.28,1.48,2.21,2.21,0,0,1-.53,2.74,1.26,1.26,0,0,1-.55.3,2.06,2.06,0,0,1,1,1.67c-.07,1.07-1.28,2.12-3.61,3.13a11.91,11.91,0,0,1-1.52,2.43,6.64,6.64,0,0,1-4.39,2.68c-.2.2-4.56,4.52-7.29,5.24A2,2,0,0,1,713.82,753.41Zm-38.15-15.48,17.68,9.17c.17.06,16.46,6.26,20.46,6.26a2,2,0,0,0,.53-.06c2.76-.72,7.22-5.19,7.27-5.23h0a6.63,6.63,0,0,0,4.38-2.67,11.62,11.62,0,0,0,1.51-2.42h0c2.31-1,3.52-2.05,3.59-3.09a2.11,2.11,0,0,0-1-1.67l-.06,0h.07a1.15,1.15,0,0,0,.59-.3,2.14,2.14,0,0,0,.51-2.68,2.49,2.49,0,0,0-2.73-1.4,74.54,74.54,0,0,1-9.3,1.49,1.18,1.18,0,0,1-.56-.08c-.4-.26-3.33-1.53-8.48-3.67a3.69,3.69,0,0,1-1-6.19h0c.08,0,7.29.46,8.59,0a3.43,3.43,0,0,0,2.36-2.3,4.08,4.08,0,0,0,.18-1.61c-.54-.07-11.64-1.49-16.55-1.49a11.56,11.56,0,0,0-1.62.09c-3.38.5-10.24,3.83-10.31,3.86h0l-8.62-4.33Z" transform="translate(-493.12 -448.78)"/><path class="cls-11" d="M708.37,737.38a11.76,11.76,0,0,0,2.81,1.92,18,18,0,0,0,7.87,2.59,16.64,16.64,0,0,0,8-2.1A11.05,11.05,0,0,0,730,738a15.83,15.83,0,0,0-3.16,1.23,18.45,18.45,0,0,1-7.71,1.79,20.46,20.46,0,0,1-7.62-2.26A14.43,14.43,0,0,0,708.37,737.38Z" transform="translate(-493.12 -448.78)"/><path class="cls-11" d="M707.61,742.15c-.08.09.79,1,2.48,1.9a22.21,22.21,0,0,0,3.09,1.41,10.53,10.53,0,0,0,4.16.8,18.52,18.52,0,0,0,4.09-.93c1.1-.37,2.15-.72,3.18-1.05a11,11,0,0,0,2.87-1.18,11.06,11.06,0,0,0-3.05.58c-.92.23-2,.52-3.24.87a21.19,21.19,0,0,1-3.9.83,10.9,10.9,0,0,1-3.85-.68,31.82,31.82,0,0,1-3.07-1.21C708.65,742.72,707.7,742.05,707.61,742.15Z" transform="translate(-493.12 -448.78)"/><path class="cls-11" d="M707.19,747.73c-.14.32,3.11,1.57,7.1,2.82a3.38,3.38,0,0,0,1.72.05,11.74,11.74,0,0,0,1.44-.32,13.84,13.84,0,0,0,2.32-.87c1.28-.61,1.92-1.23,1.86-1.32a10.79,10.79,0,0,0-2.1.75,22.68,22.68,0,0,1-2.28.65,11.29,11.29,0,0,1-1.36.26,2.89,2.89,0,0,1-1.32,0c-2-.65-3.85-1.15-5.19-1.5A8.71,8.71,0,0,0,707.19,747.73Z" transform="translate(-493.12 -448.78)"/><path class="cls-12" d="M631.13,607.72S621,614.26,614.91,632.3C609.75,647.64,599,672.4,595.45,690c-2.59,12.85,3.49,28.06,19.49,32.4l60.7,18.24,9.28-22.78-54.48-27.67,14.93-34Z" transform="translate(-493.12 -448.78)"/><path class="cls-5" d="M609.54,720.39l.33.08,1,.27,3.75,1.11L628.52,726l47.19,14.4-.31.14c1.9-4.67,3.88-9.53,5.91-14.5l3.37-8.28.13.33c-11.39-5.63-21.92-11.11-31.15-15.89s-17.18-8.83-23.28-11.88h0a11.53,11.53,0,0,0-6.07.44,13.07,13.07,0,0,0-4,2.24,13.36,13.36,0,0,0-1.25,1.09,9.25,9.25,0,0,0-.84.88l-.5.55c-.11.12-.17.18-.18.17l.15-.2.47-.58a8.6,8.6,0,0,1,.82-.9,14.5,14.5,0,0,1,5.26-3.46,11.67,11.67,0,0,1,6.22-.52h0c6.13,3,14.11,7,23.35,11.76S673.65,712,685,717.67l.21.11-.09.22-3.37,8.28-5.92,14.5-.08.21-.23-.06-47.14-14.57L614.55,722l-3.73-1.19-1-.32A1.17,1.17,0,0,1,609.54,720.39Z" transform="translate(-493.12 -448.78)"/><path class="cls-5" d="M647.94,638.12a3.17,3.17,0,0,1,.17.54,11.82,11.82,0,0,1,.35,1.59,20.61,20.61,0,0,1,0,6,39.19,39.19,0,0,1-2.34,8.56c-1.2,3.12-2.74,6.45-4.29,10-3.13,7-6,13.31-8.05,18-1,2.24-1.88,4.07-2.5,5.42-.29.59-.52,1.08-.7,1.46a2.81,2.81,0,0,1-.28.5,2.38,2.38,0,0,1,.18-.54c.16-.4.37-.89.61-1.5l2.35-5.49,7.92-18c1.54-3.52,3.09-6.84,4.31-9.93a40.81,40.81,0,0,0,2.43-8.44,21.82,21.82,0,0,0,.14-5.9,14.5,14.5,0,0,0-.24-1.6A1.82,1.82,0,0,1,647.94,638.12Z" transform="translate(-493.12 -448.78)"/><path class="cls-8" d="M620.6,646.13a28.85,28.85,0,0,1,.59,3.15A55.7,55.7,0,0,0,626,663.87c.86,1.78,1.46,2.85,1.39,2.89s-.22-.23-.52-.69-.72-1.15-1.2-2a43.51,43.51,0,0,1-4.8-14.7c-.14-1-.21-1.79-.24-2.34A2.94,2.94,0,0,1,620.6,646.13Z" transform="translate(-493.12 -448.78)"/><path class="cls-8" d="M624.35,659c-.09-.06.76-1,1.54-2.79a12.27,12.27,0,0,0,.72-7.47l-.05-.25.46.09a14.51,14.51,0,0,0-2.6,6.92c-.2,1.91,0,3.1-.1,3.11a2.63,2.63,0,0,1-.19-.83,12.05,12.05,0,0,1-.08-2.31,14,14,0,0,1,2.55-7.2l.34-.47.12.56.06.27a11.9,11.9,0,0,1-.89,7.73,10.4,10.4,0,0,1-1.27,2C624.6,658.79,624.37,659,624.35,659Z" transform="translate(-493.12 -448.78)"/><path class="cls-8" d="M621.32,655.08a2.51,2.51,0,0,1-.88-.31,14.93,14.93,0,0,1-2.22-1.23,18.33,18.33,0,0,1-2.89-2.42,16.36,16.36,0,0,1-1.45-1.7,9.7,9.7,0,0,1-.68-1A1.65,1.65,0,0,1,613,647a.91.91,0,0,1,.65-.5,1.25,1.25,0,0,1,.73.09,5.46,5.46,0,0,1,1,.66,17.19,17.19,0,0,1,4.1,4.36,14.09,14.09,0,0,1,1.21,2.23,2.67,2.67,0,0,1,.3.89c-.09,0-.59-1.19-1.81-2.91a17.69,17.69,0,0,0-2.43-2.77,16.63,16.63,0,0,0-1.67-1.39,5.33,5.33,0,0,0-.93-.59c-.32-.14-.61-.08-.71.15a1.19,1.19,0,0,0,.16.92,8.47,8.47,0,0,0,.63.93,18.19,18.19,0,0,0,1.38,1.68,20,20,0,0,0,2.76,2.44C620.14,654.48,621.36,655,621.32,655.08Z" transform="translate(-493.12 -448.78)"/><path class="cls-8" d="M622.66,663.47a2,2,0,0,1-.72.25,8.76,8.76,0,0,1-2.09.18,9.66,9.66,0,0,1-6.36-2.73l-.32-.31.43-.12.68-.18a9.78,9.78,0,0,1,7.26,1.22,8.42,8.42,0,0,1,1.75,1.42,2.35,2.35,0,0,1,.5.67,19.85,19.85,0,0,0-2.44-1.78,10,10,0,0,0-7-1l-.64.18.1-.43a9.72,9.72,0,0,0,6,2.73A22.22,22.22,0,0,0,622.66,663.47Z" transform="translate(-493.12 -448.78)"/><path class="cls-8" d="M627.91,715.09s.26-.18.77-.4,1.26-.53,2.2-.85a43.83,43.83,0,0,1,15.29-2.36c1,0,1.79.09,2.34.15a3.46,3.46,0,0,1,.86.15,26.36,26.36,0,0,1-3.21.07,58.48,58.48,0,0,0-7.67.64,59.82,59.82,0,0,0-7.5,1.7C629.1,714.75,627.94,715.16,627.91,715.09Z" transform="translate(-493.12 -448.78)"/><path class="cls-8" d="M641.07,712.62a2.68,2.68,0,0,1-.28.83,9.83,9.83,0,0,1-1.23,2,11.81,11.81,0,0,1-6.5,4.29l-.26.07-.56.14.27-.51a13.94,13.94,0,0,1,5.27-5.52,11.32,11.32,0,0,1,2.1-1,2.53,2.53,0,0,1,.83-.2c0,.09-1.12.45-2.74,1.49a14.56,14.56,0,0,0-5,5.45l-.29-.38.25-.06a12.32,12.32,0,0,0,6.34-4A27.29,27.29,0,0,0,641.07,712.62Z" transform="translate(-493.12 -448.78)"/><path class="cls-8" d="M636.22,711.68c-.06.08-1.07-.78-3-1.74a18.86,18.86,0,0,0-3.43-1.35,16.47,16.47,0,0,0-2.12-.48,8.79,8.79,0,0,0-1.12-.14,1.16,1.16,0,0,0-.89.27c-.16.2-.08.47.19.7a5.31,5.31,0,0,0,.94.56,19.89,19.89,0,0,0,2,.87,18.36,18.36,0,0,0,3.57.91c2.08.32,3.41.21,3.41.31a3,3,0,0,1-.92.13,14.38,14.38,0,0,1-2.54-.07,17.32,17.32,0,0,1-5.74-1.69,5.67,5.67,0,0,1-1.06-.63,1.31,1.31,0,0,1-.42-.61.92.92,0,0,1,.16-.8,1.63,1.63,0,0,1,1.31-.47,10.62,10.62,0,0,1,1.2.15,17.21,17.21,0,0,1,2.17.53,17.42,17.42,0,0,1,3.46,1.49,14.49,14.49,0,0,1,2.11,1.42A2.84,2.84,0,0,1,636.22,711.68Z" transform="translate(-493.12 -448.78)"/><path class="cls-8" d="M644.31,709.09a21.51,21.51,0,0,0-1.2-2.52,9.73,9.73,0,0,0-5.15-4.13l.34-.29c0,.21.09.43.13.66a10,10,0,0,0,4.06,5.73,21,21,0,0,0,2.69,1.38,2.5,2.5,0,0,1-.82-.14,8.75,8.75,0,0,1-2.06-.93,9.77,9.77,0,0,1-4.37-5.92c0-.24-.1-.47-.14-.69l-.09-.43.42.14a9.55,9.55,0,0,1,5.3,4.44,7.75,7.75,0,0,1,.78,1.94A1.9,1.9,0,0,1,644.31,709.09Z" transform="translate(-493.12 -448.78)"/><path class="cls-8" d="M638.5,649.89a13.2,13.2,0,0,0,1-2.66,7.88,7.88,0,0,0-1.41-6.42l.4,0-.08.09a6.23,6.23,0,0,0-1.2,6.38,15.35,15.35,0,0,0,1.28,2.59,5.47,5.47,0,0,1-1.62-2.47,6.41,6.41,0,0,1-.49-3.21,6.78,6.78,0,0,1,1.64-3.64l.09-.1.2-.23.19.25a7.53,7.53,0,0,1,1.53,3.63,7.69,7.69,0,0,1-.18,3.2,6.61,6.61,0,0,1-.86,2C638.72,649.71,638.52,649.91,638.5,649.89Z" transform="translate(-493.12 -448.78)"/><path class="cls-8" d="M660.71,723.34a13.2,13.2,0,0,0,1-2.66,7.88,7.88,0,0,0-1.41-6.42l.4,0-.08.09a6.23,6.23,0,0,0-1.2,6.38,15.35,15.35,0,0,0,1.28,2.59,5.47,5.47,0,0,1-1.62-2.47,6.41,6.41,0,0,1-.49-3.21,6.78,6.78,0,0,1,1.64-3.64l.09-.1.2-.23.19.25a7.53,7.53,0,0,1,1.53,3.63,7.69,7.69,0,0,1-.18,3.2,6.61,6.61,0,0,1-.86,2C660.93,723.16,660.73,723.36,660.71,723.34Z" transform="translate(-493.12 -448.78)"/><path class="cls-8" d="M606.51,688.11c0-.09,1.54-.82,3.9-2.31a13.42,13.42,0,0,0,3.57-3.24,7.62,7.62,0,0,0,1.59-5.46c-.26-.2.35.26.28.22h-.18l-.2,0c-.13,0-.25,0-.38.06l-.75.17a10.68,10.68,0,0,0-1.41.5,10.48,10.48,0,0,0-2.43,1.47,10.35,10.35,0,0,0-2.9,3.8,14,14,0,0,0-1,4.36,3.76,3.76,0,0,1-.07-1.23,10,10,0,0,1,.74-3.27,10.21,10.21,0,0,1,2.93-4,10.84,10.84,0,0,1,2.52-1.57,10.49,10.49,0,0,1,1.49-.52c.25-.07.52-.14.78-.19l.4-.07.21,0h.2l.28.22a8,8,0,0,1-1.72,5.83,13.18,13.18,0,0,1-3.75,3.27,30.45,30.45,0,0,1-3,1.54A5.94,5.94,0,0,1,606.51,688.11Z" transform="translate(-493.12 -448.78)"/></g></svg>