<svg id="roles" xmlns="http://www.w3.org/2000/svg" xmlns:xlink="http://www.w3.org/1999/xlink" viewBox="0 0 432.33 348.69"><defs><style>.cls-1{fill:none;}.cls-2,.cls-3{fill:#f5f5f5;}.cls-3{stroke:#2f465c;stroke-miterlimit:10;stroke-width:4px;}.cls-4{clip-path:url(#clip-path);}.cls-5{fill:#1a2f36;}.cls-6{fill:#ad6359;}.cls-7{fill:#d18671;}.cls-8{fill:#263238;}.cls-9{fill:#71c8b3;}.cls-10{fill:#010101;opacity:0.1;}.cls-11{fill:#fff;}.cls-12{fill:#455b64;}.cls-13{fill:#37474f;}.cls-14{fill:#1a2f35;}.cls-15{fill:#a6a5a5;}.cls-16{fill:#c7c7c6;}.cls-17{fill:#dcdbdb;}</style><clipPath id="clip-path" transform="translate(-1057.67 -439.81)"><path class="cls-1" d="M1167.5,486.5c6.9-16.24,21.87-24.17,31-29,39.52-20.92,91.37-9,124,16,11.22,8.59,25.68,19.65,33,39,5.4,14.28,4.14,25.73,13,46,2.8,6.41,6.36,14.38,13,23,16.74,21.75,31.46,19.27,43,35,16.08,21.92,6.46,52.6,6,54-8.43,25.6-33.28,44.68-57,46-25,1.39-31.88-19.34-65.5-21.5-12.37-.8-27.7-2-41,6-17.63,10.65-20,31-32,46-1.82,2.28-22,29-65.5,37.5-37,7.23-63.68-22.93-70-29s-34.61-33.2-32-73c2-30.84,21.53-51.73,28-58,15.07-14.61,21.93-10.56,40-27,8.59-7.82,26.26-23.9,32-48C1174.24,521.17,1158.11,508.6,1167.5,486.5Z"/></clipPath></defs><path class="cls-2" d="M1168.5,478.65c7.71-16.66,23.53-24.4,33.18-29.12,41.77-20.44,95.28-6.3,128.37,20.74,11.38,9.3,26,21.28,33,41.63,5.15,15,3.45,26.88,12,48.25,2.7,6.75,6.14,15.16,12.75,24.34,16.68,23.16,32.07,21.07,43.54,37.8,16,23.32,5,54.89,4.45,56.33C1426.18,705,1399.72,724,1375,724.55c-26.07.62-34.11-19.65-69-23-12.83-1.23-27.68-3-41.78,4.92-18.68,10.48-15.92,26.43-32.7,46.82-1.93,2.34-29,34.24-70.84,35.2-39.18.9-65.43-26-71.8-32.46s-34.88-35.66-30.85-76.94c3.13-32,24.1-53.06,31-59.37,16.14-14.68,23.14-10.24,42.47-26.74,9.19-7.84,28.09-24,34.85-48.83C1174.36,514.91,1158,501.32,1168.5,478.65Z" transform="translate(-1057.67 -439.81)"/><path class="cls-3" d="M1167.5,486.5c6.9-16.24,21.87-24.17,31-29,39.52-20.92,91.37-9,124,16,11.22,8.59,25.68,19.65,33,39,5.4,14.28,4.14,25.73,13,46,2.8,6.41,6.36,14.38,13,23,16.74,21.75,31.46,19.27,43,35,16.08,21.92,6.46,52.6,6,54-8.43,25.6-33.28,44.68-57,46-25,1.39-33.38-17.84-67-20-12.37-.8-26.7-2-40,6-17.63,10.65-14.5,25.89-30,46-1.78,2.31-26.84,33.8-67,36-37.62,2.06-63.68-22.93-70-29s-34.61-33.2-32-73c2-30.84,21.53-51.73,28-58,15.07-14.61,21.93-10.56,40-27,8.59-7.82,26.26-23.9,32-48C1174.24,521.17,1158.11,508.6,1167.5,486.5Z" transform="translate(-1057.67 -439.81)"/><g class="cls-4"><path class="cls-5" d="M1463.27,750.16c-119.68.61-253.92.61-373.6,0,119.68-.62,253.92-.62,373.6,0Z" transform="translate(-1057.67 -439.81)"/><path class="cls-6" d="M1251.08,645.49c5.1,35.72,17.66,81.47,29.49,91.48,9.55,8.07,61.74,25.27,64.68,25.84,7.29,1.36,26.18-49.36,18.73-52.11-9.38-3.46-54.9-8.72-57.27-11.61s-17.18-26.9-33.8-54.54C1261.45,625.45,1247.91,623.32,1251.08,645.49Z" transform="translate(-1057.67 -439.81)"/><path class="cls-7" d="M1339.59,759.46c.83.52,12.74,7.82,20.25,10.69,5.59,2.15,21.87,7.89,24.85,2,2-4-7.15-8.55-13.56-11.88-3.38-1.75-7.39-5.78-6.17-8,2.14-3.78,10.82.93,16.46,4.87,10.91,7.63,25.18,20.91,32.67,15.68,2.83-2,.1-6.24-4.07-10.54,6.91,5.19,14.38,9.6,17.61,7.52,1.86-1.17,2.09-3,1.29-5.15,2.2.93,4.2,1,5.71-.4,2.58-2.28,1.73-6-.54-10a2.85,2.85,0,0,0,2.27-1.24c5.67-7.23-17.63-31.34-26.15-34.13-25.08-8.23-52.48-8.31-52.48-8.31C1347,717.76,1339.57,759.44,1339.59,759.46Z" transform="translate(-1057.67 -439.81)"/><path class="cls-8" d="M1379.19,739.07a43.39,43.39,0,0,1,16.51,8c6.13,4.82,10,10.2,15,15.7.13.14-.09.35-.22.21-2.39-2.62-12.38-12.54-15-14.82a41.6,41.6,0,0,0-16.37-9C1379.09,739.16,1379.12,739.06,1379.19,739.07Z" transform="translate(-1057.67 -439.81)"/><path class="cls-8" d="M1384.87,728.62c6.57,2.4,13.31,4.84,19.28,8.54,6.54,4.06,11.41,10.18,16.2,16.09q4.32,5.31,8.4,10.82c.12.15-.09.36-.22.21q-7.29-9.13-15.12-17.82a54.82,54.82,0,0,0-17.15-12.94c-3.72-1.79-7.57-3.29-11.42-4.79C1384.76,728.7,1384.8,728.59,1384.87,728.62Z" transform="translate(-1057.67 -439.81)"/><path class="cls-8" d="M1392.85,719.73c6.42,1.89,12,3.51,17.52,7.5,7.27,5.28,14,13.71,16.37,16.7,2.61,3.3,5.1,6.68,7.54,10.1.1.14-.14.32-.24.18a216.63,216.63,0,0,0-18.27-21.41,43.23,43.23,0,0,0-10.54-8.19,78,78,0,0,0-12.39-4.84S1392.83,719.72,1392.85,719.73Z" transform="translate(-1057.67 -439.81)"/><path class="cls-9" d="M1261.38,706,1301,683.87s-15.41-27.38-31.2-48-22.11-8.76-19.84,13.61S1261.38,706,1261.38,706Z" transform="translate(-1057.67 -439.81)"/><path class="cls-8" d="M1294.92,678.33a366.24,366.24,0,0,0-33.1,18.58c-.16.1,0,.36.17.28a367.66,367.66,0,0,0,33.12-18.55C1295.28,678.53,1295.1,678.23,1294.92,678.33Z" transform="translate(-1057.67 -439.81)"/><path class="cls-10" d="M1294,687.78,1261.38,706s-9.2-34.18-11.47-56.55c-1.44-14.15.56-24.1,6.23-24.27Z" transform="translate(-1057.67 -439.81)"/><path class="cls-9" d="M1150.07,768h149.75c1.88-1.4-15.46-102.86-37.51-137.89-4.13-6.56-23.9-16.56-39.37-4.7C1176.25,661.24,1148.32,765.78,1150.07,768Z" transform="translate(-1057.67 -439.81)"/><path class="cls-11" d="M1326.06,692.44a84.74,84.74,0,0,1,15.46-6.25c7.17-1.85,22.88-4.7,25.7-5.86l4.75-.18-30.76,81.15L1299.07,770,1229,753.23l25-77.2,4.83-.24s8.9,2.43,16.26,3.8S1307.87,682.09,1326.06,692.44Z" transform="translate(-1057.67 -439.81)"/><polygon class="cls-12" points="235.16 332.19 262.67 254 193.3 235.41 167.24 315.22 235.16 332.19"/><polygon class="cls-13" points="235.16 332.19 245.26 332.75 272.87 254.56 262.67 254 235.16 332.19"/><polygon class="cls-12" points="245.26 332.75 272.87 254.56 316.34 239.63 284.66 322.26 245.26 332.75"/><path class="cls-7" d="M1218.68,629.61C1183.1,670,1138,745.11,1145.78,760c9.88,18.86,78.22,15.37,94.17,11.66,6.8-1.59-16.72-60.53-24-59-6.37,1.34-11.86,2.68-12.08,1.8s18.78-29,30.36-69.43C1242.1,617.45,1226.22,621.06,1218.68,629.61Z" transform="translate(-1057.67 -439.81)"/><path class="cls-7" d="M1183.91,740.73s2.65-2.72,14.31-19.34c8.06-11.49,35-34.34,73.38-25,14.69,3.58,18.6,15.44,2.68,14.44-11.21-.7-18.92-2.15-22.65-1.36,0,0,12.76,11.53,11.59,21.43a182.71,182.71,0,0,1-4.9,25.64,37.7,37.7,0,0,1-4.88-.49,20.93,20.93,0,0,1-15.5,16.06Z" transform="translate(-1057.67 -439.81)"/><path class="cls-7" d="M1207.66,711.65c7.15-1.76,22.35-5.24,35.78-3.75,14.91,1.64,43.2,8.84,41.87,19.83-1,8.06-12,6.27-12,6.27s11.07,5.44,8.6,12.53c-2.26,6.46-10.72,4.56-10.72,4.56s6.15,4.45,2.78,10.26c-4.06,7-16.27-3.5-26.49,0C1245.17,762.17,1207.66,711.65,1207.66,711.65Z" transform="translate(-1057.67 -439.81)"/><path class="cls-8" d="M1239.07,723.36c7-.55,23.19,2.27,34.11,10.35.24.18.24.47,0,.35a147.72,147.72,0,0,0-34.1-10.56C1239,723.49,1239,723.37,1239.07,723.36Z" transform="translate(-1057.67 -439.81)"/><path class="cls-8" d="M1237.85,738.47c6.08.14,22.64,3.79,33.42,12.36.24.19.22.48,0,.35a157.65,157.65,0,0,0-33.41-12.57C1237.74,738.59,1237.77,738.46,1237.85,738.47Z" transform="translate(-1057.67 -439.81)"/><path class="cls-8" d="M1173.26,733c4.29-5.55,17.26-15.65,30.58-18.31.3,0,.51.14.24.25a147.3,147.3,0,0,0-30.73,18.17C1173.29,733.15,1173.21,733.05,1173.26,733Z" transform="translate(-1057.67 -439.81)"/><path class="cls-9" d="M1176.67,679.38l42.39,16.13s11.12-29.38,16.8-54.73-7.46-22.57-23.17-6.48S1176.67,679.38,1176.67,679.38Z" transform="translate(-1057.67 -439.81)"/><path class="cls-8" d="M1232.18,662.7a.09.09,0,0,0-.16-.09c-.74,1.38-1.46,2.76-2.2,4.14.77-2.8,1.48-5.63,2.12-8.47,0-.09-.12-.15-.15-.06-2.15,6.13-4.27,12.25-6.32,18.41s-4.39,12.23-6.38,18.41c-1.22-.25-1.87-.44-2.78-.6-.21,0-.35.2-.15.3a14.3,14.3,0,0,0,3.47,1.32c2.69-5.91,4.87-12.54,7-18.68,1-3,2-6.07,2.83-9.13A57.32,57.32,0,0,0,1232.18,662.7Z" transform="translate(-1057.67 -439.81)"/><path class="cls-8" d="M1219.44,687.33A365,365,0,0,0,1184,673.86c-.18-.05-.27.24-.1.31a364.88,364.88,0,0,0,35.47,13.5C1219.52,687.74,1219.63,687.41,1219.44,687.33Z" transform="translate(-1057.67 -439.81)"/><path class="cls-7" d="M1231.68,627.32c0,2.45,7.71,20,18.45,21.93,3.49.62,7.69-18.33,7.69-18.33l.63-1.32,8.79-18.59-22.55-22.65S1231.69,626.28,1231.68,627.32Z" transform="translate(-1057.67 -439.81)"/><path class="cls-14" d="M1267.24,611l-8.8,18.58-.62,1.34s-.77,3.43-1.91,7.32c-14-5.42-18.17-17.79-19.36-26,3.69-11,8.14-23.94,8.14-23.94Z" transform="translate(-1057.67 -439.81)"/><path class="cls-7" d="M1303.11,581.67c-4.64,43.81-31.41,46-40.86,45-8.57-.91-37.66-5.13-37.57-49.19s21.93-55.75,41.65-54.69S1307.75,537.85,1303.11,581.67Z" transform="translate(-1057.67 -439.81)"/><path class="cls-8" d="M1291.93,588.25c4.83.73,3,10.34-1.46,9.67S1287.88,587.64,1291.93,588.25Z" transform="translate(-1057.67 -439.81)"/><path class="cls-8" d="M1269.59,585c-4.8-.92-6.28,8.75-1.83,9.6S1273.61,585.79,1269.59,585Z" transform="translate(-1057.67 -439.81)"/><path class="cls-8" d="M1296.17,582.74a27.63,27.63,0,0,1-2.82-1.13,5,5,0,0,1-2.66-1.71A1.57,1.57,0,0,1,1291,578c1.15-.93,2.61-.71,3.93-.22a5.75,5.75,0,0,1,3.18,2.61A1.67,1.67,0,0,1,1296.17,582.74Z" transform="translate(-1057.67 -439.81)"/><path class="cls-8" d="M1266.45,578.92a28,28,0,0,0,3-.1,4.91,4.91,0,0,0,3.08-.69,1.55,1.55,0,0,0,.33-1.88c-.76-1.28-2.2-1.57-3.61-1.57a5.72,5.72,0,0,0-3.88,1.37A1.67,1.67,0,0,0,1266.45,578.92Z" transform="translate(-1057.67 -439.81)"/><path class="cls-8" d="M1266.09,611.44c.53.85,1,2,2,2.31a8,8,0,0,0,3.31,0,.1.1,0,0,1,.09.18,4.05,4.05,0,0,1-4.08.69,3.19,3.19,0,0,1-1.67-3.13C1265.77,611.33,1266,611.32,1266.09,611.44Z" transform="translate(-1057.67 -439.81)"/><path class="cls-8" d="M1280.37,603s-.19,4.52-.57,6.6c0,.19-.56.19-1.27.11,0,0-.06,0-.08,0a10.05,10.05,0,0,1-8.93-5.44c-.11-.23.19-.39.36-.23,2.37,2.51,5.31,3.58,8.56,4.22.25-.55.08-7.83.4-7.71,1.34.48,3.66,1.54,4.53,1.92.19-2.93.31-11.28.67-16.62,0-.34.54-.35.57,0a143.12,143.12,0,0,1,.57,18.83C1285.15,605.13,1281.13,603.51,1280.37,603Z" transform="translate(-1057.67 -439.81)"/><path class="cls-14" d="M1219.39,579.65c12.29,4.56,23.21-8.48,23.8-21.37,0,0,32,14.19,41.49-12.11a27.36,27.36,0,0,0,18.16,18.36l.83,11c3.71,0,10.2-8.64,4.07-18.71,0,0,3.33-13.52-4.16-24.41a19,19,0,0,0-18.81-8.48A28.75,28.75,0,0,0,1266.12,513c-12.75-2-21.09,7.7-21.09,7.7s-17.44-1.69-23.69,9.22-2.49,20.56-2.49,20.56-5.49,3.39-6.32,14C1212,571.38,1215.71,578.29,1219.39,579.65Z" transform="translate(-1057.67 -439.81)"/><path class="cls-8" d="M1284.64,543.58a33.42,33.42,0,0,1-1.84,6.56,27.81,27.81,0,0,1-3.06,6,17.59,17.59,0,0,1-10.54,7.34c-4.27,1.25-8.83.32-13.2-.51-2.14-.7-4.35-1.25-6.46-2.08s-4.2-1.76-6.35-2.58c2,1.14,4,2.2,6,3.31s4.29,1.68,6.44,2.54c4.46,1.11,9.22,2.1,13.91.88a18.39,18.39,0,0,0,11.19-8.23A27.84,27.84,0,0,0,1284.64,543.58Z" transform="translate(-1057.67 -439.81)"/><path class="cls-8" d="M1245,520.74a32.13,32.13,0,0,0-13.07-.94,19.37,19.37,0,0,0-11.86,5.94,21.37,21.37,0,0,0-3.41,5.81,19.53,19.53,0,0,0-1.57,6.51,18,18,0,0,0,3.73,12.46,19.75,19.75,0,0,1-2.49-12.34,22,22,0,0,1,5-11.38,16.65,16.65,0,0,1,4.88-3.8,25,25,0,0,1,6-2A40.73,40.73,0,0,1,1245,520.74Z" transform="translate(-1057.67 -439.81)"/><path class="cls-8" d="M1284.77,523.89a32.81,32.81,0,0,1,10.35,1,19.86,19.86,0,0,1,8.8,4.85,20.14,20.14,0,0,1,5,8.71,35.67,35.67,0,0,1,1.3,10.33,26.08,26.08,0,0,0-.1-10.63,19.07,19.07,0,0,0-5.06-9.56,18.82,18.82,0,0,0-9.65-4.9A24.73,24.73,0,0,0,1284.77,523.89Z" transform="translate(-1057.67 -439.81)"/><path class="cls-8" d="M1297.3,564.08a35.84,35.84,0,0,1-8.52-8.41,21.7,21.7,0,0,1-2.71-5.21,26.29,26.29,0,0,1-1.32-5.89,14.77,14.77,0,0,0,.13,6.24,16.25,16.25,0,0,0,2.57,5.78,20,20,0,0,0,4.38,4.53A18.39,18.39,0,0,0,1297.3,564.08Z" transform="translate(-1057.67 -439.81)"/><path class="cls-6" d="M1251.27,590.47a.71.71,0,1,1-.33-.94A.71.71,0,0,1,1251.27,590.47Z" transform="translate(-1057.67 -439.81)"/><path class="cls-6" d="M1265,596.28a.71.71,0,0,1-1.28-.62.71.71,0,1,1,1.28.62Z" transform="translate(-1057.67 -439.81)"/><path class="cls-6" d="M1258,598.71a.7.7,0,0,1-.94.34.71.71,0,1,1,.94-.34Z" transform="translate(-1057.67 -439.81)"/><path class="cls-6" d="M1254.17,585.35a.71.71,0,1,1-.33-.94A.71.71,0,0,1,1254.17,585.35Z" transform="translate(-1057.67 -439.81)"/><path class="cls-6" d="M1258.76,592a.71.71,0,1,1-.33-1A.71.71,0,0,1,1258.76,592Z" transform="translate(-1057.67 -439.81)"/><path class="cls-6" d="M1296.18,598.55a.72.72,0,0,1-1,.33.71.71,0,1,1,1-.33Z" transform="translate(-1057.67 -439.81)"/><path class="cls-6" d="M1289.43,599.79a.7.7,0,0,1-.94.33.7.7,0,1,1,.94-.33Z" transform="translate(-1057.67 -439.81)"/><path class="cls-6" d="M1288.69,604.62a.71.71,0,0,1-1.28-.61.71.71,0,0,1,1.28.61Z" transform="translate(-1057.67 -439.81)"/><path class="cls-6" d="M1294.45,603.78a.71.71,0,1,1-.33-.95A.71.71,0,0,1,1294.45,603.78Z" transform="translate(-1057.67 -439.81)"/><path class="cls-12" d="M1258.51,600.77a15.39,15.39,0,1,1,19.85-14h0a15.39,15.39,0,0,1-16.07,14.67A15.11,15.11,0,0,1,1258.51,600.77Zm8.35-27.48a13.34,13.34,0,0,0-17.2,12.15,13.33,13.33,0,1,0,17.2-12.15Z" transform="translate(-1057.67 -439.81)"/><path class="cls-12" d="M1292,606.46c-5.63-1.72-9-9-7.57-16.94a18.35,18.35,0,0,1,5.11-10,10.18,10.18,0,0,1,8.89-3.11c3.09.55,5.65,2.69,7.26,6a18.4,18.4,0,0,1,1.29,11.17c-1.5,8.35-7.78,14.23-14,13.11C1292.67,606.63,1292.34,606.55,1292,606.46Zm6.83-27.85c-.25-.07-.5-.13-.76-.18A8.23,8.23,0,0,0,1291,581a16.41,16.41,0,0,0-4.51,8.89c-1.3,7.24,1.78,13.87,6.89,14.79s10.31-4.22,11.62-11.46a16.27,16.27,0,0,0-1.13-9.9A8.48,8.48,0,0,0,1298.85,578.61Z" transform="translate(-1057.67 -439.81)"/><path class="cls-12" d="M1277.68,588.44l-.86-1.51c2.23-1.28,7.1-2.66,9.62,1.24l-1.46.94C1282.73,585.61,1277.89,588.32,1277.68,588.44Z" transform="translate(-1057.67 -439.81)"/><path class="cls-12" d="M1215.46,580.65l-1.37-1.06c.49-.64,4.93-6.26,8.85-6.19,3.67.07,26.16,6.33,27.12,6.6l-.47,1.67c-6.45-1.8-23.85-6.49-26.68-6.54C1220.32,575.09,1216.66,579.1,1215.46,580.65Z" transform="translate(-1057.67 -439.81)"/><path class="cls-7" d="M1232.58,582.37s-6.82-15.33-13.6-13.16-3.48,23.13,3.19,27.2a7.44,7.44,0,0,0,10.56-2Z" transform="translate(-1057.67 -439.81)"/><path class="cls-8" d="M1220.08,575.19a.1.1,0,0,0-.08.19c4.65,3,6.39,8.21,7.31,13.42-1.14-2.15-3-3.57-5.83-2.27-.15.06-.06.29.09.29a4.58,4.58,0,0,1,4.64,2.53,22,22,0,0,1,1.59,4.47c.15.5,1,.41.94-.14a.5.5,0,0,0,0-.12C1230.1,587.15,1226.85,577.18,1220.08,575.19Z" transform="translate(-1057.67 -439.81)"/><rect class="cls-12" x="238.5" y="332.26" width="120.84" height="5.42"/><rect class="cls-15" x="238.5" y="332.26" width="60.82" height="5.42"/><polygon class="cls-16" points="297.91 337.67 415.69 337.67 432.33 257.68 314.56 257.68 297.91 337.67"/><path class="cls-11" d="M1413.66,739.28a6.94,6.94,0,0,0,7,7.85,8.93,8.93,0,0,0,8.67-7.85,6.93,6.93,0,0,0-7-7.85A8.93,8.93,0,0,0,1413.66,739.28Z" transform="translate(-1057.67 -439.81)"/><rect class="cls-13" x="24.74" y="324.87" width="100.59" height="11.9"/><rect class="cls-12" x="44.47" y="324.87" width="4.1" height="11.9"/><rect class="cls-12" x="103.66" y="324.87" width="9.83" height="11.9"/><path class="cls-11" d="M1125.23,767.84l-2.4,3.13a.26.26,0,0,1-.22.11h0a.24.24,0,0,1-.22-.11l-2.41-3.12v5.79a.25.25,0,0,1-.25.24.26.26,0,0,1-.27-.24v-6.52a.21.21,0,0,1,.11-.19l0,0a.28.28,0,0,1,.36.06l2.67,3.47,2.66-3.47a.29.29,0,0,1,.37-.06l.07.08a.24.24,0,0,1,0,.13v6.52a.25.25,0,0,1-.26.24.25.25,0,0,1-.26-.24Z" transform="translate(-1057.67 -439.81)"/><path class="cls-11" d="M1131.9,772.06h-3.42l-.67,1.66a.26.26,0,0,1-.24.16h-.1a.25.25,0,0,1-.15-.32l2.61-6.53a.28.28,0,0,1,.25-.15.27.27,0,0,1,.26.15l2.61,6.53a.25.25,0,0,1-.14.32h-.1a.27.27,0,0,1-.24-.16Zm-3.23-.49h3l-1.52-3.79Z" transform="translate(-1057.67 -439.81)"/><path class="cls-11" d="M1135.59,767.33h-2.27a.25.25,0,1,1,0-.49h5a.25.25,0,1,1,0,.49h-2.27v6.31a.25.25,0,0,1-.25.24.25.25,0,0,1-.26-.24Z" transform="translate(-1057.67 -439.81)"/><path class="cls-11" d="M1145,770.6h-3.86v3a.26.26,0,0,1-.27.24.25.25,0,0,1-.25-.24v-6.56a.25.25,0,0,1,.25-.24.26.26,0,0,1,.27.24v3H1145v-3a.25.25,0,0,1,.26-.24.26.26,0,0,1,.27.24v6.56a.26.26,0,0,1-.27.24.25.25,0,0,1-.26-.24Z" transform="translate(-1057.67 -439.81)"/><rect class="cls-9" x="16.68" y="260.82" width="100.59" height="15.34"/><path class="cls-11" d="M1123,710.7a.25.25,0,0,1,.34,0,4.26,4.26,0,0,0,2.46.9,3,3,0,0,0,1.66-.46,1.28,1.28,0,0,0,.64-1.05,1.1,1.1,0,0,0-.61-1,5,5,0,0,0-1.74-.58h0a4.91,4.91,0,0,1-1.77-.59,1.45,1.45,0,0,1-.77-1.23,1.64,1.64,0,0,1,.78-1.32,3.22,3.22,0,0,1,1.81-.51,4.25,4.25,0,0,1,2.32.82.21.21,0,0,1,.06.31.23.23,0,0,1-.32.06,3.89,3.89,0,0,0-2.06-.75,2.72,2.72,0,0,0-1.53.43,1.19,1.19,0,0,0-.59,1,1,1,0,0,0,.56.86,4.52,4.52,0,0,0,1.61.53h0a5.43,5.43,0,0,1,1.91.64,1.59,1.59,0,0,1,.82,1.33,1.74,1.74,0,0,1-.84,1.41,3.49,3.49,0,0,1-1.94.55,4.87,4.87,0,0,1-2.76-1A.22.22,0,0,1,1123,710.7Z" transform="translate(-1057.67 -439.81)"/><path class="cls-11" d="M1134.08,704.87a4.12,4.12,0,0,1,2.43.78.23.23,0,0,1,0,.35.26.26,0,0,1-.36,0,3.6,3.6,0,0,0-2.11-.69,3.09,3.09,0,1,0,0,6.16,3.31,3.31,0,0,0,2.08-.68.28.28,0,0,1,.38.06.22.22,0,0,1,0,.35,4.18,4.18,0,0,1-2.43.76,3.58,3.58,0,1,1,0-7.14Z" transform="translate(-1057.67 -439.81)"/><path class="cls-11" d="M1138.85,705.21a.25.25,0,0,1,.26-.24.26.26,0,0,1,.27.24v6.56a.26.26,0,0,1-.27.24.25.25,0,0,1-.26-.24Z" transform="translate(-1057.67 -439.81)"/><path class="cls-11" d="M1142.05,705.21a.25.25,0,0,1,.26-.24h3.86a.25.25,0,1,1,0,.49h-3.6v2.79h3.15a.25.25,0,1,1,0,.49h-3.15v2.78h3.6a.25.25,0,1,1,0,.49h-3.89a.25.25,0,0,1-.23-.24Z" transform="translate(-1057.67 -439.81)"/><path class="cls-11" d="M1149,706v5.76a.25.25,0,0,1-.25.24.25.25,0,0,1-.26-.24v-6.46a.23.23,0,0,1,.1-.27.28.28,0,0,1,.36.06l4.55,5.92v-5.74a.25.25,0,0,1,.26-.24.26.26,0,0,1,.27.24v6.49a.26.26,0,0,1-.27.24.27.27,0,0,1-.21-.09l0,0Z" transform="translate(-1057.67 -439.81)"/><path class="cls-11" d="M1160.25,704.87a4.09,4.09,0,0,1,2.42.78.24.24,0,0,1,0,.35.27.27,0,0,1-.37,0,3.59,3.59,0,0,0-2.1-.69,3.09,3.09,0,1,0,0,6.16,3.35,3.35,0,0,0,2.08-.68.26.26,0,0,1,.37.06.22.22,0,0,1,0,.35,4.15,4.15,0,0,1-2.42.76,3.58,3.58,0,1,1,0-7.14Z" transform="translate(-1057.67 -439.81)"/><path class="cls-11" d="M1164.94,705.21a.25.25,0,0,1,.26-.24h3.86a.25.25,0,1,1,0,.49h-3.59v2.79h3.14a.25.25,0,1,1,0,.49h-3.14v2.78h3.59a.25.25,0,1,1,0,.49h-3.88a.25.25,0,0,1-.24-.24Z" transform="translate(-1057.67 -439.81)"/><rect class="cls-12" x="25.15" y="260.82" width="25.28" height="15.34"/><rect class="cls-9" x="29.9" y="262.96" width="15.77" height="2.7"/><rect class="cls-9" x="29.9" y="267.14" width="15.77" height="2.7"/><rect class="cls-9" x="29.9" y="271.32" width="15.77" height="2.7"/><rect class="cls-13" x="20.51" y="276.16" width="102.74" height="15.73"/><rect class="cls-9" x="80.4" y="281.26" width="24.68" height="5.52"/><path class="cls-9" d="M1175.12,723.84a3.26,3.26,0,1,1-3.26-3.05A3.16,3.16,0,0,1,1175.12,723.84Z" transform="translate(-1057.67 -439.81)"/><path class="cls-11" d="M1087.77,720.28a.25.25,0,0,1,.25-.24h3.87a.25.25,0,1,1,0,.49h-3.6v2.79h3.15a.25.25,0,1,1,0,.49h-3.15v2.78h3.6a.25.25,0,1,1,0,.49H1088a.24.24,0,0,1-.23-.24Z" transform="translate(-1057.67 -439.81)"/><path class="cls-11" d="M1094.67,721.08v5.76a.26.26,0,0,1-.51,0v-6.46a.24.24,0,0,1,.09-.27.29.29,0,0,1,.37.06l4.55,5.92v-5.74a.25.25,0,0,1,.26-.24.25.25,0,0,1,.26.24v6.49a.25.25,0,0,1-.26.24.27.27,0,0,1-.21-.09l0,0Z" transform="translate(-1057.67 -439.81)"/><path class="cls-11" d="M1105.37,723.91a.25.25,0,0,1-.27-.24.26.26,0,0,1,.27-.25h2.35a.26.26,0,0,1,.23.25v2.46a.28.28,0,0,1-.09.18,4.09,4.09,0,0,1-2.43.77,3.58,3.58,0,1,1,0-7.14,4.08,4.08,0,0,1,2.44.8.24.24,0,0,1,0,.34.3.3,0,0,1-.38,0,3.36,3.36,0,0,0-2.09-.69,3.09,3.09,0,1,0,0,6.16,3.56,3.56,0,0,0,2-.6v-2.08Z" transform="translate(-1057.67 -439.81)"/><path class="cls-11" d="M1110.33,727.08h0a.25.25,0,0,1-.26-.24v-6.56a.25.25,0,0,1,.26-.24.26.26,0,0,1,.27.24v6.31h3.59a.25.25,0,1,1,0,.49Z" transform="translate(-1057.67 -439.81)"/><path class="cls-11" d="M1116.22,720.28a.25.25,0,0,1,.25-.24.26.26,0,0,1,.27.24v6.56a.26.26,0,0,1-.27.24.25.25,0,0,1-.25-.24Z" transform="translate(-1057.67 -439.81)"/><path class="cls-11" d="M1119.07,725.77a.24.24,0,0,1,.33,0,4.29,4.29,0,0,0,2.47.9,3,3,0,0,0,1.65-.46,1.28,1.28,0,0,0,.64-1,1.1,1.1,0,0,0-.61-1,4.91,4.91,0,0,0-1.74-.58h0A5,5,0,0,1,1120,723a1.45,1.45,0,0,1-.77-1.23,1.64,1.64,0,0,1,.78-1.32,3.28,3.28,0,0,1,1.82-.51,4.25,4.25,0,0,1,2.31.82.22.22,0,0,1,.07.31.24.24,0,0,1-.32.06,3.92,3.92,0,0,0-2.06-.75,2.77,2.77,0,0,0-1.54.43,1.21,1.21,0,0,0-.59,1,1,1,0,0,0,.56.86,4.59,4.59,0,0,0,1.61.53h0a5.36,5.36,0,0,1,1.91.64,1.6,1.6,0,0,1,.83,1.33,1.75,1.75,0,0,1-.85,1.41,3.46,3.46,0,0,1-1.93.55,4.87,4.87,0,0,1-2.77-1A.21.21,0,0,1,1119.07,725.77Z" transform="translate(-1057.67 -439.81)"/><path class="cls-11" d="M1131,723.8h-3.86v3a.26.26,0,0,1-.27.24.25.25,0,0,1-.26-.24v-6.56a.25.25,0,0,1,.26-.24.26.26,0,0,1,.27.24v3H1131v-3a.25.25,0,0,1,.26-.24.26.26,0,0,1,.27.24v6.56a.26.26,0,0,1-.27.24.25.25,0,0,1-.26-.24Z" transform="translate(-1057.67 -439.81)"/><rect class="cls-8" x="16" y="291.89" width="51.9" height="13.89"/><rect class="cls-8" x="67.9" y="291.89" width="47.98" height="13.89"/><rect class="cls-11" x="16" y="293.33" width="51.9" height="11"/><path class="cls-17" d="M1078.18,735.41q8.16-.12,16.32-.16l7.38,0,16.31,0c5.44,0,1.94.08,7.38.16-5.44.08-1.94.13-7.38.16l-16.31,0-7.38,0Q1086.34,735.52,1078.18,735.41Z" transform="translate(-1057.67 -439.81)"/><path class="cls-17" d="M1078.18,737.57q8.16-.12,16.32-.16l7.38,0,16.31,0c5.44,0,1.94.08,7.38.16-5.44.08-1.94.13-7.38.16l-16.31,0-7.38,0Q1086.34,737.69,1078.18,737.57Z" transform="translate(-1057.67 -439.81)"/><path class="cls-17" d="M1078.18,739.73q8.16-.12,16.32-.16l7.38-.05,16.31.05c5.44,0,1.94.08,7.38.16-5.44.07-1.94.13-7.38.16l-16.31.05-7.38-.05Q1086.34,739.85,1078.18,739.73Z" transform="translate(-1057.67 -439.81)"/><path class="cls-17" d="M1078.18,741.89q8.16-.12,16.32-.16l7.38-.05,16.31.05c5.44,0,1.94.08,7.38.16-5.44.07-1.94.13-7.38.16l-16.31.05-7.38-.05Q1086.34,742,1078.18,741.89Z" transform="translate(-1057.67 -439.81)"/><rect class="cls-12" x="78.53" y="291.89" width="6.75" height="13.89"/><rect class="cls-12" x="108.85" y="291.89" width="4.54" height="13.89"/><rect class="cls-9" x="1113.07" y="745.59" width="58.45" height="19.08" transform="translate(1226.92 1070.45) rotate(180)"/><rect class="cls-9" x="1068.68" y="745.59" width="44.38" height="19.08" transform="translate(1124.08 1070.45) rotate(180)"/><rect class="cls-11" x="1113.07" y="747.57" width="58.45" height="15.12" transform="translate(1226.92 1070.45) rotate(180)"/><path class="cls-17" d="M1167.74,759.58q-6.84.12-13.67.16l-13.67,0-13.66,0q-6.84,0-13.67-.16,6.83-.11,13.67-.16l13.66,0,13.67,0Q1160.91,759.47,1167.74,759.58Z" transform="translate(-1057.67 -439.81)"/><path class="cls-17" d="M1167.74,756.62q-6.84.11-13.67.16l-13.67.05-13.66-.05q-6.84,0-13.67-.16,6.83-.12,13.67-.17l13.66,0,13.67.05Q1160.91,756.49,1167.74,756.62Z" transform="translate(-1057.67 -439.81)"/><path class="cls-17" d="M1167.74,753.65q-6.84.12-13.67.16l-13.67.05-13.66-.05q-6.84,0-13.67-.16,6.83-.12,13.67-.16l13.66,0,13.67,0Q1160.91,753.54,1167.74,753.65Z" transform="translate(-1057.67 -439.81)"/><path class="cls-17" d="M1167.74,750.68q-6.84.12-13.67.16l-13.67,0-13.66,0q-6.84,0-13.67-.16,6.83-.1,13.67-.16l13.66,0,13.67,0Q1160.91,750.57,1167.74,750.68Z" transform="translate(-1057.67 -439.81)"/><rect class="cls-12" x="18.08" y="305.78" width="8.31" height="19.08"/></g></svg>