<svg id="upload-make" xmlns="http://www.w3.org/2000/svg" xmlns:xlink="http://www.w3.org/1999/xlink" viewBox="0 0 207.68 211.6"><defs><style>.cls-1{opacity:0.5;fill:url(#linear-gradient);}.cls-2{fill:url(#linear-gradient-2);}</style><linearGradient id="linear-gradient" x1="555.26" y1="477.35" x2="759.38" y2="477.35" gradientTransform="matrix(0.92, -0.39, 0.39, 0.92, -134.96, 299.75)" gradientUnits="userSpaceOnUse"><stop offset="0" stop-color="#31475e"/><stop offset="1" stop-color="#6d4163"/></linearGradient><linearGradient id="linear-gradient-2" x1="570.32" y1="481.22" x2="767.82" y2="481.22" gradientTransform="matrix(1, 0, 0, 1, 0, 0)" xlink:href="#linear-gradient"/></defs><g id="upload"><path class="cls-1" d="M607,399.76c6.61-17.58,29.21-22.81,30.61-23.11,1.24-.27,18.58-3.54,31.2,4.72,7.21,4.71,7.86,9.24,15.41,20.41a154.39,154.39,0,0,0,34.35,35.94c16.41,12.73,19.58,9.33,31.14,20.46,5.56,5.34,17.12,16.46,21.06,33.72,5.75,25.19-8.31,46.06-12,51.13-9.29,12.85-19.37,20.12-40.8,26.87-15.35,4.83-35,8.7-72.79,16.31-13.36,2.69-20.89.36-30.39-2.81-27.51-9.19-39.89-33.7-42.08-38.28-3.85-8-13.1-27.31-5.15-43.85,3.05-6.35,8.06-14.09,16.89-18.4,16.31-8,18.56-8.9,23.26-16.61,2.08-3.42,3.06-7.2,2-24.43C607.75,411,603.71,408.41,607,399.76Z" transform="translate(-564.41 -375.79)"/><path class="cls-2" d="M656,389c12.53-13.16,34.63-9.26,36-9,1.2.23,17.88,3.87,26,16,4.64,6.92,3.51,11.2,6,24a149.65,149.65,0,0,0,17,45c9.81,17.55,13.91,15.72,20,30,2.93,6.86,9,21.14,6,38-4.4,24.6-24.82,37.87-30,41-13.13,7.93-24.87,10.59-46.5,8.5-15.5-1.5-34.5-5.5-71-13-12.92-2.65-18.74-7.58-26-14-21-18.58-22.78-45.09-23-50-.39-8.6-1.33-29.28,12-41,5.12-4.5,12.5-9.5,22-10,17.54-.92,19.9-.91,27-6,3.14-2.25,5.44-5.25,11-21C652.45,399.31,649.83,395.48,656,389Z" transform="translate(-564.41 -375.79)"/></g></svg>